<svg width="56" height="56" xmlns="http://www.w3.org/2000/svg">
    <g fill="none" stroke="var(--primary-color, #000)" stroke-linecap="round" stroke-linejoin="round">
        <path d="M18 2h21v53H18zM3 10h15v45H3zM39 10h15v45H39z"/>
        <path d="M21 5h3v3h-3zM27 5h3v3h-3zM33 5h3v3h-3zM21 13h3v3h-3zM27 13h3v3h-3zM33 13h3v3h-3zM21 21h3v3h-3zM27 21h3v3h-3zM33 21h3v3h-3zM21 29h3v3h-3zM27 29h3v3h-3zM33 29h3v3h-3zM21 37h3v3h-3zM27 37h3v3h-3zM33 37h3v3h-3zM25 46h7v9h-7zM6 13h3v3H6zM12 13h3v3h-3zM6 21h3v3H6zM12 21h3v3h-3zM6 29h3v3H6zM12 29h3v3h-3zM6 37h3v3H6zM12 37h3v3h-3zM6 45h3v3H6zM12 45h3v3h-3zM42 13h3v3h-3zM48 13h3v3h-3zM42 21h3v3h-3zM48 21h3v3h-3zM42 29h3v3h-3zM48 29h3v3h-3zM42 37h3v3h-3zM48 37h3v3h-3zM42 45h3v3h-3zM48 45h3v3h-3z"/>
    </g>
</svg>