<svg xmlns="http://www.w3.org/2000/svg" width="56" height="56">
    <g fill="none" stroke="var(--primary-color, #000)">
        <path d="M27.5 13.3c-6.904 0-12.5 3.296-12.5 10.2 0 .168.025.333.031.5H15v30h25V24h-.031c.006-.167.031-.332.031-.5 0-6.904-5.596-10.2-12.5-10.2z"
              stroke-linejoin="round"/>
        <path stroke-linejoin="round" d="M21.6 21h12v5h-12zM20 36h15v15H20z"/>
        <path stroke-linejoin="round"
              d="M20 36h15v5H20zM33 43.8c0 1.105-.448 2-1 2s-1-.895-1-2 1-2 1-2 1 .895 1 2zM14.312 8.825L17.9 7.056l3.538 7.175L17.85 16zM40.537 8.825L36.95 7.056l-3.537 7.175L37 16z"/>
        <path d="M17.017 25c-1-12.906 21-12.906 21 0"/>
        <path d="M39 27.1c0 1.105-.448 2-1 2s-1-.895-1-2 1-2 1-2 1 .895 1 2z" stroke-linejoin="round"/>
        <path d="M23 14c.429-6.524 8.571-6.524 9 0M14.4 9l.8 12M40.6 9l-.8 12"/>
        <path d="M12 37c.351-1.248 3-1 3-1v15h-3s-2.25-6 0-14zM43 37c-.343-1.248-2.933-1-2.933-1v15H43s2.2-6 0-14z"
              stroke-linejoin="round"/>
    </g>
</svg>