<svg width="56" height="56" xmlns="http://www.w3.org/2000/svg">
    <g fill="none" stroke="var(--primary-color, #000)">
        <path d="M27.007 1.74c4.8-.065 9.028 7.9 8.992 21.265.37.31.6.784.6 1.305a1.693 1.693 0 01-3.385 0c0-.485.201-.926.529-1.234.035-10.05-3.35-19.078-6.736-19.078-3.385 0-6.77 9.027-6.736 19.078.328.308.53.749.53 1.234a1.693 1.693 0 01-3.386 0c0-.521.23-.994.6-1.305C17.978 9.64 22.133 1.807 27.006 1.74z"/>
        <path d="M35.189 15.84h7.053v38.368H11.773V15.84h7.053M20.942 15.84h12.131"/>
    </g>
</svg>