<svg xmlns="http://www.w3.org/2000/svg" width="56" height="56">
    <g fill="none" stroke="var(--primary-color, #000)" stroke-linejoin="round">
        <path d="M6 30.5h45l-5.143 25H11.143zM2 24.5h53v6H2zM18.765.429s1.58-.284 2.235.07c.656.355 1.284 1.831 1.284 1.831L10.401 24.326s-1.58.283-2.235-.071c-.656-.355-1.284-1.83-1.284-1.83zM38.401.429s-1.58-.284-2.235.07c-.656.355-1.284 1.831-1.284 1.831l11.883 21.996s1.58.283 2.235-.071c.656-.355 1.284-1.83 1.284-1.83z"/>
        <path d="M18.51 51.08s-1.253.684-1.998.684c-.746 0-2.001-.682-2.001-.682L14.489 34s1.254-.684 2-.684c.745 0 2 .682 2 .682zM26.51 51.08s-1.253.684-1.998.684c-.746 0-2.001-.682-2.001-.682L22.489 34s1.254-.684 2-.684c.745 0 2 .682 2 .682zM34.51 51.08s-1.253.684-1.998.684c-.746 0-2.001-.682-2.001-.682L30.489 34s1.254-.684 2-.684c.745 0 2 .682 2 .682zM42.51 51.08s-1.253.684-1.998.684c-.746 0-2.001-.682-2.001-.682L38.489 34s1.254-.684 2-.684c.745 0 2 .682 2 .682z"/>
    </g>
</svg>