<svg width="56" height="56" xmlns="http://www.w3.org/2000/svg"><g fill="none" stroke="var(--primary-color, #000)" stroke-linecap="round" stroke-linejoin="round"><path d="M48 16H7v3.6h41zM48 22H7v3.6h41zM48 28H7v3.6h41zM52.686 34H2.315v3.6h50.371z"/></g><g fill="none" stroke="var(--primary-color, #000)"><path d="M41.5 20v2M41.5 26v2M41.5 32v2M13.5 32v2M13.5 26v2M13.5 20v2"/></g><g fill="none" stroke="var(--primary-color, #000)" stroke-linecap="round" stroke-linejoin="round"><path d="M48.75 37.6h-2v15h2zM8.25 37.6h-2v15h2z"/></g><g fill="none" stroke="var(--primary-color, #000)" stroke-linecap="round" stroke-linejoin="round"><path d="M42.5 37.6h-2V50h2zM14.5 37.6h-2V50h2z"/></g></svg>