<svg xmlns="http://www.w3.org/2000/svg" width="56" height="56">
    <g fill="none" stroke="var(--primary-color, #000)">
        <path d="M19.818 45.84a9.66 9.66 0 11-19.318 0 9.66 9.66 0 1119.318 0zM55.879 45.84a9.66 9.66 0 11-19.318 0 9.66 9.66 0 1119.318 0zM30.121 45.84a1.932 1.932 0 11-3.863 0 1.932 1.932 0 113.863 0z"
              stroke-width=".99939488" stroke-linejoin="round"/>
        <path d="M13.379 23.303L27.545 43.91M32.697 24.59l14.038 21.38M17.5 29.742L9.515 45.197h16.743M28.833 43.91l6.955-14.168"/>
        <path stroke-linejoin="round" d="M8.227 20.728H18.53v2.576H8.227z"/>
        <path d="M30.121 25.879c4.834-2.002 14.167-6.44 12.879-2.576"/>
    </g>
</svg>