<svg width="56" height="56" xmlns="http://www.w3.org/2000/svg">
    <g fill="none" stroke="var(--primary-color, #000)">
        <path d="M3.667 25.812a3.825 3.825 0 015.717-5.006M54 23.644a3.81 3.81 0 01-.353 1.606m-5.466-4.872A3.825 3.825 0 0154 23.644"
              stroke-linecap="round" stroke-linejoin="round" stroke-width="1.002"/>
        <path d="M48.181 20.378S37.423 30.53 28.497 33.08C19.571 30.53 9.384 20.805 9.384 20.805"/>
        <path d="M3.667 25.812s15.092 16.96 24.83 16.96 25.15-17.521 25.15-17.521M11.92 23.644l-5.1 5.1m9.715-2.258l-5.89 6.084m33.95-8.926l5.1 5.1m-9.714-2.258l5.89 6.084"/>
    </g>
</svg>