<svg xmlns="http://www.w3.org/2000/svg" width="56" height="56">
    <g fill="none" stroke="var(--primary-color, #000)">
        <path d="M4.5 39c16-6 28.5-6 45.5 0v14h-5.325S45 44 41 44s-4 9-4 9h-5s1-12-4-12-4.309 12-4.309 12H18s0-9-4-9-3.572 9-3.572 9H4.5z"
              stroke-linejoin="round"/>
        <path d="M8.7 31c20.927-7 39 .6 39 .6M27.724 28v6.4M33.432 28.2v6.4M39.139 29.1v6.4M44.846 30.8v6.4M22.017 28.2v6.4M16.31 29.1v6.4M10.602 30.8v6.4M4.5 21v18"/>
        <path stroke-linejoin="round" d="M1.6 15.6h6v5h-6z"/>
        <path stroke-linejoin="round"
              d="M3.6 15.6h2v5h-2zM4.6 10.6c1.4 4.286 2.072 3.935 3.4 5H1c2.304-.747 2.76-3.034 3.6-5z"/>
        <path d="M50 21v18"/>
        <path stroke-linejoin="round" d="M47.1 15.6h6v5h-6z"/>
        <path stroke-linejoin="round"
              d="M49.1 15.6h2v5h-2zM50.1 10.6c1.4 4.286 2.072 3.935 3.4 5h-7c2.304-.747 2.76-3.034 3.6-5z"/>
    </g>
</svg>