<svg xmlns="http://www.w3.org/2000/svg" width="56" height="56">
    <g fill="none" stroke="var(--primary-color, #000)">
        <path d="M26 28.944c-10.675 7.59-23.419 3.639-21.722-7.556C4.766 18.168.5 11 .5 11c8.696-.24 23.8 2.833 25.69 14.166"/>
        <path d="M26 29.889C22.223 33.666 24.112 45 17.5 45c-5.686 0-7.182-4.956-6.61-8.5.903-5.61 4.721-9.445 15.11-9.067"/>
        <path d="M31 20.5a2 4.5 0 11-4 0 2 4.5 0 114 0z" transform="matrix(.94446 0 0 .5247 .5 8.27)"
              stroke-width="1.421"/>
        <path d="M29.778 29.165c0 4.294-1.889 10.168-1.889 10.168S26 33.46 26 29.165c0-4.295.846-7.777 1.89-7.777 1.043 0 1.888 3.482 1.888 7.777z"/>
        <path d="M29.684 28.944c10.675 7.59 23.42 3.639 21.723-7.556C50.919 18.168 55.184 11 55.184 11c-8.696-.24-23.8 2.833-25.689 14.166"/>
        <path d="M29.684 29.889C33.462 33.666 31.573 45 38.184 45c5.687 0 7.182-4.956 6.611-8.5-.903-5.61-4.722-9.445-15.111-9.067M25.056 8.166s-3.588-2.32-4.722 0c-1.135 2.32 6.611 8.5 6.611 8.5M30.61 8.166s3.587-2.32 4.722 0c1.134 2.32-6.611 8.5-6.611 8.5"/>
        <path d="M12 19a2 2 0 11-4 0 2 2 0 114 0z" transform="matrix(1.94446 0 0 1.77287 -9.334 -16.028)"
              stroke-width=".539"/>
        <path d="M38.111 38.889a1.889 1.889 0 103.778 0 1.889 1.889 0 10-3.778 0z" stroke-width="1.0001831399999999"/>
        <path transform="matrix(1.94446 0 0 1.77287 26.066 -16.028)" d="M12 19a2 2 0 11-4 0 2 2 0 114 0z"
              stroke-width=".539"/>
        <path d="M14.111 38.889a1.889 1.889 0 103.778 0 1.889 1.889 0 10-3.778 0z" stroke-width="1.0001831399999999"/>
    </g>
</svg>