<svg xmlns="http://www.w3.org/2000/svg" width="56" height="56">
    <g fill="none" stroke="var(--primary-color, #000)">
        <path d="M15 36h25l-2 19H17zM12 31h31v5H12zM21 31s-3.317-9.91-3-15c.196-3.156.68-6.851 3-9 2.017-1.868 5.314-2.586 8-2 2.085.455 3.97 2.13 5 4 1.456 2.644 1.063 5.982 1 9-.092 4.383-2 13-2 13"/>
        <path d="M18 21c-5 0-8-1-10-2-2.404-1.202-4.779-4.428-4-7 .432-1.427 2.51-1.938 4-2 3.587-.15 10 4 10 4M35 19s3.477-4.36 6-5c1.647-.418 3.77-.173 5 1 .995.948 1.367 2.676 1 4-.378 1.363-1.786 2.275-3 3-2.988 1.785-10 3-10 3M24 31c-2.07-12.148-2.706-23.281 2.1-26M30.1 31c.95-12.468 1.98-23.47-2.167-26M27 31V5M4 12c4.667-.635 9.333 2.788 14 4M4 13c2 4 14 5 14 5M35 21c3.667-1.753 7.333-5.848 11-6M34.6 23c13-5 11.8-7 11.8-7M29 2l-1 3M23 2l1 3M34 4l-2 3M37 8l-3 1M18.2 4.4L21 7M15 9l4 1"/>
    </g>
</svg>