<svg width="56" height="56" xmlns="http://www.w3.org/2000/svg">
    <g fill="none" stroke="var(--primary-color, #000)" stroke-linecap="square">
        <path d="M9.113 2.54h36.394c.65 0 1.174.494 1.174 1.107v49.81c0 .614-.523 1.108-1.174 1.108H9.113c-.65 0-1.174-.494-1.174-1.107V3.647c0-.613.524-1.107 1.174-1.107z"/>
        <path d="M12.434 19.14h3.187c.65 0 1.174.617 1.174 1.384v2.767c0 .766-.524 1.383-1.174 1.383h-3.187c-.65 0-1.174-.617-1.174-1.383v-2.767c0-.767.524-1.384 1.174-1.384zM21.289 19.14h3.187c.65 0 1.174.617 1.174 1.384v2.767c0 .766-.524 1.383-1.174 1.383h-3.187c-.65 0-1.174-.617-1.174-1.383v-2.767c0-.767.524-1.384 1.174-1.384zM30.145 19.14h3.187c.65 0 1.174.617 1.174 1.384v2.767c0 .766-.524 1.383-1.174 1.383h-3.187c-.65 0-1.174-.617-1.174-1.383v-2.767c0-.767.524-1.384 1.174-1.384zM39 19.14h3.187c.65 0 1.174.617 1.174 1.384v2.767c0 .766-.524 1.383-1.174 1.383H39c-.65 0-1.174-.617-1.174-1.383v-2.767c0-.767.524-1.384 1.174-1.384zM12.434 28.04h3.187c.65 0 1.174.617 1.174 1.384v2.767c0 .766-.524 1.384-1.174 1.384h-3.187c-.65 0-1.174-.618-1.174-1.384v-2.767c0-.767.524-1.384 1.174-1.384zM21.289 28.04h3.187c.65 0 1.174.617 1.174 1.384v2.767c0 .766-.524 1.384-1.174 1.384h-3.187c-.65 0-1.174-.618-1.174-1.384v-2.767c0-.767.524-1.384 1.174-1.384zM30.145 28.04h3.187c.65 0 1.174.617 1.174 1.384v2.767c0 .766-.524 1.384-1.174 1.384h-3.187c-.65 0-1.174-.618-1.174-1.384v-2.767c0-.767.524-1.384 1.174-1.384zM39 28.04h3.187c.65 0 1.174.617 1.174 1.384v2.767c0 .766-.524 1.384-1.174 1.384H39c-.65 0-1.174-.618-1.174-1.384v-2.767c0-.767.524-1.384 1.174-1.384zM12.434 36.84h3.187c.65 0 1.174.617 1.174 1.384v2.767c0 .766-.524 1.384-1.174 1.384h-3.187c-.65 0-1.174-.618-1.174-1.384v-2.767c0-.767.524-1.384 1.174-1.384zM21.289 36.84h3.187c.65 0 1.174.617 1.174 1.384v2.767c0 .766-.524 1.384-1.174 1.384h-3.187c-.65 0-1.174-.618-1.174-1.384v-2.767c0-.767.524-1.384 1.174-1.384zM30.145 36.84h3.187c.65 0 1.174.617 1.174 1.384v2.767c0 .766-.524 1.384-1.174 1.384h-3.187c-.65 0-1.174-.618-1.174-1.384v-2.767c0-.767.524-1.384 1.174-1.384zM39 36.84h3.187c.65 0 1.174.617 1.174 1.384v2.767c0 .766-.524 1.384-1.174 1.384H39c-.65 0-1.174-.618-1.174-1.384v-2.767c0-.767.524-1.384 1.174-1.384zM12.434 45.74h3.187c.65 0 1.174.617 1.174 1.384v2.767c0 .766-.524 1.383-1.174 1.383h-3.187c-.65 0-1.174-.617-1.174-1.383v-2.767c0-.767.524-1.384 1.174-1.384zM21.289 45.74h3.187c.65 0 1.174.617 1.174 1.384v2.767c0 .766-.524 1.383-1.174 1.383h-3.187c-.65 0-1.174-.617-1.174-1.383v-2.767c0-.767.524-1.384 1.174-1.384zM30.145 45.74h3.187c.65 0 1.174.617 1.174 1.384v2.767c0 .766-.524 1.383-1.174 1.383h-3.187c-.65 0-1.174-.617-1.174-1.383v-2.767c0-.767.524-1.384 1.174-1.384zM39 45.74h3.187c.65 0 1.174.617 1.174 1.384v2.767c0 .766-.524 1.383-1.174 1.383H39c-.65 0-1.174-.617-1.174-1.383v-2.767c0-.767.524-1.384 1.174-1.384zM12.395 5.84h29.831c.629 0 1.135.555 1.135 1.245v7.472c0 .69-.506 1.245-1.135 1.245H12.395c-.629 0-1.135-.555-1.135-1.245V7.085c0-.69.506-1.245 1.135-1.245z"/>
    </g>
</svg>