<svg width="56" height="56" xmlns="http://www.w3.org/2000/svg">
    <g fill="none" stroke="var(--primary-color, #000)" stroke-linecap="round" stroke-linejoin="round" stroke-width="1">
        <path d="M39.162 25.01c0 2.21-6.054-1.257-12.957-1.257-3.953 0-5.91 4.051-7.837 4.886C16.93 29.262 15 26.945 15 26c0-2.21 4.15-7.582 11.052-7.582 4.02 0 8.468.374 11.165 2.332 1.935 1.404 1.945 3.336 1.945 4.259z"/>
        <path d="M47 25c-2.68.668-5.758-10.848-12.11-10.848s-9.36 1.558-11.195-.505c-2.4-2.697-4.851-4.734 11.5-5 1.886-.03 9.026-4.44 10.634-2.682 1.48 1.616-5.128 4.676-3.129 7.053C46.68 17.748 52.688 23.58 47 25zM35 27.574c-4.478-2.92-3 7.426-12.11 10.848-5.946 2.233-9.36-1.558-11.195.505-2.4 2.697-4.851 4.734 11.5 5 1.886.03 9.026 4.44 10.634 2.682 1.48-1.616-5.128-4.676-3.129-7.053 2.152-2.557 9.545-1.486 10.627-3.619.92-1.812-4.071-6.891-6.328-8.363zM48 51c-1.261 0 1.45-7.282-.243-9.258-1.272-1.485-9.048 2.186-7.186-.118 2.129-2.634 7.832-7.509 3.8-11.418-1.126-1.092 1.694-3.368 2.638-3.368 2.21 0 7.581 4.149 7.581 11.052 0 4.02-.373 8.468-2.33 11.165C50.854 50.989 48.922 51 48 51z"/>
        <path d="M48 12c-1.381 3.012-1.308 3.15.198 3.842 1.506.69 3.875 1.671 5.256-1.34 1.381-3.013.754-5.37-.226-6.705C47.642.183 49.381 8.988 48 12zM11 26c1.261 0-1.45-7.282.243-9.258 1.272-1.485 6.947 2.835 7.186-.118.697-8.624-7.832-7.509-3.8-11.418 1.126-1.092-2.053-4.109-2.638-3.368-7.54 9.536-6.902.328-8.645 2.845C2.082 6.508 4.41 9.99 4.41 12.89c0 4.02.373 8.468 2.33 11.165C8.146 25.99 10.078 26 11 26zM41 53c3.012 1.381 3.15 1.308 3.842-.198.69-1.506 2.052-6.694-.96-8.075-3.012-1.381-5.75 2.065-7.085 3.045C29.183 53.358 37.987 51.62 41 53zM27.59 29.038c0 1.105-4.605 5.962-7.09 5.962s-4.5-.896-4.5-2 2.014-2 4.5-2 7.09-3.067 7.09-1.962zM4 41c9 9 6.437 1.87 12.6 4.982 3.528 1.781 5.5 1.028 7.598 1.152 1.565.092 2.243 3.03 1.817 3.873-.996 1.972-6.432.935-13.283 1.785C3 54 5.342 48.642 3.817 45.68 2.723 43.553 3.347 40.347 4 41zM4 32c.545 3.269-1.308 3.15.198 3.842 1.506.69 6.922.3 8.304-2.712 1.38-3.013-1.816-6.12-3.274-5.333C7 29 2 20 4 32zM37.6 2.824C37.6 3.652 33.314 6 30 6s-10.19.243-10.19-.586S26.687 3 30 3s7.6-1.005 7.6-.176z"/>
    </g>
</svg>