<svg width="56" height="56" xmlns="http://www.w3.org/2000/svg">
    <g fill="none" stroke="var(--primary-color, #000)">
        <path d="M5.065 21s-1.747 1.388-2.336 2.254c-.59.866-1.133 2.842-1.133 2.842l20.578 9.427c.53 1.9 2.937 4.42 5.83 4.42 1.031 0 2-.322 2.846-.82l-.319.469L51.501 50s1.467-.98 2.056-1.846c.59-.866.855-2.435.855-2.435l-20.656-9.987c.113-.329.19-.647.19-.931 0-1.902-2.66-3.446-5.942-3.446-.896 0-1.737.124-2.5.33z"
              stroke-linecap="square" stroke-width="1.002"/>
        <path d="M50.904 21s1.747 1.388 2.336 2.254c.59.866 1.133 2.842 1.133 2.842l-20.578 9.427c-.53 1.9-2.937 4.42-5.83 4.42-1.032 0-2-.322-2.846-.82l.318.469L4.468 50s-1.467-.98-2.056-1.846c-.59-.866-.856-2.435-.856-2.435l20.656-9.987c-.112-.329-.19-.647-.19-.931 0-1.902 2.66-3.446 5.942-3.446.897 0 1.738.124 2.5.33z"
              stroke-linecap="square" stroke-width="1.002"/>
        <path d="M23.984 31s1.454-1.454 4-1.454 4 1.454 4 1.454"/>
        <path d="M26.984 5.5s.627-.5 1-.5 1 .5 1 .5v24h-2z" stroke-linecap="round" stroke-linejoin="round"
              stroke-width="1.002"/>
        <path d="M29 6c1.763-.405 3-1.954 3-2.45C32 2.97 30.21 2 28 2s-4 .97-4 1.55c0 .475 1.203 1.981 2.854 2.45"
              stroke-linecap="round" stroke-linejoin="round" stroke-width="1.002"/>
    </g>
</svg>