<svg width="56" height="56" xmlns="http://www.w3.org/2000/svg">
    <g fill="none" stroke="var(--primary-color, #000)">
        <path d="M15.599 1.49h26.218a2.273 2.273 0 012.28 2.276v48.925a2.273 2.273 0 01-2.28 2.276H15.599a2.273 2.273 0 01-2.28-2.276V3.766a2.273 2.273 0 012.28-2.275z"/>
        <path d="M16.739 8.317h23.938v37.547H16.739zM25.858 3.766h5.7c.631 0 1.14.508 1.14 1.138 0 .63-.509 1.138-1.14 1.138h-5.7c-.632 0-1.14-.508-1.14-1.138 0-.63.508-1.138 1.14-1.138zM30.988 50.302c0 1.257-1.02 2.276-2.28 2.276s-2.28-1.02-2.28-2.276 1.021-2.276 2.28-2.276 2.28 1.02 2.28 2.276z"/>
    </g>
</svg>