<svg xmlns="http://www.w3.org/2000/svg" width="56" height="56">
    <g transform="translate(0 -996.362)" fill="none" stroke="var(--primary-color, #000)">
        <rect width="25" height="5" x="14.5" y="1024.362" rx="1" ry="1" stroke-linecap="round"/>
        <path d="M14.946 1002.362c7.914-1.825 15.963-1.625 24.108 0 .485.097.892.398.892.893v4.464c0 .495-.408.994-.892.893-7.614-1.584-15.575-1.864-24.108 0-.483.106-.892-.398-.892-.893v-4.464c0-.495.41-.782.892-.893z"
              stroke-linecap="round"/>
        <g stroke-linecap="round">
            <path d="M15.75 1029.362h3.553v23H15.75zM34.697 1029.362h3.553v23h-3.553z"/>
        </g>
        <path d="M27 1024.362v-17M31 1024.362l1-16.8M35 1024.362l2-16M23 1024.362l-1-16.8M19 1024.362l-2-16M19 1034.362h16"/>
    </g>
</svg>