<svg width="56" height="56" xmlns="http://www.w3.org/2000/svg">
    <g fill="none" stroke="var(--primary-color, #000)">
        <path d="M31.4 2a4 4 0 01-8 0h8z" stroke-linecap="round" stroke-linejoin="round" stroke-width="1.002"/>
        <path d="M27.4 6v28M7.9 30c0 9 10-6 19.6 4 10.4-10 19.4 5 19.4-4"/>
    </g>
    <g fill="none" stroke="var(--primary-color, #000)">
        <g stroke-linecap="round" stroke-linejoin="round" stroke-width="1.002" transform="translate(.15)">
            <path d="M25 34.1c0 2.21 1.007 4 2.25 4s2.25-1.79 2.25-4H25z"/>
            <circle cx="27.287" cy="40.7" r=".5"/>
            <circle cx="27.287" cy="43.7" r=".5"/>
            <path d="M26.5 49.2c0 1.367.353 2.392.787 2.392.435 0 .788-1.025.788-2.392s-.788-2.475-.788-2.475-.787 1.108-.787 2.475z"/>
        </g>
        <path d="M27.437 38.2v9"/>
    </g>
    <g fill="none" stroke="var(--primary-color, #000)">
        <path d="M44.6 26c0 2.21 1.007 4 2.25 4s2.25-1.79 2.25-4h-4.5z" stroke-linecap="round" stroke-linejoin="round"
              stroke-width="1.002"/>
        <g stroke-linecap="round" stroke-linejoin="round" stroke-width="1.002">
            <path d="M45.234 23.478c0 2.528.723 2.423 1.615 2.423.893 0 1.616.105 1.616-2.423s-1.616-4.577-1.616-4.577-1.615 2.049-1.615 4.577z"/>
            <circle cx="46.9" cy="35.375" r=".5"/>
            <circle cx="46.9" cy="38.375" r=".5"/>
            <path d="M46.113 43.875c0 1.367.353 2.392.787 2.392.435 0 .788-1.025.788-2.392S46.9 41.4 46.9 41.4s-.787 1.108-.787 2.475z"/>
        </g>
        <path d="M46.9 30.475v11.4"/>
    </g>
    <g fill="none" stroke="var(--primary-color, #000)">
        <g stroke-linecap="round" stroke-linejoin="round" stroke-width="1.002">
            <path d="M5.7 26c0 2.21 1.007 4 2.25 4s2.25-1.79 2.25-4H5.7zM6.334 23.478c0 2.528.724 2.423 1.616 2.423.892 0 1.615.105 1.615-2.423S7.95 18.901 7.95 18.901s-1.616 2.049-1.616 4.577z"/>
            <path d="M5.7 26c0 2.21 1.007 4 2.25 4s2.25-1.79 2.25-4H5.7zM6.334 23.478c0 2.528.724 2.423 1.616 2.423.892 0 1.615.105 1.615-2.423S7.95 18.901 7.95 18.901s-1.616 2.049-1.616 4.577z"/>
            <circle cx="7.9" cy="35.375" r=".5"/>
            <circle cx="7.9" cy="38.375" r=".5"/>
            <path d="M7.113 43.875c0 1.367.352 2.392.787 2.392.435 0 .787-1.025.787-2.392S7.9 41.4 7.9 41.4s-.787 1.108-.787 2.475z"/>
        </g>
        <path d="M7.9 30.475v11.4"/>
    </g>
    <g fill="none" stroke="var(--primary-color, #000)">
        <g stroke-linecap="round" stroke-linejoin="round" stroke-width="1.002" transform="translate(-.175)">
            <path d="M15.6 24c0 2.21 1.007 4 2.25 4s2.25-1.79 2.25-4h-4.5zM16.234 21.478c0 2.528.723 2.423 1.615 2.423.893 0 1.616.105 1.616-2.423s-1.615-4.577-1.615-4.577-1.616 2.049-1.616 4.577z"/>
            <path d="M15.6 24c0 2.21 1.007 4 2.25 4s2.25-1.79 2.25-4h-4.5zM16.234 21.478c0 2.528.723 2.423 1.615 2.423.893 0 1.616.105 1.616-2.423s-1.615-4.577-1.615-4.577-1.616 2.049-1.616 4.577z"/>
            <circle cx="17.9" cy="33.075" r=".5"/>
            <circle cx="17.9" cy="36.075" r=".5"/>
            <path d="M17.113 41.575c0 1.367.353 2.392.787 2.392.435 0 .788-1.025.788-2.392S17.9 39.1 17.9 39.1s-.787 1.108-.787 2.475z"/>
        </g>
        <path d="M17.725 28.175v11.4"/>
    </g>
    <g fill="none" stroke="var(--primary-color, #000)">
        <g stroke-linecap="round" stroke-linejoin="round" stroke-width="1.002" transform="translate(-.225)">
            <path d="M35.1 24c0 2.21 1.007 4 2.25 4s2.25-1.79 2.25-4h-4.5zM35.734 21.478c0 2.528.723 2.423 1.615 2.423.893 0 1.616.105 1.616-2.423s-1.616-4.577-1.616-4.577-1.615 2.049-1.615 4.577z"/>
            <path d="M35.1 24c0 2.21 1.007 4 2.25 4s2.25-1.79 2.25-4h-4.5zM35.734 21.478c0 2.528.723 2.423 1.615 2.423.893 0 1.616.105 1.616-2.423s-1.616-4.577-1.616-4.577-1.615 2.049-1.615 4.577z"/>
            <circle cx="37.4" cy="33.075" r=".5"/>
            <circle cx="37.4" cy="36.075" r=".5"/>
            <path d="M36.613 41.575c0 1.367.353 2.392.787 2.392.435 0 .788-1.025.788-2.392S37.4 39.1 37.4 39.1s-.787 1.108-.787 2.475z"/>
        </g>
        <path d="M37.175 28.175v11.4"/>
    </g>
</svg>