<svg width="56" height="56" xmlns="http://www.w3.org/2000/svg">
    <path d="M27.766 3c-1.76 6.158-2.553 10.095-5.845 13.681 1.394.274 2.799.472 4.192.543-1.684 3.212-3.644 5.068-6.852 7.274 1.83.444 3.653.695 5.482.87-2.088 3.055-4.524 5.058-7.457 7.31 2.152.505 4.297.836 6.45 1.05-2.808 3.347-6.09 5.537-10.038 7.998a80.042 80.042 0 009.674 1.23c-3.508 3.916-7.638 6.342-12.657 9.12 11.361 1.924 22.74 2.14 34.101 0-4.584-2.732-9.053-5.148-12.697-9.083 3.235-.19 6.48-.581 9.714-1.267-3.604-2.42-7.112-4.568-10.037-7.926a39.82 39.82 0 006.45-1.122c-2.67-2.208-5.245-4.187-7.417-7.239 1.811-.16 3.63-.452 5.442-.94-2.87-2.187-5.109-4.032-6.893-7.311a34.67 34.67 0 004.232-.507C30.36 13.15 29.668 9.166 27.766 3z"
          fill="none" stroke="var(--primary-color, #000)"/>
</svg>