<svg width="56" height="56" xmlns="http://www.w3.org/2000/svg">
    <g fill="none" stroke="var(--primary-color, #000)">
        <path d="M27.744 16.709C24.848 19.172 9.465 30.416 9.465 30.416h3.889v24.396h28.779V30.416h3.888S30.64 19.172 27.744 16.709z"/>
        <path d="M22.687 36.984s1.502-2.806 5.139-2.793c3.636.014 4.973 2.793 4.973 2.793v17.829H22.687z"/>
        <path d="M3.69 37.395l9.676-6v23.371H3.69zM42.19 31.395l9.676 6v17.371H42.19z" stroke-linecap="round"
              stroke-linejoin="round"/>
        <path d="M6.487 41.209s.64-1.197 2.192-1.191c1.551.006 2.12 1.191 2.12 1.191v7.605H6.488zM44.987 41.209s.64-1.197 2.192-1.191c1.551.006 2.12 1.191 2.12 1.191v7.605h-4.312z"/>
        <circle cx="28" cy="25" r="2" stroke-linecap="round" stroke-linejoin="round"/>
        <path d="M27.8 2v15M22.8 7h10"/>
    </g>
</svg>