<svg width="56" height="56" xmlns="http://www.w3.org/2000/svg">
    <g fill="none" stroke="var(--primary-color, #000)">
        <path d="M8.433 1.338h38.792c1.535 0 2.77 1.323 2.77 2.967v47.467c0 1.643-1.235 2.967-2.77 2.967H8.433c-1.535 0-2.771-1.324-2.771-2.967V4.305c0-1.644 1.236-2.967 2.77-2.967z"/>
        <path d="M9.64 51.33V11.564h36.376V51.33zM43.188 4.747a1.136 1.136 0 112.273 0 1.136 1.136 0 01-2.273 0zM5.662 8.155h44.333M34.094 4.747a1.136 1.136 0 112.273 0 1.136 1.136 0 01-2.273 0zM38.641 4.747a1.136 1.136 0 112.273 0 1.136 1.136 0 01-2.273 0zM9.541 27.47h36.575"/>
        <g stroke-width=".935">
            <path d="M-30.147 26.5c0-4.418 1.567-8 3.5-8s3.5 3.582 3.5 8zM-26.647 14v4M-29.653 14h6.011"
                  transform="matrix(1.1368 0 0 1.0065 52.436 .799)"/>
        </g>
        <g stroke-width=".935">
            <path d="M-30.147 26.5c0-4.418 1.567-8 3.5-8s3.5 3.582 3.5 8zM-26.647 14v4M-29.653 14h6.011"
                  transform="matrix(1.1368 0 0 1.0065 63.804 .799)"/>
        </g>
        <g>
            <path d="M22.145 30.879c-5.022 0-9.094 4.07-9.094 9.09s4.072 9.089 9.094 9.089c2.14 0 4.094-.752 5.648-1.988a9.109 9.109 0 01-3.375-7.102 9.11 9.11 0 013.375-7.1 9.035 9.035 0 00-5.648-1.989z"/>
            <path d="M22.145 34.287c-3.14 0-5.684 2.543-5.684 5.68s2.545 5.682 5.684 5.682c1.31 0 2.484-.463 3.446-1.207a9.052 9.052 0 01-1.173-4.474c0-1.625.425-3.154 1.173-4.474-.962-.745-2.135-1.207-3.446-1.207z"/>
            <path d="M42.606 39.968c0 5.02-4.072 9.09-9.094 9.09s-9.094-4.07-9.094-9.09 4.072-9.09 9.094-9.09 9.094 4.07 9.094 9.09z"/>
            <path d="M39.196 39.968a5.682 5.682 0 01-5.684 5.68c-3.139 0-5.684-2.542-5.684-5.68s2.545-5.68 5.684-5.68a5.682 5.682 0 015.684 5.68z"/>
        </g>
    </g>
</svg>