<svg width="56" height="56" xmlns="http://www.w3.org/2000/svg">
    <g fill="none" stroke="var(--primary-color, #000)">
        <path stroke-linecap="square" d="M2.024 30.452h5.119V54H2.024z"/>
        <path d="M1 30.452h19.452M10.214 44.786s3.265-2.046 5.096-2.048c1.84-.002 3.288 2.055 5.13 2.048 1.806-.007 3.212-2.04 5.019-2.048 1.84-.007 3.288 2.041 5.13 2.048 1.875.007 3.364-2.048 5.24-2.048 1.875 0 3.364 2.065 5.24 2.048 1.79-.017 3.174-2.028 4.963-2.048 1.893-.02 5.296 2.048 5.296 2.048M10.214 48.881s3.265-2.046 5.096-2.048c1.84-.002 3.288 2.055 5.13 2.048 1.806-.007 3.212-2.04 5.019-2.048 1.84-.007 3.288 2.041 5.13 2.048 1.875.007 3.364-2.048 5.24-2.048 1.875 0 3.364 2.065 5.24 2.048 1.79-.017 3.174-2.028 4.963-2.048 1.893-.02 5.296 2.048 5.296 2.048M10.214 52.976s3.265-2.046 5.096-2.048c1.84-.002 3.288 2.055 5.13 2.048 1.806-.007 3.212-2.04 5.019-2.048 1.84-.007 3.288 2.041 5.13 2.048 1.875.007 3.364-2.048 5.24-2.048 1.875 0 3.364 2.065 5.24 2.048 1.79-.017 3.174-2.028 4.963-2.048 1.893-.02 5.296 2.048 5.296 2.048"/>
        <path d="M19.429 7.929l-3.071 7.166 4.095 4.095-3.072 9.215 3.072 2.047-1.024-3.071 4.095-8.19-4.095-4.096 2.048-5.119L24.548 11h5.119l-5.119-1.024-5.119-2.047"
              stroke-linecap="round" stroke-linejoin="round"/>
        <circle cx="21.476" cy="4.557" r="2.323" stroke-linecap="square"/>
    </g>
</svg>