<svg xmlns="http://www.w3.org/2000/svg" width="56" height="56">
    <g fill="none" stroke="var(--primary-color, #000)">
        <path d="M37.338 42.484s6.265-10.49-5.012-13.987c-4.26-1.321-12.53-2.332-20.049-4.663C10.438 23.264 1 26.648 1 25c0-3.497 5.012-4.662 5.012-4.662s-3.235-8.485 3.76-12.822c3.758-2.331 8.846-2.48 16.915 1.166 11.904 5.828 27.36 20.747 10.651 33.802z"
              stroke-linecap="round" stroke-linejoin="round"/>
        <path d="M13 20.5a.5.5 0 11-1 0 .5.5 0 111 0z" transform="matrix(1.25304 0 0 1.16558 -1.506 -8.22)"
              stroke-width=".827" stroke-linecap="round" stroke-linejoin="round"/>
        <path d="M4.76 25c5.011-1.166 7.517-4.662 7.517-4.662" stroke-linecap="round"/>
        <path d="M23.053 7.516c-.812-2.646 15.03-6.08 12.53-3.496-4.51 4.662-5.011 6.993-5.011 6.993"/>
        <path d="M21.049 16.84s5.069 9.22 6.265 6.994c1.253-2.33 1.253-6.993 1.253-6.993" stroke-linecap="round"/>
        <path d="M37.338 42.484s-7.518-2.331-10.024-4.663c-2.307-2.145 0 6.994 6.265 6.994-1.253 6.993 6.265 10.49 5.012 8.159-2.241-4.17-1.253-10.49-1.253-10.49"/>
    </g>
</svg>