<svg xmlns="http://www.w3.org/2000/svg" width="56" height="56">
    <g fill="none" stroke="var(--primary-color, #000)">
        <path d="M35.263 8.189c-5.594 0-10.129 4.539-10.129 10.138 0 4.051 2.393 7.543 5.824 9.166-15.62 5.77-20 4.525-29.458-1.732C2.85 52.796 16.577 55.5 28.51 55.5c11.935 0 20.684-6.11 21.61-13.518.872-6.988-3.9-12.804-10.299-14.615 3.294-1.674 5.571-5.09 5.571-9.04 0-5.6-4.535-10.138-10.129-10.138z"
              stroke-linecap="round" stroke-linejoin="round"/>
        <path d="M44.717 14.947s5.402 4.056 10.804 2.704c-1.35 5.407-10.804 4.055-10.804 4.055h0"/>
        <path d="M36 20a1 1 0 11-2 0 1 1 0 112 0z" transform="matrix(1.35053 0 0 1.35175 -7.954 -12.088)"
              stroke-width=".74" stroke-linecap="round" stroke-linejoin="round"/>
        <path d="M29.861 35.224s-1.35 5.407-16.206 2.703c4.051 13.518 17.557 6.759 17.557 6.759h0"
              stroke-linecap="round"/>
    </g>
</svg>