<?xml version="1.0" encoding="UTF-8" standalone="no"?>

<svg>
    <g
       id="g3822">
      <path
         transform="matrix(1.0454545,0,0,1.0454545,-1.1418687,996.3622)"
         d="M 23,20.5 C 23,20.776142 22.776142,21 22.5,21 22.223858,21 22,20.776142 22,20.5 22,20.223858 22.223858,20 22.5,20 c 0.276142,0 0.5,0.223858 0.5,0.5 z"
         style="fill:none;stroke:#000000;stroke-width:0.95652169;stroke-linecap:round;stroke-linejoin:round;stroke-miterlimit:4;stroke-opacity:1;stroke-dasharray:none"
          />
      <path
         
         style="fill:none;stroke:#000000;stroke-width:0.95652169;stroke-linecap:round;stroke-linejoin:round;stroke-miterlimit:4;stroke-opacity:1;stroke-dasharray:none"
         id="path3781"
         d="M 23,20.5 C 23,20.776142 22.776142,21 22.5,21 22.223858,21 22,20.776142 22,20.5 22,20.223858 22.223858,20 22.5,20 c 0.276142,0 0.5,0.223858 0.5,0.5 z"
         transform="matrix(1.0454545,0,0,1.0454545,9.3126767,996.3622)" />
      <path
         id="path3783"
         d="m 19.767222,1015.1803 c 3.136364,-2.0908 6.272728,0 6.272728,0"
         style="fill:none;stroke:#000000;stroke-width:0.99999988px;stroke-linecap:round;stroke-linejoin:miter;stroke-opacity:1" />
      <path
         style="fill:none;stroke:#000000;stroke-width:0.99999988px;stroke-linecap:round;stroke-linejoin:miter;stroke-opacity:1"
         d="m 36.494495,1015.1803 c -3.136364,-2.0908 -6.272728,0 -6.272728,0"
         id="path3785"
          />
      <path
         id="path3787"
         d="m 29.176313,1019.3622 c 0,0 1.736876,2.9223 1.045454,4.1819 -0.530295,0.9659 -3.136363,1.0454 -3.136363,1.0454"
         style="fill:none;stroke:#000000;stroke-width:0.99999988px;stroke-linecap:round;stroke-linejoin:miter;stroke-opacity:1" />
      <path
         id="path3789"
         d="m 22.903586,1027.7258 c 2.636949,2.264 7.548879,1.7669 10.454545,0"
         style="fill:none;stroke:#000000;stroke-width:0.99999988px;stroke-linecap:round;stroke-linejoin:miter;stroke-opacity:1" />
      <path
         id="path3791"
         d="m 26.03995,1030.8622 c 4.181817,0 4.181817,0 4.181817,0"
         style="fill:none;stroke:#000000;stroke-width:0.99999988px;stroke-linecap:round;stroke-linejoin:miter;stroke-opacity:1" />
      <path
         id="path3793"
         d="m 16.003586,1016.2258 c 0,0 -1.617499,-2.2462 -2.927273,-1.0455 -2.326037,2.1326 -1.305919,7.3046 1.045454,9.4092 1.29833,1.1621 1.881819,0 1.881819,0"
         style="fill:none;stroke:#000000;stroke-width:0.99999988px;stroke-linecap:round;stroke-linejoin:miter;stroke-opacity:1" />
      <path
         id="path3795"
         d="m 15.45034,1017.9077 c 0,0 -1.059966,-1.2653 -1.636364,-0.9091 -1.031092,0.6372 0.09091,4.5455 0.09091,4.5455"
         style="fill:none;stroke:#000000;stroke-width:1px;stroke-linecap:round;stroke-linejoin:miter;stroke-opacity:1" />
      <path
         style="fill:none;stroke:#000000;stroke-width:0.99999988px;stroke-linecap:round;stroke-linejoin:miter;stroke-opacity:1"
         d="m 40.48943,1016.2258 c 0,0 1.435682,-2.2462 2.745455,-1.0455 2.326037,2.1326 1.305919,7.3046 -1.045455,9.4092 -1.298328,1.1621 -1.881817,0 -1.881817,0"
          />
      <path
         style="fill:none;stroke:#000000;stroke-width:1px;stroke-linecap:round;stroke-linejoin:miter;stroke-opacity:1"
         d="m 40.860859,1017.9077 c 0,0 1.059965,-1.2654 1.636363,-0.9091 1.031093,0.6372 -0.09091,4.5455 -0.09091,4.5455"
          />
      <path
         d="m 16.35943,1013.3622 c -1.90909,-6.3636 1.454546,-7.2727 0.545455,-8.1819 -0.909091,-0.909 -0.909091,-3.6362 -0.909091,-3.6362 0,0 4.744889,2.3129 6.363636,0.909 -0.90909,-1.8182 -1.355192,-5.22304 0,-4.54544 2.727273,2.72724 10.909091,2.72724 15.454546,5.45454 3.486204,2.0918 4,10 2.181818,10.9091"
         style="fill:none;stroke:#000000;stroke-width:1px;stroke-linecap:butt;stroke-linejoin:miter;stroke-opacity:1" />
      <path
         d="m 23.268521,1035.1804 c 0,16.3637 0,17.2728 0,17.2728"
         style="fill:none;stroke:#000000;stroke-width:1px;stroke-linecap:butt;stroke-linejoin:miter;stroke-opacity:1" />
      <path
         d="m 32.35943,1035.1804 c 0,16.3637 0,17.2728 0,17.2728"
         style="fill:none;stroke:#000000;stroke-width:1px;stroke-linecap:butt;stroke-linejoin:miter;stroke-opacity:1" />
      <path
         d="m 5.995794,1052.4532 c 0,0 -0.5993962,-7.7969 2.7272728,-10.9091 3.5405872,-3.3125 14.5454542,-2.7273 14.5454542,-2.7273"
         style="fill:none;stroke:#000000;stroke-width:1px;stroke-linecap:butt;stroke-linejoin:miter;stroke-opacity:1" />
      <path
         style="fill:none;stroke:#000000;stroke-width:1px;stroke-linecap:butt;stroke-linejoin:miter;stroke-opacity:1"
         d="m 49.863066,1052.4531 c 0,0 0.599398,-7.7968 -2.727272,-10.909 -3.540587,-3.3125 -14.545454,-2.7274 -14.545454,-2.7274"
          />
      <path
         d="m 23.268521,1039.8348 c 5.454545,5.4547 9.090909,0 9.090909,0"
         style="fill:none;stroke:#000000;stroke-width:1px;stroke-linecap:butt;stroke-linejoin:miter;stroke-opacity:1" />
      <rect
         transform="matrix(0.68699397,0.72666312,-0.72666312,0.68699397,0,0)"
         y="696.086"
         x="776.85522"
         height="2.6571567"
         width="2.6571567"
         style="fill:#000000;fill-opacity:1;stroke:#000000;stroke-width:1;stroke-linecap:round;stroke-linejoin:round;stroke-miterlimit:4;stroke-opacity:1;stroke-dasharray:none" />
      <path
         d="m 27.476,1047.3622 0.56,0 1.479759,4.4 -3.519965,0 z"
         style="fill:#000000;fill-opacity:1;stroke:#000000;stroke-width:1;stroke-linecap:butt;stroke-linejoin:miter;stroke-miterlimit:4;stroke-opacity:1" />
      <path
         d="m 21,1038.8622 -6.822388,6.3182 L 19,1052.3622"
         style="fill:none;stroke:#000000;stroke-width:1px;stroke-linecap:butt;stroke-linejoin:miter;stroke-opacity:1" />
      <path
         style="fill:none;stroke:#000000;stroke-width:1px;stroke-linecap:butt;stroke-linejoin:miter;stroke-opacity:1"
         d="m 34.4,1038.8622 6.541249,6.3181 -5.541249,7.1819"
          />
      <path
         id="path3776"
         d="m 40.676314,1019.3622 c 0.177953,11.4986 -6.272728,16.7273 -12.545455,16.7273 -7.318182,0 -13.093482,-6.2871 -12.545456,-16.7273 0.410391,-7.8181 3.137663,-11.4545 3.137663,-11.4545 6.296536,1.8552 15.454547,-0.9091 15.454547,-0.9091 2.727272,0.9091 6.363636,3.6363 6.498701,12.3636 z"
         style="fill:none;stroke:#000000;stroke-width:0.99999988;stroke-opacity:1" />
    </g>
</svg>
