<svg xmlns="http://www.w3.org/2000/svg" width="56" height="56">
    <g stroke="var(--primary-color, #000)" stroke-linecap="round">
        <path d="M32.224 9.5c-6.373.16-6.144 4.265-6.144 6.505 0 2.595-4.698-2.75-4.698-6.144 0-3.393 2.167-5.61 4.698-6.144 6.867-1.445 9.035 5.71 6.144 5.783z"
              fill="none"/>
        <path d="M29.333 19.692a2.53 2.53 0 11-5.06 0 2.53 2.53 0 115.06 0z" fill="none" stroke-width=".99967389"/>
        <path d="M15.96 20.415c3.325 5.44 6.766 3.189 8.706 2.068 2.248-1.297-.033 5.444-2.971 7.14-2.94 1.698-5.944.93-7.67-.996-4.686-5.224.427-10.68 1.935-8.212zM32.457 28.627c3.048-5.599-.622-7.453-2.562-8.574-2.247-1.297 4.731-2.693 7.67-.996 2.939 1.696 3.776 4.682 2.972 7.14-2.182 6.67-9.463 4.97-8.08 2.43z"
              fill="none"/>
        <path d="M44.874 19.692a18.07 18.07 0 11-36.142 0 18.07 18.07 0 1136.142 0z" fill="none"
              stroke-width=".99967389"/>
        <path d="M24.358 37.718l-.738 9.54c-5.18.882-8.98 3.921-8.98 8.242h24.34c0-4.315-3.812-7.325-8.98-8.212l-.738-9.57c-1.373.203-3.19.138-4.904 0z"
              fill="none"/>
        <g fill="none" stroke-width="1.058">
            <path d="M25.392 51.246a1.418 1.418 0 11-2.836 0 1.418 1.418 0 012.836 0zM31.063 51.246a1.418 1.418 0 11-2.835 0 1.418 1.418 0 012.835 0z"
                  stroke-width="1.00006392"/>
        </g>
    </g>
</svg>