<?xml version="1.0" encoding="UTF-8" standalone="no"?>
<!-- Created with Inkscape (http://www.inkscape.org/) -->

<svg
   xmlns:dc="http://purl.org/dc/elements/1.1/"
   xmlns:cc="http://creativecommons.org/ns#"
   xmlns:rdf="http://www.w3.org/1999/02/22-rdf-syntax-ns#"
   xmlns:svg="http://www.w3.org/2000/svg"
   xmlns="http://www.w3.org/2000/svg"
   xmlns:sodipodi="http://sodipodi.sourceforge.net/DTD/sodipodi-0.dtd"
   xmlns:inkscape="http://www.inkscape.org/namespaces/inkscape"
   width="56"
   height="56"
   id="svg2"
   version="1.1"
   inkscape:version="0.48.5 r10040"
   sodipodi:docname="Fan.svg">
  <defs
     id="defs4" />
  <sodipodi:namedview
     id="base"
     pagecolor="#ffffff"
     bordercolor="#666666"
     borderopacity="1.0"
     inkscape:pageopacity="0.0"
     inkscape:pageshadow="2"
     inkscape:zoom="5.1707185"
     inkscape:cx="31.055494"
     inkscape:cy="5.1906196"
     inkscape:document-units="px"
     inkscape:current-layer="layer1"
     showgrid="true"
     inkscape:window-width="1012"
     inkscape:window-height="828"
     inkscape:window-x="55"
     inkscape:window-y="63"
     inkscape:window-maximized="0">
    <inkscape:grid
       type="xygrid"
       id="grid3980"
       empspacing="5"
       visible="true"
       enabled="true"
       snapvisiblegridlinesonly="true" />
  </sodipodi:namedview>
  <metadata
     id="metadata7">
    <rdf:RDF>
      <cc:Work
         rdf:about="">
        <dc:format>image/svg+xml</dc:format>
        <dc:type
           rdf:resource="http://purl.org/dc/dcmitype/StillImage" />
        <dc:title></dc:title>
      </cc:Work>
    </rdf:RDF>
  </metadata>
  <g
     inkscape:label="Layer 1"
     inkscape:groupmode="layer"
     id="layer1"
     transform="translate(0,-996.3622)">
    <path
       style="fill:#ffffff;fill-opacity:1;stroke:#000000;stroke-width:1;stroke-linecap:round;stroke-linejoin:miter;stroke-miterlimit:4;stroke-opacity:1"
       d="m 32.22406,1005.8622 c -6.372874,0.1594 -6.14406,4.2647 -6.14406,6.5055 0,2.5949 -4.6984,-2.7508 -4.6984,-6.144 0,-3.3934 2.167363,-5.6112 4.6984,-6.1442 6.866892,-1.4457 9.035384,5.7104 6.14406,5.7827 z"
       id="path3846"
       inkscape:connector-curvature="0"
       sodipodi:nodetypes="sssss" />
    <path
       sodipodi:type="arc"
       style="fill:#ffffff;fill-opacity:1;stroke:#000000;stroke-width:1.38344979;stroke-linecap:round;stroke-linejoin:miter;stroke-miterlimit:4;stroke-opacity:1;stroke-dasharray:none"
       id="path3849"
       sodipodi:cx="29.5"
       sodipodi:cy="30.5"
       sodipodi:rx="3.5"
       sodipodi:ry="3.5"
       d="m 33,30.5 a 3.5,3.5 0 1 1 -7,0 3.5,3.5 0 1 1 7,0 z"
       transform="matrix(0.72283075,0,0,0.72283075,5.4793226,994.0078)" />
    <path
       sodipodi:nodetypes="sssss"
       inkscape:connector-curvature="0"
       id="path3859"
       d="m 15.960369,1016.777 c 3.324406,5.4395 6.76537,3.1887 8.705938,2.0683 2.247242,-1.2975 -0.03306,5.4442 -2.971712,7.1408 -2.938647,1.6967 -5.943116,0.9287 -7.670113,-0.9968 -4.6854267,-5.2241 0.427626,-10.68 1.935887,-8.2123 z"
       style="fill:#ffffff;fill-opacity:1;stroke:#000000;stroke-width:1;stroke-linecap:round;stroke-linejoin:miter;stroke-miterlimit:4;stroke-opacity:1" />
    <path
       sodipodi:nodetypes="sssss"
       inkscape:connector-curvature="0"
       id="path3861"
       d="m 32.456666,1024.9893 c 3.048468,-5.5987 -0.62131,-7.4533 -2.561878,-8.5737 -2.247241,-1.2974 4.731466,-2.6934 7.670113,-0.9968 2.938646,1.6966 3.775752,4.6825 2.971714,7.1409 -2.181467,6.6698 -9.463012,4.9697 -8.079949,2.4296 z"
       style="fill:#ffffff;fill-opacity:1;stroke:#000000;stroke-width:1;stroke-linecap:round;stroke-linejoin:miter;stroke-miterlimit:4;stroke-opacity:1" />
    <path
       sodipodi:type="arc"
       style="fill:none;stroke:#000000;stroke-width:1.38344979;stroke-linecap:round;stroke-linejoin:miter;stroke-miterlimit:4;stroke-opacity:1;stroke-dasharray:none"
       id="path3865"
       sodipodi:cx="30"
       sodipodi:cy="26"
       sodipodi:rx="25"
       sodipodi:ry="25"
       d="M 55,26 A 25,25 0 1 1 5,26 25,25 0 1 1 55,26 z"
       transform="matrix(0.72283075,0,0,0.72283075,5.1179073,997.2605)" />
    <path
       style="fill:none;stroke:#000000;stroke-width:1;stroke-linecap:round;stroke-linejoin:miter;stroke-miterlimit:4;stroke-opacity:1"
       d="m 24.358089,1034.0798 -0.738471,9.5411 c -5.179465,0.8814 -8.979796,3.9204 -8.979796,8.2413 l 24.339975,0 c 0,-4.3145 -3.812112,-7.3252 -8.979797,-8.2118 l -0.73847,-9.5706 c -1.372082,0.2034 -3.189281,0.1388 -4.903441,0 z"
       id="rect3871"
       inkscape:connector-curvature="0" />
    <g
       id="g3886"
       transform="matrix(0.94524174,0,0,0.94524174,0.8156615,50.508836)">
      <path
         transform="translate(0,996.3622)"
         d="M 26,58.5 C 26,59.328427 25.328427,60 24.5,60 23.671573,60 23,59.328427 23,58.5 23,57.671573 23.671573,57 24.5,57 c 0.828427,0 1.5,0.671573 1.5,1.5 z"
         sodipodi:ry="1.5"
         sodipodi:rx="1.5"
         sodipodi:cy="58.5"
         sodipodi:cx="24.5"
         id="path3878"
         style="fill:none;stroke:#000000;stroke-width:1.05793047;stroke-linecap:round;stroke-linejoin:miter;stroke-miterlimit:4;stroke-opacity:1;stroke-dasharray:none"
         sodipodi:type="arc" />
      <path
         transform="translate(6,996.3622)"
         d="M 26,58.5 C 26,59.328427 25.328427,60 24.5,60 23.671573,60 23,59.328427 23,58.5 23,57.671573 23.671573,57 24.5,57 c 0.828427,0 1.5,0.671573 1.5,1.5 z"
         sodipodi:ry="1.5"
         sodipodi:rx="1.5"
         sodipodi:cy="58.5"
         sodipodi:cx="24.5"
         id="path3884"
         style="fill:none;stroke:#000000;stroke-width:1.05793047;stroke-linecap:round;stroke-linejoin:miter;stroke-miterlimit:4;stroke-opacity:1;stroke-dasharray:none"
         sodipodi:type="arc" />
    </g>
  </g>
</svg>
