<?xml version="1.0" encoding="UTF-8" standalone="no"?>
<!-- Created with Inkscape (http://www.inkscape.org/) -->

<svg
   xmlns:dc="http://purl.org/dc/elements/1.1/"
   xmlns:cc="http://creativecommons.org/ns#"
   xmlns:rdf="http://www.w3.org/1999/02/22-rdf-syntax-ns#"
   xmlns:svg="http://www.w3.org/2000/svg"
   xmlns="http://www.w3.org/2000/svg"
   xmlns:sodipodi="http://sodipodi.sourceforge.net/DTD/sodipodi-0.dtd"
   xmlns:inkscape="http://www.inkscape.org/namespaces/inkscape"
   width="56"
   height="56"
   id="svg2"
   version="1.1"
   inkscape:version="0.48.5 r10040"
   sodipodi:docname="Firetruck.svg">
  <defs
     id="defs4" />
  <sodipodi:namedview
     id="base"
     pagecolor="#ffffff"
     bordercolor="#666666"
     borderopacity="1.0"
     inkscape:pageopacity="0.0"
     inkscape:pageshadow="2"
     inkscape:zoom="10.341437"
     inkscape:cx="24.302247"
     inkscape:cy="27.210277"
     inkscape:document-units="px"
     inkscape:current-layer="layer1"
     showgrid="true"
     inkscape:window-width="1029"
     inkscape:window-height="919"
     inkscape:window-x="26"
     inkscape:window-y="26"
     inkscape:window-maximized="0">
    <inkscape:grid
       type="xygrid"
       id="grid3980"
       empspacing="5"
       visible="true"
       enabled="true"
       snapvisiblegridlinesonly="true" />
  </sodipodi:namedview>
  <metadata
     id="metadata7">
    <rdf:RDF>
      <cc:Work
         rdf:about="">
        <dc:format>image/svg+xml</dc:format>
        <dc:type
           rdf:resource="http://purl.org/dc/dcmitype/StillImage" />
        <dc:title></dc:title>
      </cc:Work>
    </rdf:RDF>
  </metadata>
  <g
     inkscape:label="Layer 1"
     inkscape:groupmode="layer"
     id="layer1"
     transform="translate(0,-996.3622)">
    <path
       style="fill:none;stroke:#000000;stroke-width:1;stroke-linejoin:miter;stroke-miterlimit:4;stroke-opacity:1"
       d="m 15.471738,48 21.467036,0 M 49.50956,48 55,48 55,36.03125 49,19 32,19 31.910459,21 0,21 0,48 3.0943475,48 M 34.03125,21 47.3,21 l 4.794,13.9375 0,1.0625 -18.06275,0 z"
       transform="translate(0,996.3622)"
       id="rect3000"
       inkscape:connector-curvature="0"
       sodipodi:nodetypes="ccccccccccccccccc" />
    <path
       sodipodi:type="arc"
       style="fill:none;fill-opacity:1;stroke:#000000;stroke-width:0.97054498000000000;stroke-linejoin:round;stroke-miterlimit:4;stroke-opacity:1;stroke-dasharray:none"
       id="path3995"
       sodipodi:cx="14.710346"
       sodipodi:cy="40.108185"
       sodipodi:rx="6.1871843"
       sodipodi:ry="6.1871843"
       d="m 20.897531,40.108185 c 0,3.417087 -2.770097,6.187184 -6.187185,6.187184 -3.417087,0 -6.1871841,-2.770097 -6.1871841,-6.187184 0,-3.417088 2.7700971,-6.187185 6.1871841,-6.187185 3.417088,0 6.187185,2.770097 6.187185,6.187185 z"
       transform="matrix(1.0303489,0,0,1.030349,-5.8318308,1004.4117)" />
    <path
       transform="matrix(0.49402416,0,0,0.49402416,2.057692,1025.9227)"
       d="m 20.897531,40.108185 c 0,3.417087 -2.770097,6.187184 -6.187185,6.187184 -3.417087,0 -6.1871841,-2.770097 -6.1871841,-6.187184 0,-3.417088 2.7700971,-6.187185 6.1871841,-6.187185 3.417088,0 6.187185,2.770097 6.187185,6.187185 z"
       sodipodi:ry="6.1871843"
       sodipodi:rx="6.1871843"
       sodipodi:cy="40.108185"
       sodipodi:cx="14.710346"
       id="path3997"
       style="fill:none;fill-opacity:1;stroke:#000000;stroke-width:2.02419249999999980;stroke-linejoin:round;stroke-miterlimit:4;stroke-opacity:1;stroke-dasharray:none"
       sodipodi:type="arc" />
    <path
       transform="matrix(1.0303489,0,0,1.030349,28.168169,1004.4117)"
       d="m 20.897531,40.108185 c 0,3.417087 -2.770097,6.187184 -6.187185,6.187184 -3.417087,0 -6.1871841,-2.770097 -6.1871841,-6.187184 0,-3.417088 2.7700971,-6.187185 6.1871841,-6.187185 3.417088,0 6.187185,2.770097 6.187185,6.187185 z"
       sodipodi:ry="6.1871843"
       sodipodi:rx="6.1871843"
       sodipodi:cy="40.108185"
       sodipodi:cx="14.710346"
       id="path2996"
       style="fill:none;fill-opacity:1;stroke:#000000;stroke-width:0.97054499000000005;stroke-linejoin:round;stroke-miterlimit:4;stroke-opacity:1;stroke-dasharray:none"
       sodipodi:type="arc" />
    <path
       sodipodi:type="arc"
       style="fill:none;fill-opacity:1;stroke:#000000;stroke-width:2.02419256999999990;stroke-linejoin:round;stroke-miterlimit:4;stroke-opacity:1;stroke-dasharray:none"
       id="path2998"
       sodipodi:cx="14.710346"
       sodipodi:cy="40.108185"
       sodipodi:rx="6.1871843"
       sodipodi:ry="6.1871843"
       d="m 20.897531,40.108185 c 0,3.417087 -2.770097,6.187184 -6.187185,6.187184 -3.417087,0 -6.1871841,-2.770097 -6.1871841,-6.187184 0,-3.417088 2.7700971,-6.187185 6.1871841,-6.187185 3.417088,0 6.187185,2.770097 6.187185,6.187185 z"
       transform="matrix(0.49402416,0,0,0.49402416,36.057692,1025.9227)" />
    <path
       style="fill:none;stroke:#000000;stroke-width:1;stroke-linejoin:miter;stroke-miterlimit:4;stroke-opacity:1"
       d="m 41.2,1008.3622 c -1.656854,0 -3,1.3431 -3,3 l 0,4 6,0 0,-4 c 0,-1.6569 -1.343146,-3 -3,-3 z"
       id="path3783"
       inkscape:connector-curvature="0"
       sodipodi:nodetypes="ssccss" />
    <path
       style="fill:none;stroke:#000000;stroke-width:1px;stroke-linecap:butt;stroke-linejoin:miter;stroke-opacity:1"
       d="m 32,13 0,35"
       id="path3945"
       inkscape:connector-curvature="0"
       transform="translate(0,996.3622)"
       sodipodi:nodetypes="cc" />
    <path
       style="fill:none;stroke:#000000;stroke-width:1px;stroke-linecap:butt;stroke-linejoin:miter;stroke-opacity:1"
       d="m 0,1034.7622 32,0"
       id="path3947"
       inkscape:connector-curvature="0" />
    <path
       style="fill:none;stroke:#000000;stroke-width:1px;stroke-linecap:butt;stroke-linejoin:miter;stroke-opacity:1"
       d="m 0,1025.7622 32,0"
       id="path3949"
       inkscape:connector-curvature="0" />
    <g
       id="g3967"
       transform="translate(0,1.1996)">
      <path
         inkscape:connector-curvature="0"
         id="path3951"
         d="m 34.468978,997.4064 -33.7609491,9.2303"
         style="fill:none;stroke:#000000;stroke-width:1px;stroke-linecap:butt;stroke-linejoin:miter;stroke-opacity:1" />
      <path
         inkscape:connector-curvature="0"
         id="path3953"
         d="m 37.106205,1007.0523 -33.7609491,9.2303"
         style="fill:none;stroke:#000000;stroke-width:1px;stroke-linecap:butt;stroke-linejoin:miter;stroke-opacity:1" />
      <path
         inkscape:connector-curvature="0"
         id="path3955"
         d="m 29.645985,998.725 2.637227,9.646"
         style="fill:none;stroke:#000000;stroke-width:1px;stroke-linecap:butt;stroke-linejoin:miter;stroke-opacity:1" />
      <path
         inkscape:connector-curvature="0"
         id="path3957"
         d="m 24.822993,1000.0436 2.637226,9.646"
         style="fill:none;stroke:#000000;stroke-width:1px;stroke-linecap:butt;stroke-linejoin:miter;stroke-opacity:1" />
      <path
         inkscape:connector-curvature="0"
         id="path3959"
         d="m 20,1001.3622 2.637227,9.646"
         style="fill:none;stroke:#000000;stroke-width:1px;stroke-linecap:butt;stroke-linejoin:miter;stroke-opacity:1" />
      <path
         inkscape:connector-curvature="0"
         id="path3961"
         d="m 15.177007,1002.6808 2.637227,9.646"
         style="fill:none;stroke:#000000;stroke-width:1px;stroke-linecap:butt;stroke-linejoin:miter;stroke-opacity:1" />
      <path
         inkscape:connector-curvature="0"
         id="path3963"
         d="m 10.354015,1003.9994 2.637226,9.646"
         style="fill:none;stroke:#000000;stroke-width:1px;stroke-linecap:butt;stroke-linejoin:miter;stroke-opacity:1" />
      <path
         inkscape:connector-curvature="0"
         id="path3965"
         d="m 5.5310219,1005.318 2.637226,9.646"
         style="fill:none;stroke:#000000;stroke-width:1px;stroke-linecap:butt;stroke-linejoin:miter;stroke-opacity:1" />
    </g>
  </g>
</svg>
