<svg width="56" height="56" xmlns="http://www.w3.org/2000/svg">
    <g fill="none" stroke="var(--primary-color, #000)" stroke-linecap="round">
        <path d="M16.462 6c4.006 0 7.71 3.64 7.23 8.436-1.204 12.05-2.879 21.02-2.41 31.333.182 4.002-3.224 7.23-7.23 7.23h-2.41c-4.006 0-6.924-3.236-7.231-7.23 0 0-2.41-20.858-2.41-31.333C2 7.206 10.814 6 16.461 6z"
              stroke-linejoin="round" stroke-width="1.002"/>
        <path d="M3.205 32.513c1.291-6.234 4.091-12.332 10.846-18.077 4.239 5.104 8.118 10.235 7.954 15.667M14.051 14.436v-4.82"/>
        <path d="M37.273 6c-4.006 0-7.71 3.64-7.23 8.436 1.204 12.05 2.879 21.02 2.41 31.333-.183 4.002 3.224 7.23 7.23 7.23h2.41c4.006 0 6.924-3.236 7.231-7.23 0 0 2.41-20.858 2.41-31.333C51.735 7.206 42.92 6 37.274 6z"
              stroke-linejoin="round" stroke-width="1.002"/>
        <path d="M50.529 32.513c-1.291-6.234-4.091-12.332-10.846-18.077-4.238 5.104-8.118 10.235-7.954 15.667M39.683 14.436v-4.82"/>
    </g>
</svg>