<svg width="56" height="56" version="1.1" xmlns="http://www.w3.org/2000/svg">
 <g fill="none">
  <path d="m25.163 1012.6c-3.0865 25.721 10.971 8.149-0.71428-0.081-25.801 12.915 0.67585 14.457-0.38242-0.6083-24.247-11.076-14.876 8.838 0.2374-0.6784-4.5701-26.798-15.113-5.7121 0.67846-0.2375 19.351-19.532-6.8815-12.732 0.60862 0.3825 29.286 2.3429 5.6636-13.318 0.08047 0.7142 18.662 22.714 13.977-4.2285-0.50826 0.5082z" stroke-linejoin="round"/>
  <path d="m25 1013.4c-7.1921 11.34-5.2666 27.286-5.2666 39" stroke-width="1px"/>
  <path d="m41.544 1039.5s-3.8306 4.6269-9.8624 6.9667c-6.0317 2.3396-11.396 3.0138-11.981 1.5059-0.58491-1.508 3.8306-4.627 9.8624-6.9667s11.981-1.5059 11.981-1.5059z" stroke-linejoin="round"/>
  <path d="m1.3794 1028.7s2.0325 5.6526 6.9118 9.9009c4.8793 4.2483 9.6958 6.7033 10.758 5.4835 1.0621-1.2198-2.0325-5.6526-6.9118-9.9009-4.8793-4.2483-10.758-5.4835-10.758-5.4835z" stroke-linejoin="round"/>
 </g>
</svg>
