<svg width="56" height="56" xmlns="http://www.w3.org/2000/svg">
    <path d="M2.3 11s.334 3.334 1.486 23.362c.237 4.116-5.152 13.971-.152 17.271s9.698-.04 12.752-.376c5.302-.582 8.947-.158 14.171.914 2.487.51 4.463 1.398 7 1.324 2.235-.066 3.846-2.004 6.076-2.162 2 1 3.949 1.722 6 1.238 1.836-.433 4.915-1.886 4.915-3.771 0-.943-.915-1.467-2.915-1.467-.666 0-3.088.136-3.752.076-3.712-.335-5.84-1.426-9.02-3.371-14.228-8.705-18.31-5.803-18.228-13.705l.2-19.334M10 34c-3.735 6.115 2.771 6.505 2.772 6.505"
          fill="none" stroke="var(--primary-color, #000)" stroke-linecap="round" stroke-linejoin="round"/>
</svg>