<svg width="56" height="56" xmlns="http://www.w3.org/2000/svg">
    <g transform="translate(0 -996.36)" fill="none" stroke="var(--primary-color, #000)">
        <path d="M7.1 1026.4h43v24h-43zM5.1 1019.4h47v7h-47z"/>
        <path d="M26.1 1026.4h5v24h-5zM17.444 1004.5c-2.11.019-3.946.616-4.875 1.313-4 3 1.828 6.754 6.312 9.187 4.52 2.451 6.385 3.021 7.782 3.469a2.5 2.5 0 01-.563-1.563c0-.299.06-.577.156-.843-.68-.333-2.69-1.393-5.687-3.47-4.066-2.816-5.546-3.917-4-5 2-1.399 5.074.323 7 2.626 1.927 2.304 2.632 4.456 2.875 5.437a2.477 2.477 0 011.875-1.218c-.32-1.985-1.05-4.094-2.75-6.22-2.25-2.812-5.413-3.742-8.125-3.718zM39.756 1004.5c-2.712-.024-5.875.906-8.125 3.719-1.7 2.125-2.43 4.234-2.75 6.218.804.092 1.488.55 1.875 1.22.243-.982.948-3.134 2.875-5.438 1.926-2.303 5-4.025 7-2.625 1.546 1.082.066 2.183-4 5-2.997 2.076-5.007 3.135-5.688 3.468.097.267.157.545.157.844a2.5 2.5 0 01-.563 1.563c1.397-.448 3.263-1.018 7.781-3.469 4.485-2.433 10.312-6.188 6.313-9.188-.929-.696-2.765-1.293-4.875-1.312z"/>
        <path d="M9.037 1009.5s-.94 2.122-1.656 3.406c-.64 1.15-1.844 2.594-1.844 2.594 7.973 4.35 14.416 3.63 22.563 3.844a2.496 2.496 0 01-1.25-.657h-.03c-4.5-1.272-12.466-4.214-17.782-9.187zm20.22 9.813a2.388 2.388 0 01-.282.062c.21.01.413-.01.625 0a22.76 22.76 0 01-.343-.062zm.343.062c.459.078.722.105.625.03-.215-.01-.412-.022-.625-.03z"/>
        <path d="M48.162 1009.5c-5.317 4.973-13.281 7.915-17.781 9.188h-.031c-.337.33-.77.558-1.25.656 8.146-.214 14.59.505 22.562-3.844 0 0-1.204-1.444-1.844-2.594-.715-1.284-1.656-3.406-1.656-3.406zm-20.219 9.813c-.106.02-.256.048-.344.062.212-.01.415.01.625 0a2.607 2.607 0 01-.281-.062zm-.344.062l-.625.03c-.097.074.167.046.625-.03z"/>
        <circle cx="28.6" cy="1016.9" r="2.5"/>
        <path d="M26.1 1019.4h5v7h-5z"/>
    </g>
</svg>