<?xml version="1.0" encoding="UTF-8" standalone="no"?>
<svg>
    <path
       style="fill:none;stroke:#000000;stroke-width:1;stroke-linecap:round;stroke-linejoin:miter;stroke-miterlimit:4;stroke-opacity:1"
       d="m 16,17.5 c 0,-1.6569 -1.343146,-3 -3,-3 -1.656854,0 -3,1.3431 -3,3 L 10,38 c 0,10 6.777192,16.780467 14,17 6.730971,0 10,-3 14,-11 l 6,-16 c 0.806848,-1.4472 0.290884,-3.28695 -1.15625,-4.09375 -1.447134,-0.8068 -3.286902,-0.2597 -4.09375,1.1875 L 34,34 M 28,30 28,7.5 c 0,-1.6569 -1.343146,-3 -3,-3 -1.656854,0 -3,1.3431 -3,3 l 0,21.53125"
       transform="translate(0,996.3622)"
       id="path4497"
        />
    <path
       id="path4504"
       d="m 22,1026.9622 0,-19.1 c 0,-1.6569 -1.343146,-3 -3,-3 -1.656854,0 -3,1.3431 -3,3 l 0,19.1"
       style="fill:none;stroke:#000000;stroke-width:1;stroke-linecap:round;stroke-linejoin:miter;stroke-miterlimit:4;stroke-opacity:1"
        />
    <path
       id="path4508"
       d="m 34,1030.3622 0,-22.5 c 0,-1.6569 -1.343146,-3 -3,-3 -1.656854,0 -3,1.3431 -3,3 l 0,19.1"
       style="fill:none;stroke:#000000;stroke-width:1;stroke-linecap:round;stroke-linejoin:miter;stroke-miterlimit:4;stroke-opacity:1"
        />
</svg>
