<?xml version="1.0" encoding="UTF-8" standalone="no"?>
<!-- Created with Inkscape (http://www.inkscape.org/) -->

<svg
   xmlns:dc="http://purl.org/dc/elements/1.1/"
   xmlns:cc="http://creativecommons.org/ns#"
   xmlns:rdf="http://www.w3.org/1999/02/22-rdf-syntax-ns#"
   xmlns:svg="http://www.w3.org/2000/svg"
   xmlns="http://www.w3.org/2000/svg"
   xmlns:sodipodi="http://sodipodi.sourceforge.net/DTD/sodipodi-0.dtd"
   xmlns:inkscape="http://www.inkscape.org/namespaces/inkscape"
   width="56"
   height="56"
   id="svg2"
   version="1.1"
   inkscape:version="0.48.5 r10040"
   sodipodi:docname="Hedgehog.svg">
  <defs
     id="defs4" />
  <sodipodi:namedview
     id="base"
     pagecolor="#ffffff"
     bordercolor="#666666"
     borderopacity="1.0"
     inkscape:pageopacity="0.0"
     inkscape:pageshadow="2"
     inkscape:zoom="10.341437"
     inkscape:cx="18.115117"
     inkscape:cy="24.730613"
     inkscape:document-units="px"
     inkscape:current-layer="layer1"
     showgrid="true"
     inkscape:window-width="1029"
     inkscape:window-height="919"
     inkscape:window-x="26"
     inkscape:window-y="26"
     inkscape:window-maximized="0">
    <inkscape:grid
       type="xygrid"
       id="grid3980"
       empspacing="5"
       visible="true"
       enabled="true"
       snapvisiblegridlinesonly="true" />
  </sodipodi:namedview>
  <metadata
     id="metadata7">
    <rdf:RDF>
      <cc:Work
         rdf:about="">
        <dc:format>image/svg+xml</dc:format>
        <dc:type
           rdf:resource="http://purl.org/dc/dcmitype/StillImage" />
        <dc:title></dc:title>
      </cc:Work>
    </rdf:RDF>
  </metadata>
  <g
     inkscape:label="Layer 1"
     inkscape:groupmode="layer"
     id="layer1"
     transform="translate(0,-996.3622)">
    <path
       style="fill:none;stroke:#000000;stroke-width:1px;stroke-linecap:butt;stroke-linejoin:miter;stroke-opacity:1"
       d="m 43,1023.3622 c 0.999597,-3.9442 -8,-11 -8,-11 0.605157,2.0865 1.161296,4.1659 0,6 -1.679034,-1.8909 -3,-4 -8,-5 0.933171,1.7416 3.059679,3.5075 2,5 -2.60739,-1.8266 -4,-4 -10,-4 1.091856,1.2726 4.617705,3.4832 4,5 -2.529979,-1.9561 -6.208022,-2.2481 -10,-1 2.663057,0.6359 4.888992,1.5777 5,4 -3.061738,-2.7159 -6.427518,-2.3915 -10,0 2.523632,0.4925 5.211996,0.5458 7,3 -3.253068,-0.1114 -6.4962477,-0.4009 -10,4 2.466529,-0.136 5.02614,-0.5821 7,0 -2.0078992,0.1232 -3.4933116,3.1201 -5,6 2.0626573,-1.1566 4.402602,-1.0065 6,-1 -1,0.7861 -3,2.1196 -4,6 0,0 4.396602,-2 7,-2 15,0 20,-11 20,-11 0,0 -2.667308,-1.7531 -2,-3 0.802004,-1.4986 5,1 5,1 0,0 3.633776,-0.555 4,-2 z"
       id="path4520"
       inkscape:connector-curvature="0"
       sodipodi:nodetypes="scccccccccccccccscscs" />
    <path
       style="fill:none;stroke:#000000;stroke-width:1px;stroke-linecap:butt;stroke-linejoin:miter;stroke-opacity:1"
       d="m 42,28 2,4 2,0 c -2,4 -3.517936,7.150262 -8,9 1.082387,3.665655 1.610237,4.870079 5,6 l -7,0 -2,-3.4 c -3.907411,0.648123 -9.238789,1.52848 -13.4,0.4 0.4,2 1.4,2 3,3.4 l -6.6,0 C 15,45 16,46.2 14,42.2"
       id="path4522"
       inkscape:connector-curvature="0"
       transform="translate(0,996.3622)"
       sodipodi:nodetypes="ccccccccccc" />
    <path
       sodipodi:type="arc"
       style="fill:none;stroke:#000000;stroke-width:1;stroke-linecap:round;stroke-linejoin:miter;stroke-miterlimit:4;stroke-opacity:1;stroke-dasharray:none"
       id="path4524"
       sodipodi:cx="40.5"
       sodipodi:cy="31.5"
       sodipodi:rx="0.5"
       sodipodi:ry="0.5"
       d="m 41,31.5 a 0.5,0.5 0 1 1 -1,0 0.5,0.5 0 1 1 1,0 z"
       transform="translate(0,996.3622)" />
  </g>
</svg>
