<?xml version="1.0" encoding="UTF-8" standalone="no"?>

<svg>
  <g
     id="layer1"
     transform="translate(0,-996.3622)">
    <path
       style="fill:none;stroke:#000000;stroke-width:1;stroke-linecap:round;stroke-linejoin:round;stroke-miterlimit:4;stroke-opacity:1"
       d="m 32.18,1020.9222 c 0,4.8601 -0.88,7.04 -6.16,7.04 -2.835518,0 -11.44,0 -14.08,0 -2.0450251,0 -1.76,-2.2404 -1.76,-4.4 0,-4.8601 4.136889,-8.8 9.24,-8.8 2.396236,0 7.06612,0 9.24,0 2.64,0 15.84,0 19.36,0 0.276878,0 3.96,-3.96 3.96,-3.96 l 3.52,0 c 0,0 -5.01313,6.5964 -5.72,7.48 -6.16,0.88 -13.2,1.76 -17.6,2.64 z"
       />
    <path
       style="fill:none;stroke:#000000;stroke-width:1;stroke-linecap:round;stroke-linejoin:miter;stroke-miterlimit:4;stroke-opacity:1"
       d="m 18.026667,1012.7455 8.066666,0 c 0.446894,0 0.806667,0.3598 0.806667,0.8067 l 0,1.21 -9.68,0 0,-1.21 c 0,-0.4469 0.359773,-0.8067 0.806667,-0.8067 z"
       />
    <path
       style="fill:none;stroke:#000000;stroke-width:1;stroke-linecap:round;stroke-linejoin:miter;stroke-miterlimit:4;stroke-opacity:1"
       d="m 22.324001,1016.5222 4.4,0 c 0.97504,0 1.76,0.785 1.76,1.76 l 0,3.52 c 0,0.975 -0.78496,1.76 -1.76,1.76 l -4.4,0 c -0.97504,0 -1.76,-0.785 -1.76,-1.76 l 0,-3.52 c 0,-0.975 0.78496,-1.76 1.76,-1.76 z"
        />
    <path
       style="fill:none;stroke:#000000;stroke-width:1px;stroke-linecap:butt;stroke-linejoin:miter;stroke-opacity:1"
       d="m 18.1,1014.7622 0,7.04 c 0,1.408 -0.88,1.76 -1.76,1.76 l -6.16,0"
        />
    <path
       style="fill:none;stroke:#000000;stroke-width:1px;stroke-linecap:butt;stroke-linejoin:miter;stroke-opacity:1"
       d="m 24.26,1027.9622 0,4.4"
        />
    <path
       style="fill:none;stroke:#000000;stroke-width:1px;stroke-linecap:butt;stroke-linejoin:miter;stroke-opacity:1"
       d="m 12.82,1027.9622 -5.28,4.4"
        />
    <path
       style="fill:none;stroke:#000000;stroke-width:1px;stroke-linecap:butt;stroke-linejoin:miter;stroke-opacity:1"
       d="m 4.9,1028.8422 c 0,0 1.3281734,2.8641 2.64,3.52 4.4,0 28.16,0 28.16,0"
        />
    <path
       style="fill:none;stroke:#000000;stroke-width:1px;stroke-linecap:butt;stroke-linejoin:miter;stroke-opacity:1"
       d="m 22.06,1010.3622 0,2.64"
        />
    <path
       style="fill:none;stroke:#000000;stroke-width:1px;stroke-linecap:butt;stroke-linejoin:miter;stroke-opacity:1"
       d="m 0.5,1010.3622 43.12,0"
        />
  </g>
</svg>
