<svg width="56" height="56" xmlns="http://www.w3.org/2000/svg">
    <g fill="none" stroke="var(--primary-color, #000)" stroke-linecap="round">
        <g stroke-width="1.002">
            <path d="M49.93 30.601c1.786 5.36-9.997 9.825-22.329 9.825S3.485 35.96 5.272 30.601c1.092-3.276 10.093.785 22.426.785 12.332 0 21.141-4.06 22.233-.785z"/>
            <path d="M5.185 30.659c-2.826-1.815-4.246-3.99-3.473-6.31 1.266-3.798 11.702.91 26 .91s24.51-4.708 25.775-.91c.774 2.32-.647 4.496-3.476 6.312"/>
            <path d="M6 22.9c-.033-.436.02-.78.164-1.23 1.048-3.276 9.69.785 21.529.785s20.296-4.061 21.344-.785c.14.44.194.774.166 1.2"/>
        </g>
        <path d="M4.363 27.029s2.099-2.89 3.573-2.68 1.206 3.363 2.68 3.573c1.473.21 2.098-2.89 3.572-2.68s1.206 3.363 2.68 3.573c1.473.21 2.098-2.89 3.572-2.68 1.474.211 1.195 3.468 2.68 3.574 1.68.119 2.68-3.182 4.037-3.216 1.321-.033 2.357 3.335 4.037 3.216 1.485-.106 1.206-3.363 2.68-3.573 1.474-.21 2.099 2.89 3.573 2.68 1.473-.211 1.205-3.363 2.679-3.573 1.474-.21 2.099 2.89 3.573 2.68 1.473-.211 1.206-3.363 2.68-3.573s3.572 2.679 3.572 2.679"/>
        <g stroke-width="1.002">
            <circle cx="11.662" cy="33.119" r=".5"/>
            <circle cx="18.043" cy="35.881" r=".5"/>
            <circle cx="36.805" cy="36.11" r=".5"/>
            <circle cx="45.262" cy="32.662" r=".5"/>
            <circle cx="27.305" cy="35" r="1"/>
        </g>
    </g>
</svg>