<svg width="56" height="56" xmlns="http://www.w3.org/2000/svg">
    <g fill="#fff" stroke="#010101">
        <path d="M9.4 50.789h29.228s-2.169-9.433-4.676-13.657c-2.03-3.42-8.184-9.105-8.184-9.105s6.154-5.685 8.184-9.105c2.507-4.223 4.676-13.657 4.676-13.657H9.4s2.17 9.434 4.677 13.657c2.03 3.42 8.183 9.105 8.183 9.105s-6.153 5.685-8.183 9.105C11.569 41.355 9.4 50.789 9.4 50.789z"
              fill-rule="evenodd" stroke-linecap="square" stroke-width="1.068"/>
        <path d="M7.062.597h33.904v4.669H7.062z" fill-rule="evenodd" stroke-width="1.068"/>
        <path d="M24.014 34.448s-8.184 1.75-10.58 12.84h21.161c-2.397-11.089-10.58-12.84-10.58-12.84z"/>
        <path d="M17.266 17.318c2.072 4.873 5.66 7.44 6.88 7.944 0 0 4.544-3.07 6.85-7.944 0 0-3.993 1.838-6.865 1.838s-6.865-1.838-6.865-1.838z"
              stroke-linecap="square" stroke-width="1.068"/>
        <path d="M7.062 50.597h33.904v4.67H7.062z" fill-rule="evenodd" stroke-width="1.068"/>
    </g>
</svg>