<svg width="56" height="56" xmlns="http://www.w3.org/2000/svg">
    <g fill="#fff" stroke="var(--primary-color, #000)">
        <path d="M9.56 55.176h31.225s-2.317-10.072-4.996-14.582c-2.17-3.651-8.743-9.721-8.743-9.721s6.574-6.07 8.743-9.721c2.678-4.51 4.996-14.582 4.996-14.582H9.56s2.317 10.072 4.996 14.582c2.169 3.651 8.743 9.72 8.743 9.72s-6.574 6.07-8.743 9.722c-2.679 4.51-4.996 14.582-4.996 14.582z"
              fill-rule="evenodd" stroke-linecap="square"/>
        <path d="M7.062 1.586h36.22V6.57H7.063z" fill-rule="evenodd"/>
        <path d="M25.172 37.728s-8.743 1.87-11.303 13.709h22.607c-2.56-11.84-11.303-13.709-11.303-13.709z"/>
        <path d="M17.963 19.439c2.213 5.203 7.394 8.482 7.35 8.482 0 0 4.855-3.279 7.318-8.482 0 0-4.266 1.963-7.334 1.963-3.068 0-7.334-1.963-7.334-1.963z"
              stroke-linecap="square"/>
    </g>
</svg>