<?xml version="1.0" encoding="UTF-8" standalone="no"?>
<!-- Created with Inkscape (http://www.inkscape.org/) -->

<svg>
  <g
     transform="translate(0,-996.3622)">
    <path
       style="fill:none;stroke:#000000;stroke-width:1px;stroke-linecap:round;stroke-linejoin:round;stroke-opacity:1"
       d="m 28.726961,1042.0937 c 3.280387,4.0316 6.4445,8.7072 9.088201,9.2737 l 15.765248,0 c 0.927367,0 1.854735,-0.5566 1.854735,-2.0346 0,-1.2805 -1.037992,-1.7676 -2.318419,-1.7676 -4.497222,0.1882 -9.439749,-0.01 -13.446829,0 -4.636837,0 -1.854735,-30.5104 -19.474717,-29.583 -3.178212,0.1673 -2.274375,-8.0685 -4.636838,-10.2011 -1.09221,-0.9859 -2.477511,-1.4052 -3.912331,-1.391 -0.860892,0.01 -1.7449923,0.1749 -2.5792413,0.4637 -3.660165,1.2671 -7.7445209,6.9997 -5.564205,10.201 2.782102,0.9274 7.4189403,-0.9274 7.4189403,-0.9274 -0.445146,4.8042 -0.04463,7.7584 0.874898,10.1908 m 1.407121,3.0134 c 2.148542,2.9011 5.344474,3.8826 8.104497,5.3432"
        />
    <path
       style="fill:none;stroke:#000000;stroke-width:1px;stroke-linecap:round;stroke-linejoin:round;stroke-opacity:1"
       d="m 9.0667697,1006.8538 c 0,0 -2.782103,-6.4638 0.927367,-8.3186 3.0058633,1.827 1.8547353,7.3912 1.8547353,7.3912 0,0 2.151128,-6.5642 7.091128,-6.4642 -0.94,5.9 -5.60734,7.2061 -5.60734,7.2061"
        />
    <path
       style="fill:none;stroke:#000000;stroke-width:1px;stroke-linecap:round;stroke-linejoin:round;stroke-opacity:1"
       d="m 25.759385,1025.4011 c -10.546586,0.9307 -1.934644,14.2151 -0.753486,21.3295 -5.738087,0 -6.665454,0 -15.9970903,0.087 -1.024621,0.24 -1.796774,1.1337 -1.796774,2.2315 0,1.1104 0.783571,2.0915 1.825986,2.3184 6.7032403,0.1498 13.6555663,0 20.4308343,0 0.927367,-3.7095 -2.112699,-10.4921 0,-13.9105 0.726791,-1.176 3.70947,-1.8547 3.70947,-1.8547"
	 />
    <path
       d="m 17.462638,1032.6613 c 1.075832,4.1507 3.277863,8.8661 3.833791,12.2145 -5.738087,0 -6.665454,0 -15.9970903,0.087 -1.024621,0.2399 -1.796774,1.1336 -1.796774,2.2314 0,1.1105 0.783571,2.0915 1.825986,2.3185 0.671671,0.015 1.345842,0.027 2.022086,0.036"
       style="fill:none;stroke:#000000;stroke-width:1px;stroke-linecap:round;stroke-linejoin:round;stroke-opacity:1" />
    <path
       style="fill:none;stroke:#000000;stroke-width:1.07832122000000010;stroke-linecap:round;stroke-linejoin:round;stroke-miterlimit:4;stroke-opacity:1;stroke-dasharray:none"
       d="m 6,21.5 a 1.5,0.5 0 1 1 -3,0 1.5,0.5 0 1 1 3,0 z"
       transform="matrix(0.86766291,-0.32737066,0.32737066,0.86766291,-3.2672341,994.30902)" />
    <path
       style="fill:none;stroke:#000000;stroke-width:1px;stroke-linecap:round;stroke-linejoin:round;stroke-opacity:1"
       d="m 18.340445,1020.7643 c 0,0 -0.772124,3.9362 -1.854735,5.5642 -1.819625,2.7362 -5.705662,3.6875 -7.4189403,6.4916 -0.664528,1.0876 0.346238,3.6605 -0.927368,3.7094 -1.953622,0.075 -2.376606,-3.6801 -1.854735,-5.5642 0.760752,-2.7465 4.9932563,-3.1398 6.4915733,-5.5642 0.670067,-1.0842 0.927367,-3.7094 0.927367,-3.7094"
        />
    <path
       style="fill:none;stroke:#000000;stroke-width:1px;stroke-linecap:round;stroke-linejoin:round;stroke-opacity:1"
       d="m 10.643294,1022.619 c 0,0 -2.2651203,2.3675 -3.4312593,2.9676 -1.671919,0.8604 -3.072318,0.9972 -4.636838,2.0402 -2.78210232,1.8547 -2.42352712,5.388 -0.9273673,4.2659 3.7094703,-2.7821 5.8424153,-2.7821 5.8424153,-2.7821"
       id="path4583"
       
        />
  </g>
</svg>
