<?xml version="1.0" encoding="UTF-8" standalone="no"?>

<svg>
  <g
     id="layer1"
     transform="translate(0,-996.3622)">
    <path
       style="fill:none;stroke:#000000;stroke-width:1;stroke-linecap:round;stroke-linejoin:round;stroke-miterlimit:4;stroke-opacity:1"
       d="m 29.295366,1000.3622 c -6.828806,0 -12.364649,5.5359 -12.364649,12.3647 0,5.0789 3.039918,9.4571 7.41879,11.36 l 0,21.9087 5.139057,4.5594 4.752661,-4.5594 0,-5.1004 -2.472929,-2.2025 2.472929,-3.0525 -2.472929,-3.1298 2.472929,-2.1253 0,-2.8206 0,-3.4776 c 4.378872,-1.9029 7.41879,-6.2811 7.41879,-11.36 0,-6.8288 -5.535842,-12.3647 -12.364649,-12.3647 z m 0,5.3324 c 1.365762,0 2.47293,1.1071 2.47293,2.4728 0,1.3658 -1.107168,2.473 -2.47293,2.473 -1.365761,0 -2.472929,-1.1072 -2.472929,-2.473 0,-1.3657 1.107168,-2.4728 2.472929,-2.4728 z"
       id="path4585"
        />
    <path
       style="fill:none;stroke:#000000;stroke-width:1px;stroke-linecap:butt;stroke-linejoin:miter;stroke-opacity:1"
       d="m 26.822437,1026.328 0,21.5145"
       id="path4593"
        />
  </g>
</svg>
