<?xml version="1.0" encoding="UTF-8" standalone="no"?>
<!-- Created with Inkscape (http://www.inkscape.org/) -->

<svg>
  <g
     id="layer1"
     transform="translate(0,-996.3622)">
    <path
       style="fill:none;stroke:var(--primary-color, #000);stroke-width:1;stroke-linecap:round;stroke-linejoin:round;stroke-miterlimit:4;stroke-opacity:1"
       d="m 40.5,1025.8622 -22,0 4,23 14,0 z"
    />
    <path
       style="fill:none;stroke:var(--primary-color, #000);stroke-width:1;stroke-linecap:round;stroke-linejoin:round;stroke-miterlimit:4;stroke-opacity:1"
       d="m 30.5,1013.6622 -2,0 -12,12 26,0 z"
       />
    <path
       style="fill:none;stroke:var(--primary-color, #000);stroke-width:1;stroke-linecap:round;stroke-linejoin:round;stroke-miterlimit:4;stroke-opacity:1"
       d="m 27,1010.9622 c 0,1.3807 1.119288,2.5 2.5,2.5 1.380712,0 2.5,-1.1193 2.5,-2.5 0,-1.3807 -1.119288,-2.5 -2.5,-2.5 -1.380712,0 -2.5,1.1193 -2.5,2.5 z"
       />
    <path
       style="fill:none;stroke:var(--primary-color, #000);stroke-width:1;stroke-linecap:round;stroke-linejoin:round;stroke-miterlimit:4;stroke-opacity:1"
       d="m 37,1048.8622 -15,0 c -1.662,0 -3,1.338 -3,3 8,0 12,0 21,0 0,-1.662 -1.338,-3 -3,-3 z"
       />
    <path
       style="fill:none;stroke:var(--primary-color, #000);stroke-width:0.99999994;stroke-linecap:round;stroke-linejoin:round;stroke-miterlimit:4;stroke-opacity:1"
       d="M 37.353011,1020.588 C 40.187477,1018.2964 42,1014.791 42,1010.8622 c 0,-6.9036 -5.596441,-12.5 -12.5,-12.5 -6.90356,0 -12.5,5.5964 -12.5,12.5 0,3.8957 1.782141,7.3752 4.575637,9.6677"
       />
    <g
       transform="translate(-0.1,0)">
      <path
         d="m 32,1048.3622 2,-22"
         style="fill:none;stroke:var(--primary-color, #000);stroke-width:1px;stroke-linecap:butt;stroke-linejoin:miter;stroke-opacity:1" />
      <path
         style="fill:none;stroke:var(--primary-color, #000);stroke-width:1px;stroke-linecap:butt;stroke-linejoin:miter;stroke-opacity:1"
         d="m 27.2,1048.3622 -2,-22"
         />
    </g>
  </g>
</svg>
