<svg width="56" height="56" xmlns="http://www.w3.org/2000/svg">
    <path d="M18.3 3s1.841 14.191.664 17.723C16.062 29.429 19 33 19.405 47.475c.14 1.446-1.758 4.924-.052 6.087 1.706 1.163 3.309-.014 4.35-.132 1.81-.205 3.053-.056 4.836.322.848.18 1.522.493 2.388.467.762-.024 1.312-.706 2.073-.762.682.352 1.347.607 2.047.436.626-.153 1.676-.665 1.676-1.33 0-.332-.312-.516-.994-.516-.227 0-1.054.048-1.28.027-1.266-.118-1.993-.503-3.077-1.189-4.855-3.068-6.247-2.045-6.22-4.83C24.713 34.823 26.207 24.62 26.5 23c.285-2.605 1.5-3 1.5-6l1-14M21.525 47.347c-1.274 2.155.945 2.293.946 2.293"
          fill="none" stroke="var(--primary-color, #000)" stroke-linecap="round" stroke-linejoin="round"/>
</svg>