<svg width="56" height="56" xmlns="http://www.w3.org/2000/svg">
    <g fill="none" stroke="var(--primary-color, #000)" stroke-linecap="round" stroke-linejoin="round">
        <path d="M9.17 2h37.98v51H9.17z"/>
        <path d="M11.341 5.255c0 .599-.972 1.085-2.17 1.085C7.972 6.34 7 5.854 7 5.255c0-.6.971-1.086 2.17-1.086M11.341 9.595c0 .6-.972 1.085-2.17 1.085-1.199 0-2.17-.486-2.17-1.085 0-.6.971-1.085 2.17-1.085M11.341 13.935c0 .6-.972 1.085-2.17 1.085-1.199 0-2.17-.486-2.17-1.085s.971-1.085 2.17-1.085M11.341 18.276c0 .6-.972 1.085-2.17 1.085-1.199 0-2.17-.486-2.17-1.085s.971-1.085 2.17-1.085M11.341 22.616c0 .6-.972 1.085-2.17 1.085-1.199 0-2.17-.486-2.17-1.085s.971-1.085 2.17-1.085M11.341 26.957c0 .6-.972 1.085-2.17 1.085-1.199 0-2.17-.486-2.17-1.085s.971-1.085 2.17-1.085M11.341 31.297c0 .6-.972 1.085-2.17 1.085-1.199 0-2.17-.486-2.17-1.085s.971-1.085 2.17-1.085M11.341 35.637c0 .6-.972 1.085-2.17 1.085-1.199 0-2.17-.486-2.17-1.085s.971-1.085 2.17-1.085M11.341 39.978c0 .6-.972 1.085-2.17 1.085-1.199 0-2.17-.486-2.17-1.085s.971-1.085 2.17-1.085M11.341 44.318c0 .6-.972 1.085-2.17 1.085-1.199 0-2.17-.486-2.17-1.085s.971-1.085 2.17-1.085M11.341 48.659c0 .6-.972 1.085-2.17 1.085-1.199 0-2.17-.486-2.17-1.085s.971-1.085 2.17-1.085M17 11h23v13H17z"/>
    </g>
</svg>