<svg width="56" height="56" xmlns="http://www.w3.org/2000/svg">
    <g fill="none" stroke="var(--primary-color, #000)" stroke-linecap="round">
        <path d="M1 23h53M1.902 26.4c4.335 3.862 8.144 3.862 12.285 0 4.746 3.862 8.555 3.862 12.866 0 4.577 3.862 8.386 3.862 12.575 0 4.698 3.862 8.507 3.862 13.253 0M2.232 33.152a16.321 16.321 0 002.21-1.602c4.334 3.862 8.143 3.862 12.284 0 4.746 3.862 8.555 3.862 12.866 0 4.577 3.862 8.386 3.862 12.575 0 3.883 3.192 7.158 3.746 10.857 1.662M2.351 39.35c1.498-.399 3.017-1.282 4.63-2.65 4.334 3.862 8.143 3.862 12.284 0 4.746 3.862 8.555 3.862 12.866 0 4.577 3.862 8.386 3.862 12.576 0 3.129 2.573 5.864 3.432 8.745 2.576M2.458 44.722c2.31.196 4.575-.762 7.062-2.872 4.335 3.862 8.144 3.862 12.285 0 4.746 3.862 8.555 3.862 12.866 0 4.577 3.862 8.385 3.862 12.575 0 2.213 1.82 4.23 2.782 6.239 2.887M2.759 49.331c3.121 1.231 6.017.455 9.3-2.33 4.335 3.862 8.144 3.862 12.285 0 4.746 3.862 8.555 3.862 12.866 0 4.577 3.862 8.386 3.862 12.575 0 1.24 1.019 2.417 1.769 3.567 2.25M3.109 53.317c4.003 2.646 7.454 2.256 11.49-1.167 4.335 3.862 8.144 3.862 12.285 0 4.746 3.862 8.555 3.862 12.866 0 4.576 3.862 8.385 3.862 12.575 0 .572.47 1.131.884 1.68 1.24"/>
        <path d="M17.501 22.499a9.5 9.5 0 019.5-9.5 9.5 9.5 0 019.5 9.5" stroke-linejoin="round" stroke-width="1.002"/>
        <path d="M27 2v10m-8.3-8.1l3.827 9.239M12.329 8.33L19.4 15.4m-11.439-.227L17.201 19M35.359 3.9l-3.827 9.239M41.73 8.33l-7.071 7.07m11.438-.227L36.858 19"/>
    </g>
</svg>