<svg width="56" height="56" xmlns="http://www.w3.org/2000/svg">
    <g fill="none" stroke="var(--primary-color, #000)" stroke-linecap="round">
        <g stroke-linejoin="round">
            <path d="M15.012 26c.919 7.256-7.244 18.139-13.513 8.923 2.642 9.216 12.595 10.123 16.589.044.545 5.544 4.168 15.52-8.426 16.978.808 3.077 14.408 1.984 18.048-14.341 3.64 16.325 17.239 17.418 18.048 14.34-12.599-1.456-9.045-11.32-8.426-16.977 3.983 10.079 13.947 9.172 16.589-.044-6.27 9.216-14.409-1.667-13.513-8.923C44.036 7.861 34.723 3.326 27.711 3.326S11.386 7.861 15.014 26z"/>
            <ellipse cx="24.177" cy="13.689" rx="1.5" ry="3.5"/>
            <ellipse transform="rotate(90)" cx="13.689" cy="-24.677" rx="1" ry=".5"/>
            <ellipse cx="30.177" cy="13.689" rx="1.5" ry="3.5"/>
            <ellipse transform="rotate(90)" cx="13.689" cy="-30.677" rx="1" ry=".5"/>
        </g>
        <path d="M21 19c3.662 5.32 10 5 13 0" stroke-width="1.002"/>
    </g>
</svg>