<svg width="56" height="56" xmlns="http://www.w3.org/2000/svg">
    <g fill="none" stroke="var(--primary-color, #000)">
        <path d="M9 37.807c0 8.192 8.73 14.833 19.5 14.833S48 45.999 48 37.807c0-4.096-2.183-7.804-5.711-10.489-7.16-6.76-13.29-11.267-10.29-23.133-5 3.956-3.708 10.559-4.352 10.702-.217.09-.647-5.758-3.647-9.713 2 14.833-5 17.8-9.289 22.143C11.601 30.468 9 33.71 9 37.808z"
              stroke-linecap="round" stroke-linejoin="round"/>
        <path d="M32 15.063c3.681 10.072 18.267 26.588 0 37.083M23.794 15.063c-3 9.889-15 25.711 0 37.083M30 15.063c4.059 18.657 3.941 30.426 0 35.698M27.011 15.063c-4.059 18.657-3.941 30.426 0 35.698M32 14.865c-3 .989-5 .989-8.206 0M32 14.865c-3 .989-5 .989-8.206 0"/>
        <g stroke-linecap="round">
            <path d="M33 51.651c-3-.989-6.794-.989-10 0"/>
            <path d="M29 8.14C27.744 6.11 27.821 3.68 28 1.22c-1.288 2.28-2.88 5.237-2 7.614" stroke-linejoin="round"/>
            <path d="M28 52.64v1.86M24 52.146l-1 1.978M32 52.146l.533 1.978"/>
        </g>
    </g>
</svg>