<svg width="56" height="56" xmlns="http://www.w3.org/2000/svg">
    <g fill="none" stroke="var(--primary-color, #000)">
        <path d="M8.63 1.262h38.625c1.528 0 2.759 1.317 2.759 2.954v47.263c0 1.636-1.231 2.954-2.76 2.954H8.632c-1.529 0-2.76-1.318-2.76-2.954V4.216c0-1.637 1.231-2.954 2.76-2.954z"/>
        <path d="M10.399 40.858V21.06h35.088v19.798zM21.483 7.258c0-1.25.964-2.263 2.153-2.263 1.19 0 2.154 1.013 2.154 2.263s-.964 2.262-2.154 2.262c-1.189 0-2.153-1.013-2.153-2.262zM30.096 7.258c0-1.25.964-2.263 2.153-2.263s2.154 1.013 2.154 2.263-.964 2.262-2.154 2.262-2.153-1.013-2.153-2.262zM12.87 7.258c0-1.25.964-2.263 2.153-2.263s2.154 1.013 2.154 2.263-.964 2.262-2.154 2.262-2.153-1.013-2.153-2.262zM38.709 7.258c0-1.25.964-2.263 2.153-2.263s2.154 1.013 2.154 2.263-.964 2.262-2.154 2.262-2.153-1.013-2.153-2.262zM5.872 12.575h44.142M5.871 44.252h44.143M9.833 15.969h36.22a1.13 1.13 0 011.132 1.131 1.13 1.13 0 01-1.132 1.132H9.833A1.13 1.13 0 018.7 17.1a1.13 1.13 0 011.132-1.131z"/>
    </g>
</svg>