<svg width="56" height="56" xmlns="http://www.w3.org/2000/svg">
    <g fill="none" stroke="var(--primary-color, #000)">
        <path d="M39.865 42.504c-.297-3.317-5.939-8.446-6.662-13.897-1.122-8.464-4.216-11.436-8.921-11.503-5.178-.074-7.77 3.04-8.998 11.673-.767 5.386-6.292 10.447-6.585 13.728-.945 10.552 10.409 13.926 15.583 11.47 5.204 2.456 16.527-.918 15.583-11.47z"
              stroke-linecap="round" stroke-linejoin="round"/>
        <path d="M29.393 11.676C33.819 12.886 42.573 12.886 47 2c-12.973-.807-15.753 2.419-17.607 9.676M17.81 4.42c7.945 3.081 6.487 7.256 6.487 12.095M24.297 16.515c1.449-1.613 1.942-3.225 5.19-4.838"/>
    </g>
</svg>