<svg width="56" height="56" xmlns="http://www.w3.org/2000/svg">
    <g fill="none" stroke="var(--primary-color, #000)">
        <path d="M50.54 30.994c0 12.998-10.537 23.534-23.534 23.534-12.998 0-23.534-10.537-23.534-23.534 0-12.998 10.537-23.534 23.534-23.534m2.353-5.648A23.456 23.456 0 0146 8.704m-2.352 5.648a23.46 23.46 0 016.893 16.641"
              stroke-linecap="square" stroke-width="1.002"/>
        <path d="M47.802 30.994c0 11.485-9.31 20.796-20.796 20.796-11.485 0-20.796-9.31-20.796-20.796 0-11.485 9.31-20.796 20.796-20.796m2.73-6.035a20.732 20.732 0 0114.705 6.091m-2.73 6.035a20.73 20.73 0 016.09 14.705"
              stroke-linecap="square" stroke-width="1.002"/>
        <path d="M27.006 6.988V55M51.012 30.994H3M43.981 47.969l-33.95-33.95M10.031 47.969l33.95-33.95M29.359 1.811l.122 23.064L46 8.705"/>
        <g stroke-linecap="square" stroke-width="1.002">
            <circle cx="11.5" cy="24.5" r="1.5"/>
            <circle cx="11.5" cy="36.9" r="1.5"/>
            <circle cx="41.5" cy="24.5" r="1.5"/>
            <circle cx="41.5" cy="36.9" r="1.5"/>
            <circle transform="rotate(90.497)" cx="44.864" cy="-21.19" r="1.5"/>
            <circle transform="rotate(90.497)" cx="44.864" cy="-33.59" r="1.5"/>
            <circle cx="21.5" cy="16.5" r="1.5"/>
            <circle cx="35.5" cy="10.5" r="1.5"/>
            <circle cx="18.033" cy="27.49" r=".5"/>
            <circle cx="18.338" cy="34.043" r=".5"/>
            <circle cx="23.348" cy="39.338" r=".5"/>
            <circle cx="30.262" cy="39.338" r=".5"/>
            <circle cx="35.5" cy="34.5" r=".5"/>
            <circle cx="35.5" cy="26.5" r=".5"/>
            <circle cx="33.5" cy="16.5" r=".5"/>
            <circle cx="23.195" cy="22.119" r=".5"/>
        </g>
    </g>
</svg>