<svg width="56" height="56" xmlns="http://www.w3.org/2000/svg">
    <path d="M21.896 1.38l-1.898 11.171 2.869 5.74a4.035 4.035 0 005.801 4.436C32.285 27.573 36.754 34.893 44.573 55l3.351-2.234c-3.15-11.141-7.819-21.224-12.379-28.245 1.277-1.533 1.277-1.445 1.312-2.812l-2.35 1.601c-2.038-2.339-3.504-3.899-3.657-4.16a4.035 4.035 0 00-5.408-3.795c-.536-2.108-.993-3.059-1.18-5.893-1.52-1.379-.913-3.614-.638-4.256 0 0-.412-2.639-.61-3.825zm4.852 16.534a1.117 1.117 0 01.064 0 1.117 1.117 0 011.117 1.117 1.117 1.117 0 01-1.117 1.117 1.117 1.117 0 01-1.118-1.117 1.117 1.117 0 011.054-1.117z"
          fill="none" stroke="var(--primary-color, #000)" stroke-linecap="round" stroke-linejoin="round"/>
    <path d="M28.183 15.355c.536-2.108.993-3.06 1.18-5.893 1.52-1.379.912-3.614.637-4.257 0 0 .413-2.638.611-3.824h1.117l1.899 11.17-2.87 5.74c.062.283.092.57.092.858m-2.133 3.556a4.04 4.04 0 01-3.76.022C21.34 27.573 16.87 34.893 9.051 55L5.7 52.766c3.15-11.14 7.82-21.224 12.379-28.245-1.277-1.533-1.276-1.444-1.311-2.811l2.35 1.6c2.038-2.339 3.503-3.898 3.656-4.16"
          fill="none" stroke="var(--primary-color, #000)" stroke-linecap="round" stroke-linejoin="round"/>
</svg>