<svg width="56" height="56" xmlns="http://www.w3.org/2000/svg">
    <g fill="none" stroke="var(--primary-color, #000)">
        <path d="M54 35c.088 6.627-11.641 12-26 12-8.53 0-12.006-4.446-20.842-4.824C2.993 41.996 1.535 37.486 2 35c1.218-6.514 11.657-12.692 26-12 4.65.224 6.774 2.912 10.79 3.219C49 27 53.942 30.676 54 35z"
              stroke-linecap="round" stroke-linejoin="round"/>
        <path d="M7.235 37c3.011-2.258 4.58-2.08 7.765 0l3.235-1.488v3.43L15 37c-3.114 1.798-4.715 2.065-7.765 0zM35 40c4-4 10.594 2 14-1M35 36c4-4 10.594 2 14-1M35 32c4-4 10.594 2 14-1M19.235 31c3.011-2.258 4.58-2.08 7.765 0l3.235-1.488v3.43L27 31c-3.115 1.798-4.715 2.065-7.765 0z"/>
    </g>
</svg>