<svg width="56" height="56" xmlns="http://www.w3.org/2000/svg">
    <g fill="none" stroke="var(--primary-color, #000)">
        <path d="M30 2s-9.49 2.502-7 3c5 1 17.48 2.787 14.286 4.946-3.846 2.6-17.261 2.192-14.562 5.97C27.724 22.916 44 22 45 27c.837 4.186-4.357 4.535-8 10-4 6 18 14 18 14"/>
        <path d="M3 52s2-10 8-15 9.105-3.587 12-8c2.895-4.413-8.695-11.076-7.848-14.038s2.953-3.762 12.414-5.654c3.637-.727-17.687-4.493-8.828-5.732L30 2"/>
        <path d="M13.41 37.409s1.165 2 2.204 2c1.04 0 1.165-2 2.204-2s1.165 2 2.205 2 1.165-2 2.204-2 1.165 2 2.204 2c1.04 0 1.165-2 2.204-2 1.04 0 1.165 2 2.204 2s1.166-2 2.205-2 1.166 2.054 2.204 2c.937-.048 1.753-2 1.753-2M9.41 41.409s1.165 2 2.204 2c1.039 0 1.165-2 2.204-2s1.165 2 2.204 2 1.165-2 2.204-2 1.165 2 2.205 2c1.039 0 1.165-2 2.204-2 1.039 0 1.165 2 2.204 2s1.165-2 2.204-2 1.167 2.054 2.204 2c.938-.048 1.753-2 1.753-2M13.41 45.409s1.165 2 2.204 2c1.04 0 1.165-2 2.204-2s1.165 2 2.205 2 1.165-2 2.204-2 1.165 2 2.204 2c1.04 0 1.165-2 2.204-2 1.04 0 1.165 2 2.204 2s1.166-2 2.205-2 1.166 2.054 2.204 2c.937-.048 1.753-2 1.753-2"/>
    </g>
</svg>