<svg width="56" height="56" xmlns="http://www.w3.org/2000/svg">
    <g fill="none" stroke="var(--primary-color, #000)">
        <path d="M14 6h3s4.23-3.084 6.587-3.084C25.944 2.916 27 3.643 27 6c0 13 1 32 1 35 0 2.56 3.595 3.079 3.49.063C31 27 35 25 37.523 23L45 31c-5.276.174-2.162 22.685-15.42 21.415-5.233-.501-7.103-4.997-7.012-11.5.162-11.633.546-30.905.675-32.924.17-2.68-2.34-2.332-4.243-.992-1.693.156-5-1-5-1z"/>
        <g stroke-linecap="square">
            <path d="M37.005 21a.998.998 0 011.414.034l8.61 9.028a.998.998 0 01-.034 1.414.998.998 0 01-1.413-.033l-8.61-9.03A.998.998 0 0137.004 21z"/>
            <circle cx="25.1" cy="18.5" r=".5"/>
            <circle cx="25.1" cy="22.5" r=".5"/>
            <circle cx="25.1" cy="26.5" r=".5"/>
            <circle cx="25.1" cy="30.5" r=".5"/>
        </g>
    </g>
</svg>