<svg width="56" height="56" xmlns="http://www.w3.org/2000/svg">
    <g fill="none" stroke="var(--primary-color, #000)">
        <path d="M22.344 36.459c-.197 3.695 2.388 6.162 5.334 6.162.246 0 .49-.017.734-.051a6.282 6.282 0 009.432.546 5.334 5.334 0 009.28-4.545 6.282 6.282 0 00-6.235-10.57 6.283 6.283 0 00-5.15-2.686h-.002 0a6.282 6.282 0 00-4.602 2.007 5.334 5.334 0 00-1.086-.111c-1.81 0-4.29 1.016-4.787 2.694"
              stroke-linecap="round" stroke-linejoin="round"/>
        <path d="M49.34 32.364c7.24 1.034 5.378 10.343-1.862 6.206"/>
        <path d="M16.863 23.507a4.654 4.654 0 01-3.103-1.797 3.59 3.59 0 01-2.348.547 3.59 3.59 0 01-3.157-3.977 3.59 3.59 0 013.976-3.157 3.59 3.59 0 011.741.692 4.654 4.654 0 014.023-1.547 4.654 4.654 0 013.658 2.6 3.59 3.59 0 012.136-.418 3.59 3.59 0 013.158 3.977 3.59 3.59 0 01-3.977 3.157 3.59 3.59 0 01-2.351-1.274 4.654 4.654 0 01-3.686 1.205 4.654 4.654 0 01-.07-.008z"
              stroke-linecap="round" stroke-linejoin="round"/>
        <path d="M11.645 22.404s-6.927 13.549 3.49 15.125c13.725 2.075 9.308-14.31 9.308-14.31M26.792 20.986c3.103 0 3.94 1.635 5.171 4.137-2.333.06-4.601.45-7.24-1.034M8.175 18.918c-2.806-.908-4.47.66-6.206 2.069 3.144 3.075 6.415 2.101 9.676 1.417M26.792 42.707l2.069 8.274h5.171v-5.688"/>
        <path d="M23.689 40.845l2.069 9.102h3.103M46.444 42.5l-2.069 8.481h-4.137v-6.206"/>
        <path d="M38.17 43.741v6.206h2.069"/>
        <g stroke-linecap="round">
            <circle cx="12.829" cy="26.675" r=".517" stroke-linejoin="round"/>
            <circle cx="19.035" cy="26.675" r=".517" stroke-linejoin="round"/>
            <path d="M14.38 34.432h3.103"/>
        </g>
    </g>
</svg>