<svg width="56" height="56" xmlns="http://www.w3.org/2000/svg">
    <g fill="none" stroke="var(--primary-color, #000)">
        <path d="M53.709 9s-.286 6.27-1.27 23.393c-.203 3.52 3.195 10.548-1.08 13.37-4.275 2.821-7.552 1.06-9.954 2.125-9.858 4.37-23.17 10.601-25.734 2.907-3.42-9.405 19.12-11.125 20.3-21.276V9zM52.898 36.359c-10.259 0-9.233 10.857-9.233 10.858"
              stroke-linecap="round" stroke-linejoin="round"/>
        <path d="M35.97 17.55h17.099M22.303 41.146c2.627 2.342 4.226 8.94 3.371 12.36"/>
        <path d="M16.14 46.009C9.6 48.23 3.791 48.866 2.186 44.053c-3.42-9.405 19.119-11.125 20.299-21.276V2.257h17.739s-.09 1.961-.34 6.684"
              stroke-linecap="round" stroke-linejoin="round"/>
        <path d="M22.486 10.808h13.301M8.82 34.404c2.626 2.342 4.225 8.94 3.37 12.36"/>
    </g>
</svg>