<svg width="56" height="56" xmlns="http://www.w3.org/2000/svg">
    <g fill="none" stroke="var(--primary-color, #000)">
        <g stroke-linecap="round" stroke-linejoin="round">
            <path d="M39.667 17.922c0 2.216-5.223 4.012-11.666 4.012-6.443 0-11.666-1.796-11.666-4.012"/>
            <path d="M16.336 18.424v32.098c0 2.216 5.223 4.012 11.666 4.012 6.443 0 11.666-1.796 11.666-4.012V18.424M38.097 13.248c0 1.729-4.52 3.13-10.095 3.13-5.576 0-10.095-1.401-10.095-3.13 0-1.497 3.391-2.75 7.922-3.057m4.706.026c4.35.349 7.563 1.573 7.563 3.031"/>
            <ellipse cx="27.949" cy="13.917" rx="2.425" ry=".978"/>
        </g>
        <path d="M16.3 17.922l1.867-3.572M37.837 14.35l1.867 3.572"/>
        <g stroke-linecap="round">
            <g stroke-linejoin="round">
                <path d="M31.735 4.619c0 2.814-1.493 3.752-1.764 7.253-.094 1.214-1.246 1.043-1.969 1.043-.706 0-1.828.2-1.93-.977-.31-3.567-1.803-4.505-1.803-7.32 0-2.59 1.671-3.47 3.733-3.47 2.062 0 3.733.88 3.733 3.47z"/>
                <ellipse cx="28.002" cy="8.812" rx="1.12" ry="1.144"/>
                <rect x="26.135" y="2.713" width="3.733" height="2.287" rx="2" ry="2"/>
            </g>
            <path d="M19 22v28"/>
        </g>
    </g>
</svg>