<svg width="56" height="56" xmlns="http://www.w3.org/2000/svg">
    <g fill="none" stroke="var(--primary-color, #000)">
        <path d="M38.598 28.483c0 5.79-4.694 10.484-10.484 10.484S17.63 34.273 17.63 28.483s4.694-10.484 10.484-10.484 10.484 4.694 10.484 10.484zM28.114 2.436v14.446M28.114 39.956v14.446M54.098 28.419H39.652M16.577 28.419H2.131M50.617 15.427L38.106 22.65M18.123 34.188L5.612 41.411M41.106 5.917l-7.223 12.51M22.346 38.411l-7.223 12.511M15.123 5.917l7.223 12.51M33.883 38.411l7.223 12.511M5.612 15.427l12.511 7.223M38.106 34.188l12.511 7.223"/>
    </g>
</svg>