<svg width="56" height="56" xmlns="http://www.w3.org/2000/svg">
    <g fill="none" stroke="var(--primary-color, #000)" stroke-linecap="round">
        <path d="M22 31.2c.248-6.007-2-13.2 1-18.2 11.262-2.493 6.578 14.864 9 23l5-3c-1.822-3.108-2.92-5.741-3-15 0-5-2.807-7.229-7-7-3.309.18-5.146 2.434-5.138 6.3.01 5.078 1.83 8.447 5.138 7.7 1.268-.286 2.018-1.18 3-2"/>
        <path d="M25 24.9V30c-3 1-4 2-6 4 2 2 5 4 13 2M26 48c1.005-4.648 1.758-9.262 11-15 4.818 4.769 6.556 8.171 7 11M19 34c-.797.754-2.413 5.243-3 8l-4 6M18 41c.343 3.339 1.512 5.413 3 7M22.286 17.51c.573-.448.81-.448 1.214-.448M25 21v-4c2-.505 2 1 3.533.39M24.457 22.33c.761.274 1.252.126 1.543-.33"/>
        <path stroke-linejoin="round" stroke-width="1" d="M8 5.737h38v43H8z"/>
        <path stroke-linejoin="round" stroke-width="1" d="M6 3.474h42V51H6z"/>
    </g>
</svg>