<svg width="56" height="56" xmlns="http://www.w3.org/2000/svg">
    <g fill="none" stroke="var(--primary-color, #000)" stroke-linecap="round" stroke-linejoin="round">
        <path d="M5.363 19.733h40.175a2.358 2.358 0 012.364 2.363V46.91a2.358 2.358 0 01-2.364 2.364H5.363A2.358 2.358 0 013 46.91V22.096a2.358 2.358 0 012.363-2.363z"/>
        <circle cx="41.403" cy="42.184" r="1.772"/>
        <path d="M8.908 49.273h4.727v4.726H8.908zM37.267 49.273h4.726v4.726h-4.726zM47.902 23.278h4.726v2.954h-4.726z"/>
        <g>
            <path d="M22.604 6.735c3.974.09 13.482 1.772 10.306 5.998v7H11.641v-7.27c-2.733-5.137 6.84-5.822 10.963-5.728z"/>
            <circle cx="25.23" cy="15.597" r=".591"/>
            <circle cx="14.595" cy="10.871" r=".591"/>
            <circle cx="27.762" cy="11.399" r=".591"/>
            <circle cx="17.498" cy="15.777" r=".591"/>
            <circle cx="21.854" cy="10.432" r=".591"/>
            <path d="M32.867 19.733H18.731m6.158-12.76a34.054 34.054 0 014.805-.237c3.974.09 13.482 1.772 10.306 5.998v7h-7.133"/>
            <circle cx="35.864" cy="12.052" r=".591"/>
        </g>
    </g>
</svg>