<svg width="56" height="56" xmlns="http://www.w3.org/2000/svg">
    <g fill="none" stroke="var(--primary-color, #000)">
        <path d="M3.583 16.04v27.083h5.688a5.895 5.895 0 013.42-1.083c1.276 0 2.448.399 3.418 1.083h19.974V16.04z"/>
        <path d="M36.083 21.54v21.667H16.211a6.001 6.001 0 011.896 2.167h18.62a5.943 5.943 0 015.315-3.25c2.318 0 4.33 1.309 5.315 3.25h6.06V31.562L48 21.54zm2.573 2.674h7.922l3.588 6.873h-11.51zM2.5 43.14v2.167h4.977a6.002 6.002 0 011.895-2.167z"
              stroke-linejoin="round"/>
        <path d="M48 48.04a5.958 5.958 0 11-11.917 0 5.958 5.958 0 0111.917 0zM18.75 48.04a5.958 5.958 0 11-11.917 0 5.958 5.958 0 0111.917 0z"/>
        <g>
            <path d="M6.292 19.34h10.833M6.292 22.54h19.5M6.292 25.84h16.246M6.292 29.04h13M6.292 32.34h10.835M16.042 48.04a3.25 3.25 0 11-6.5 0 3.25 3.25 0 016.5 0zM45.292 48.04a3.25 3.25 0 11-6.5 0 3.25 3.25 0 016.5 0z"/>
        </g>
    </g>
</svg>