<svg width="56" height="56" xmlns="http://www.w3.org/2000/svg">
    <g fill="none" stroke="var(--primary-color, #000)">
        <path d="M17.532 52.439c-14.463-29.362 7.34-29.592-1.113-48.936 0 0 3.611 2.004 12.03 1.925 8.42-.079 11.778-1.925 11.778-1.925-8.453 19.345 13.351 19.574-1.112 48.936 0 0-3.347 2.56-10.792 2.56S17.53 52.44 17.53 52.44z"
              stroke-linecap="round" stroke-linejoin="round"/>
        <path d="M18.311 12.067s-8.567-2.447-9.68 3.67c-1.112 6.117 6.342 8.564 6.342 8.564"/>
        <path d="M18.066 14.075s-6.704-2.007-7.385 2.37c-.681 4.379 4.849 5.533 4.849 5.533M38.337 12.067s8.567-2.447 9.68 3.67c1.112 6.117-6.342 8.564-6.342 8.564"/>
        <path d="M38.582 14.075s6.704-2.007 7.385 2.37c.681 4.379-4.849 5.533-4.849 5.533"/>
        <g stroke-linecap="round" stroke-linejoin="round">
            <path d="M16.14 3C18.083 1.561 23.8 1 28.451.96S38.48 1.618 40.423 3M17.9 7.8c1.669 1.237 6.58 1.718 10.576 1.753S37.091 8.988 38.76 7.8M15.56 47.8c2.027 2.479 8.093 3.445 12.947 3.514 4.854.068 10.566-1.133 12.593-3.514"/>
        </g>
    </g>
</svg>