<svg width="56" height="56" xmlns="http://www.w3.org/2000/svg">
    <g fill="none" stroke="var(--primary-color, #000)">
        <g stroke-width="1.002">
            <path d="M33 24c-3.005 1.786-6 2-9 0-6.867 16.268-12 21-20 28h49c-8-7-13-12-20-28zM47 10.5c0 4.142-4.922 6.385-12.086 5.9C29 16 28 24 28 24s-7-6-7-11.443C21 6 26.82 3 34 3s13 3.358 13 7.5z"/>
            <circle cx="18" cy="18" r="1"/>
            <circle cx="38" cy="22" r="1"/>
            <circle cx="43.5" cy="18.5" r=".5"/>
            <circle cx="19.5" cy="8.5" r=".5"/>
            <circle cx="41.5" cy="26.5" r=".5"/>
        </g>
        <path d="M21.8 29c-.402 1.97-.8 1-1.8 7l5-6 3.581 7.562L32 30s3 4 5 6l-1.7-7"/>
    </g>
</svg>