<svg width="56" height="56" xmlns="http://www.w3.org/2000/svg">
    <g fill="none" stroke="var(--primary-color, #000)">
        <path d="M50.618 28.616A23.234 23.234 0 0127.384 51.85 23.234 23.234 0 014.15 28.616 23.234 23.234 0 0127.384 5.382a23.234 23.234 0 0123.234 23.234z"
              stroke-linecap="round" stroke-linejoin="round" stroke-width="1.002"/>
        <path d="M27.384 5.383v18.41m0 9.381V51.85"/>
        <path d="M32.031 28.616a4.647 4.647 0 01-4.647 4.647 4.647 4.647 0 01-4.646-4.647 4.647 4.647 0 014.646-4.647 4.647 4.647 0 014.647 4.647z"
              stroke-linecap="round" stroke-linejoin="round" stroke-width="1.002"/>
        <path d="M7.263 16.999l15.943 9.205m8.125 4.69l16.173 9.339M47.505 16.999l-15.943 9.205m-8.125 4.69L7.264 40.234"/>
        <path d="M53.267 28.616a25.883 25.883 0 01-25.883 25.883A25.883 25.883 0 011.501 28.616 25.883 25.883 0 0127.384 2.733a25.883 25.883 0 0125.883 25.883z"
              stroke-linecap="round" stroke-linejoin="round" stroke-width="1.002"/>
    </g>
</svg>