<svg width="56" height="56" xmlns="http://www.w3.org/2000/svg">
    <g fill="none" stroke="var(--primary-color, #000)">
        <path d="M4.885 7.593h46.764v42.414H4.885zM2.71 3.243h51.113v4.35H2.71z"/>
        <path d="M2.71 50.007h51.113v4.35H2.71z"/>
        <g>
            <path d="M27.179 7.593v14.138h-2.753c-.254.742-.503 1.47-.781 2.175h3.534v26.101h2.175v-26.1h3.535c-.279-.706-.528-1.434-.782-2.176h-2.753V7.593z"/>
            <path d="M27.179 7.593c-2.605 16.738-7.656 29.071-20.119 31.28 1.417 5.804 3.017 9.812 4.894 11.134H7.06V7.593zM29.354 7.593c2.605 16.738 7.656 29.071 20.119 31.28-1.417 5.804-3.018 9.812-4.894 11.134h4.894V7.593z"/>
        </g>
    </g>
</svg>