<svg width="56" height="56" xmlns="http://www.w3.org/2000/svg">
    <g fill="none" stroke="var(--primary-color, #000)" stroke-linecap="round">
        <path d="M31 2s-1.597 2.967-2.773 6.717C26.824 6.845 26 5.559 26 5.559s-1.509 5.372-.625 9.578a35.2 35.2 0 00-1.445-.825s.358 5.506 2.326 8.676c.87 1.401 1.837 2.51 2.744 3.256V52c0 1.108.892 2 2 2s2-.892 2-2V26v-.008c1.41-1.522 2.217-3.793 2.783-5.623 1.29-4.295.137-10.549.137-10.549s-.613.578-1.441 1.528C33.399 6.453 31 2 31 2z"
              stroke-linejoin="round"/>
        <path d="M27.6 7.92l2.4 3.55M25.5 15.259L28 17.39M34.7 10.997L32 15.022"/>
    </g>
</svg>