<svg width="56" height="56" xmlns="http://www.w3.org/2000/svg">
    <g fill="none" stroke="var(--primary-color, #000)" stroke-linecap="round">
        <circle cx="28.31" cy="28.392" r="22.53" stroke-linejoin="round" stroke-width="1.002"/>
        <path d="M17.204 47.546c8.155-12.683 8.088-25.419 0-38.128M39.54 47.546c-8.155-12.683-8.088-25.419 0-38.128M21.147 28.97h4.275M20.8 23.308l3.928-.809m-5.083-3.928l3.466-1.387m-5.546-3.234l3.235-1.849m0 22.491l3.928.809m-5.083 3.928l3.466 1.387m-5.546 3.234l3.235 1.849M35.418 28.97h-4.275m4.622-5.662l-3.928-.809m5.083-3.928l-3.466-1.387M39 13.95l-3.235-1.849m0 22.491l-3.928.809m5.083 3.928l-3.466 1.387M39 43.95l-3.235 1.849"/>
    </g>
</svg>