<svg width="56" height="56" xmlns="http://www.w3.org/2000/svg">
    <path d="M9 20s.41 17.794 4.018 24.877c-.018 2.122 2.984 4.53 5.216 6.053C20 54 23.944 53.755 28 54.334c3.358-.48 7-.334 8.385-2.602 2.8-1.214 5.866-2.704 5.58-5.287C46.407 39.445 47 20 47 20s-3.692 22.346-10.939 15.277c-3.36-3.276-5.06-3.277-8.06-1.277-3-2-4-2-8.276 1.385C12.105 41.419 9 20 9 20zm17.156 18.746c.525-.019 1.13.052 1.848.254 4.032-1 4.038 1.513 6.5 1.5-.007.043-1.593 2.5-6.5 1.8-4.5.7-6.544-1.67-6.5-1.8 1.625.077 2.377-1.673 4.652-1.754z"
          fill-rule="evenodd" fill="var(--primary-color, #000)"/>
</svg>