<svg width="56" height="56" xmlns="http://www.w3.org/2000/svg">
    <g fill="none" stroke="var(--primary-color, #000)">
        <g stroke-linecap="round">
            <path d="M1.002 40.44h54.054v7.371H1.002z" stroke-linejoin="round"/>
            <path d="M1.002 47.84h6.143v6.143H1.002zM48.914 47.84h6.143v6.143h-6.143z"/>
        </g>
        <path d="M1.002 40.44c0-6.143-1.224-12.285 26.908-12.285s26.908 6.143 27.152 12.285"/>
        <g stroke-linecap="round" stroke-linejoin="round">
            <path d="M3.458 32.44V15.716c0-1.248 1.025-2.252 2.298-2.252h44.956c1.273 0 2.297 1.004 2.297 2.252V32.86"/>
            <path d="M12.058 29.04v-5.774c0-1.361 1.118-2.457 2.506-2.457h9.73c1.389 0 2.506 1.096 2.506 2.457v4.875M44 29.04v-5.774c0-1.361-1.118-2.457-2.506-2.457h-9.73c-1.389 0-2.506 1.096-2.506 2.457v4.875"/>
        </g>
    </g>
</svg>