<svg width="56" height="56" xmlns="http://www.w3.org/2000/svg">
    <g fill="none" stroke="var(--primary-color, #000)">
        <g stroke-linecap="round" stroke-linejoin="bevel">
            <path d="M18.306 34.319C8.131 33.186 1 30.199 1 26.694c0-4.48 11.864-8.113 26.5-8.113S54 22.213 54 26.694c0 3.471-7.124 6.434-17.141 7.591"/>
            <path d="M3.163 29.939c4.068-2.88 13.434-4.867 24.337-4.867 10.947 0 20.296 1.968 24.337 4.867m2.164-3.245c-.048 2.1 0 5.36 0 6.49 0 1.832-1.984 3.522-5.33 4.88M18.307 40.8C8.187 39.657 1 36.679 1 33.184v-6.49"/>
            <path d="M36.694 39.155v2.681A2.159 2.159 0 0134.531 44H20.47a2.159 2.159 0 01-2.164-2.164v-7.571c0-1.198.965-2.163 2.164-2.163h14.06c1.2 0 2.164.965 2.164 2.163v2.683"/>
            <path d="M34.531 39.673a2.159 2.159 0 01-2.163 2.163h-9.735a2.159 2.159 0 01-2.163-2.163v-3.245c0-1.198.965-2.163 2.163-2.163h9.735c1.198 0 2.163.965 2.163 2.163"/>
            <path d="M29.122 36.969h9.735c.599 0 1.081.482 1.081 1.082s-.482 1.081-1.081 1.081h-9.735c-.6 0-1.082-.482-1.082-1.081s.483-1.082 1.082-1.082z"/>
            <circle cx="13.98" cy="36.753" r="1.082"/>
            <circle cx="8.139" cy="35.455" r="1.082"/>
        </g>
        <path d="M36.859 34.286l11.733-1.102v6.49l-11.898 1.081"/>
    </g>
</svg>