<svg width="56" height="56" xmlns="http://www.w3.org/2000/svg">
    <g fill="none" stroke="var(--primary-color, #000)">
        <g stroke-linecap="round" stroke-width=".802" transform="matrix(-1.2484 0 0 1.2484 -4.155 -6.276)">
            <circle cx="-38" cy="38" r="9"/>
            <circle cx="-38" cy="38" r="6.98"/>
            <circle cx="-14" cy="38" r="9"/>
            <circle cx="-14" cy="38" r="6.98"/>
        </g>
        <path d="M32.703 37.418c-3.15 1.248-5.648 1.248-8.656 0M32.703 44.908c-3.15-1.248-5.665-1.122-8.656 0"
              stroke-width="1"/>
    </g>
    <g fill="none" stroke="var(--primary-color, #000)" stroke-width=".801">
        <path d="M53.163 35.67L41.708 15.677a5.91 5.91 0 00-4.775-2.418c-3.236 0-5.86 2.624-5.816 5.771l2.071 17.14M3.445 35.67l11.454-19.993a5.91 5.91 0 014.775-2.418c3.236 0 5.86 2.624 5.816 5.771L23.42 36.17"
              stroke-width="1"/>
    </g>
    <path d="M31.133 18.055c-2.056.815-3.685.815-5.648 0M28.304 18.692v19.975" fill="none"
          stroke="var(--primary-color, #000)"/>
    <g fill="none" stroke="var(--primary-color, #000)" stroke-width=".801">
        <path d="M39.311 13.648l-1.312-2.447a3.291 3.291 0 00-2.659-1.346c-1.802 0-3.263 1.461-3.239 3.214l.27 2.237M17.296 13.648l1.312-2.447a3.291 3.291 0 012.659-1.346c1.802 0 3.263 1.461 3.238 3.214l-.27 2.237"
              stroke-width="1"/>
    </g>
</svg>