<svg width="56" height="56" xmlns="http://www.w3.org/2000/svg">
    <g fill="none" stroke="var(--primary-color, #000)">
        <path d="M23.129 35.862c-2.98-1.994-7.575-7.103-4-14.992 7.248 7.179 6.96 10.373 4 14.992M36.969 48.096c2.627 2.861 8.766 7.177 16.167 3.247-8.78-6.849-12.003-6.408-16.167-3.247"/>
        <g stroke-linecap="round" stroke-linejoin="round">
            <path d="M37.418 44.197a9.526 9.526 0 01-9.526 9.526 9.526 9.526 0 01-9.527-9.526 9.526 9.526 0 019.527-9.526 9.526 9.526 0 019.526 9.526zM18.36 45.188a8.125 8.125 0 113.419-8.344M30.41 35a7.74 7.74 0 117.603 9.197"/>
            <ellipse transform="rotate(39.239)" cx="52.032" cy=".477" rx="2.648" ry="2.138"/>
            <ellipse cx="27.16" cy="41.294" rx="4.168" ry="3.572"/>
            <ellipse transform="scale(-1 1) rotate(39.238)" cx="13.715" cy="34.845" rx="2.648" ry="2.138"/>
        </g>
        <path d="M18.592 47.513c-3.687-1.224-11.149-2.011-15.707 5.02 11.002 1.718 13.604-.233 15.707-5.02"/>
    </g>
</svg>