<svg width="56" height="56" xmlns="http://www.w3.org/2000/svg">
    <g fill="none" stroke="var(--primary-color, #000)" stroke-linecap="round" stroke-linejoin="round">
        <path d="M29.988 18.483c.632-2.528 2.059-3.692 3.932-3.502C45.422 16.14 54 20.664 54 26.066c0 6.281-11.6 11.374-25.908 11.374S2.184 32.347 2.184 26.066c0-5.259 8.127-9.684 19.168-10.985 2.149-.254 4.211.875 4.843 3.402"/>
        <path d="M2.185 24.802v8.847c0 6.281 11.599 11.373 25.908 11.373S54.001 39.93 54.001 33.65v-8.847"/>
        <path d="M3.75 29.747c2.839-3.414 9.298-6.063 17.338-7.052 2.228-.274 4.415-1.684 5.109-4.212m3.79 0c.633 2.528 1.979 3.887 3.816 4.069 8.702.86 15.747 3.641 18.699 7.276"/>
        <ellipse cx="28.092" cy="41.268" rx="5.055" ry="1.733"/>
        <ellipse transform="skewY(-12.875) scale(.97486 1)" cx="45.022" cy="48.772" rx="5.186" ry="1.733"
                 stroke-width="1.013"/>
        <ellipse transform="skewY(12.875) scale(-.97486 1)" cx="-12.742" cy="35.901" rx="5.186" ry="1.733"
                 stroke-width="1.013"/>
    </g>
</svg>