<svg width="56" height="56" xmlns="http://www.w3.org/2000/svg">
    <g fill="none" stroke="var(--primary-color, #000)">
        <path d="M55 40.5c0 7.456-12.241 6.719-27.152 6.719S1 47.956 1 40.5 13.088 27 28 27s27 6.044 27 13.5z"
              stroke-linecap="round" stroke-linejoin="round"/>
        <path d="M16 28.3c-3 5-2.855 6.482-4 9.7 2.12-3.567 4.267-6.836 9-10.7M27 27c-3.483 2.75-3.949 7.022-5 11 2.777-4.191 5.336-8.589 10-11M38 28c-3.102 2.677-4.008 6.358-5 10 2.95-3.784 5.896-7.656 9-9"/>
    </g>
</svg>