<svg xmlns="http://www.w3.org/2000/svg" width="56" height="56">
    <g fill="none" stroke="var(--primary-color, #000)">
        <path d="M20.4 18h5v5h-5zM30.4 18h5v5h-5zM40.4 18h5v5h-5zM20.4 28h5v5h-5zM30.4 28h5v5h-5zM40.4 28h5v5h-5zM20.4 38h5v5h-5zM30.4 38h5v5h-5zM10.4 28h5v5h-5zM10.4 38h5v5h-5z"/>
        <path d="M17.116 6h21.757m5.318 0H50.5c.554 0 1 .446 1 1v41c0 .554-.446 1-1 1h-45c-.554 0-1-.446-1-1V7c0-.554.446-1 1-1h6.78M4.5 14h46.9"/>
        <path d="M13 1h3c.554 0 1 .446 1 1v8c0 .554-.446 1-1 1h-3c-.554 0-1-.446-1-1V2c0-.554.446-1 1-1zM40 1h3c.554 0 1 .446 1 1v8c0 .554-.446 1-1 1h-3c-.554 0-1-.446-1-1V2c0-.554.446-1 1-1z"/>
    </g>
</svg>