<svg width="56" height="56" xmlns="http://www.w3.org/2000/svg">
    <g fill="none" stroke="var(--primary-color, #000)" stroke-linejoin="round">
        <path d="M25.974 30.24c-6.869.011-12.351 2.051-18.229 7.891-1.322.875-4.723.487-4.723.487-.6 1.083.244 2.85-.875 3.962-1.296 1.288-1.058 4.307.21 5.701.893.983.924 1.379.804 2.086h4.611c-.082-.36-.027-.172-.027-.556 0-2.765 2.255-5.006 5.038-5.006 2.782 0 5.038 2.241 5.038 5.006 0 .384.055.197-.027.556h23.05c-.021-.185-.07-.365-.07-.556 0-2.765 2.256-5.006 5.038-5.006 2.783 0 5.039 2.241 5.039 5.006 0 .191-.05.37-.07.556h2.064c.404-.64 1.044-1.375.98-3.51-.063-2.05.34-3.094.175-5.458-3.713-2.159-9.778-.93-11.896-3.268-3.023-3.337-8.22-7.404-13.086-7.787a41.26 41.26 0 00-3.044-.104z"/>
        <path d="M23.42 32.54l.835 6.674h-8.672c-1.096 0-2.859-1.402-2.24-2.224 1.957-2.6 6.913-4.555 10.077-4.45zM25.659 32.54l1.12 6.674h12.316c-1.443-2.639-5.838-6.977-13.436-6.674zM12.783 44.74c2.766 0 5.009 2.254 5.009 5.036 0 2.78-2.243 5.035-5.009 5.035-2.766 0-5.009-2.254-5.009-5.035 0-2.782 2.243-5.036 5.009-5.036zM50.851 49.84c0 2.765-2.256 5.006-5.038 5.006-2.783 0-5.039-2.241-5.039-5.006s2.256-5.006 5.039-5.006c2.782 0 5.038 2.241 5.038 5.006z"/>
        <path d="M15.023 49.84c0 1.229-1.003 2.225-2.24 2.225s-2.239-.996-2.239-2.225 1.003-2.225 2.24-2.225 2.239.996 2.239 2.225zM48.052 49.84a2.232 2.232 0 01-2.24 2.225 2.232 2.232 0 01-2.239-2.225 2.232 2.232 0 012.24-2.225c1.236 0 2.239.996 2.239 2.225z"/>
    </g>
</svg>