<svg width="56" height="56" version="1.1" xmlns="http://www.w3.org/2000/svg">
 <g transform="translate(0 -996.36)" fill="none">
  <path d="m52 1022.1-6.3317 21.809h-28.774l-6.3317-21.809zm-5.9803 5.3001c-0.76326 0-1.3801 0.6467-1.3801 1.4324 0 0.7858 0.6168 1.3966 1.3801 1.3966 0.76326 0 1.4155-0.6108 1.4155-1.3966 0-0.7857-0.65219-1.4324-1.4155-1.4324zm-7.3604 0c-0.76326 0-1.3801 0.6467-1.3801 1.4324 0 0.7858 0.6168 1.3966 1.3801 1.3966 0.76326 0 1.3801-0.6108 1.3801-1.3966 0-0.7857-0.6168-1.4324-1.3801-1.4324zm-7.3604 0c-0.76327 0-1.3801 0.6467-1.3801 1.4324 0 0.7858 0.6168 1.3966 1.3801 1.3966 0.76326 0 1.3801-0.6108 1.3801-1.3966 0-0.7857-0.6168-1.4324-1.3801-1.4324zm-7.3957 0c-0.76327 0-1.3447 0.6467-1.3447 1.4324 0 0.7858 0.58141 1.3966 1.3447 1.3966 0.76326 0 1.3801-0.6108 1.3801-1.3966 0-0.7857-0.6168-1.4324-1.3801-1.4324zm-7.3604 0c-0.76326 0-1.3801 0.6467-1.3801 1.4324 0 0.7858 0.6168 1.3966 1.3801 1.3966 0.76327 0 1.3801-0.6108 1.3801-1.3966 0-0.7857-0.6168-1.4324-1.3801-1.4324zm25.797 7.5919c-0.76326 0-1.3801 0.6468-1.3801 1.4325s0.6168 1.3966 1.3801 1.3966c0.76326 0 1.3801-0.6109 1.3801-1.3966s-0.6168-1.4325-1.3801-1.4325zm-7.3604 0c-0.76326 0-1.3801 0.6468-1.3801 1.4325s0.6168 1.3966 1.3801 1.3966c0.76327 0 1.3801-0.6109 1.3801-1.3966s-0.6168-1.4325-1.3801-1.4325zm-7.3604 0c-0.76326 0-1.3801 0.6468-1.3801 1.4325s0.6168 1.3966 1.3801 1.3966c0.76326 0 1.3447-0.6109 1.3447-1.3966s-0.58142-1.4325-1.3447-1.4325zm-7.3957 0c-0.76326 0-1.3801 0.6468-1.3801 1.4325s0.6168 1.3966 1.3801 1.3966c0.76326 0 1.3801-0.6109 1.3801-1.3966s-0.6168-1.4325-1.3801-1.4325z" stroke="var(--primary-color, #000)"/>
  <g transform="matrix(1.0905 0 0 1.0905 .30524 999.72)" stroke="#010101" stroke-width=".91705">
   <path d="m21.591 45c0 1.3807-1.1193 2.5-2.5 2.5-1.3807 0-2.5-1.1193-2.5-2.5 0-1.3807 1.1193-2.5 2.5-2.5 1.3807 0 2.5 1.1193 2.5 2.5z"/>
   <path d="m40.222 45c0 1.3807-1.1193 2.5-2.5 2.5-1.3807 0-2.5-1.1193-2.5-2.5 0-1.3807 1.1193-2.5 2.5-2.5 1.3807 0 2.5 1.1193 2.5 2.5z"/>
  </g>
  <path d="m3.1404 1013.5c-1.2045 0-2.1809 0.9764-2.1809 2.181 0 1.2045 0.97643 2.1809 2.1809 2.1809 0.80651 0 1.4969-0.4396 1.8742-1.0905h1.5335l8.3829 28.59c0.11892 0.4072 0.48398 0.6588 0.92007 0.6815h0.06815c0.05409 0.011 0.11388 0.034 0.17038 0.034h31.998c0.59167 0 1.0905-0.4858 1.0905-1.0904 0-0.6047-0.49879-1.1245-1.0905-1.1245h-31.214l-8.3488-28.59c-0.089184-0.3054-0.35294-0.5139-0.64746-0.6134h-0.034077c-0.089059-0.027-0.14106-0.063-0.23854-0.068-0.041534 0-0.092076 8e-4 -0.13631 0h-2.4535c-0.37734-0.6509-1.0677-1.0904-1.8742-1.0904z" stroke="var(--primary-color, #000)"/>
 </g>
</svg>
