<svg xmlns="http://www.w3.org/2000/svg" width="56" height="56">
    <g fill="none" stroke="var(--primary-color, #000)">
        <path d="M18.9 31h19v24h-19zM5.9 22h13v33h-13zM37.9 22h13v33h-13zM23.9 20h9v11h-9zM24.9 12.615L28.26 8l3.64 4.615V20h-7z"/>
        <path d="M28.4 36s-4 1.79-4 4v12h8V40c0-2.21-4-4-4-4zM12.4 41.333A2.667 2.667 0 009.733 44v8h5.334v-8a2.667 2.667 0 00-2.667-2.667zM44.4 41.333A2.667 2.667 0 0041.733 44v8h5.334v-8a2.667 2.667 0 00-2.667-2.667zM28.4 14s-1.5.672-1.5 1.5V20h3v-4.5c0-.828-1.5-1.5-1.5-1.5zM28.3 8V1M28.1 2c5.8-3 5.8 1 13.8 3-4 2-9-2-13.8 0M3.9 19h17v3h-17zM4.9 16h3v3h-3zM10.9 16h3v3h-3zM16.9 16h3v3h-3zM35.9 19h17v3h-17zM36.9 16h3v3h-3zM42.9 16h3v3h-3zM48.9 16h3v3h-3z"/>
    </g>
</svg>