<svg width="56" height="56" xmlns="http://www.w3.org/2000/svg">
    <g fill="none" stroke="var(--primary-color, #000)">
        <path d="M25 42c-.505 6.052-5.378 11-12.012 11S1.482 48.052.976 42c-.728-8.724 5.096-12.517 12.012-9.483C19.176 29.483 25.727 33.276 25 42zM50 41.6c-.484 6.052-5.154 11-11.513 11-6.358 0-11.029-4.948-11.513-11-.698-8.724 4.884-12.517 11.513-9.483 5.93-3.034 12.211.759 11.513 9.483z"
              stroke-linecap="round" stroke-linejoin="round"/>
        <path d="M13 33c5.236-9.142 9.28-19.189 11-31 1.89 12.147 17.487 21.117 14.487 30.117"/>
        <path d="M23.5 2c3.533 2.652 4.673 8.287 12.5 6 4.777-1.5 14.223-1.5 19 12-14 1-17-3-19-12"/>
    </g>
</svg>