<svg width="56" height="56" xmlns="http://www.w3.org/2000/svg">
    <g fill="none" stroke="var(--primary-color, #000)" stroke-linejoin="round">
        <path d="M27 7.04c-12.979 0-23.5 10.521-23.5 23.5s10.521 23.5 23.5 23.5 23.5-10.521 23.5-23.5S39.979 7.04 27 7.04z"
              stroke-linecap="square" stroke-miterlimit="3.962"/>
        <path d="M28.5 13.54a1.5 1.5 0 11-3 0 1.5 1.5 0 013 0zM28.5 48.04a1.5 1.5 0 11-3 0 1.5 1.5 0 013 0z"
              stroke-linecap="round"/>
        <path d="M27 9.04c-11.736 0-21.25 9.626-21.25 21.5s9.514 21.5 21.25 21.5 21.25-9.626 21.25-21.5S38.736 9.04 27 9.04z"
              stroke-linecap="square" stroke-miterlimit="3.962"/>
        <g stroke-linecap="round" transform="translate(3 6.54)">
            <path d="M41.25 25.75a1.5 1.5 0 110-3 1.5 1.5 0 010 3zM6.75 25.75a1.5 1.5 0 110-3 1.5 1.5 0 010 3zM39.689 16.924a1.5 1.5 0 11-1.5-2.598 1.5 1.5 0 011.5 2.598zM9.811 34.174a1.5 1.5 0 11-1.5-2.598 1.5 1.5 0 011.5 2.598zM8.311 16.924a1.5 1.5 0 101.5-2.598 1.5 1.5 0 00-1.5 2.598zM38.189 34.174a1.5 1.5 0 101.5-2.598 1.5 1.5 0 00-1.5 2.598zM33.924 10.061a1.5 1.5 0 11-2.598-1.5 1.5 1.5 0 012.598 1.5zM16.674 39.939a1.5 1.5 0 11-2.598-1.5 1.5 1.5 0 012.598 1.5zM14.076 10.061a1.5 1.5 0 102.598-1.5 1.5 1.5 0 00-2.598 1.5zM31.326 39.939a1.5 1.5 0 102.598-1.5 1.5 1.5 0 00-2.598 1.5z"/>
            <rect x="23.071" y="12" width="1.929" height="13.009" rx=".964" ry=".929" stroke-miterlimit="3.962"/>
            <path d="M17.219 12.188a.903.903 0 00-.375.094c-.463.257-.614.872-.313 1.375l6.532 10.906c.301.503.943.695 1.406.437.108-.06.18-.156.25-.25-.174.168-.42.25-.688.25-.534 0-.968-.391-.968-.906v-3.281l-4.844-8.063c-.226-.377-.618-.592-1-.562zm7.5 12.562a.722.722 0 00.063-.094c-.023.028-.037.07-.063.094z"
                  stroke-miterlimit="3.962"/>
        </g>
    </g>
</svg>