<svg width="56" height="56" xmlns="http://www.w3.org/2000/svg">
    <g fill="none" stroke="var(--primary-color, #000)">
        <g stroke-width="1.002">
            <path d="M32.036 26.597l1.333-2.499-2.71 1.34-2.962-8.669-2.967 8.695-2.735-1.333 1.34 2.71-8.672 2.962 5.172 1.764m3.525 1.796l-1.333 2.142 2.71-1.34 2.96 8.672 2.969-8.697 2.735 1.333-1.34-2.71 8.67-2.96-4.706-1.607"/>
            <path d="M28.518 32.24L9.93 36.683l16.883-8.956 18.588-4.442z"/>
            <path d="M49.024 29.803A21.327 21.327 0 0127.697 51.13 21.327 21.327 0 016.37 29.803 21.327 21.327 0 0127.697 8.476a21.327 21.327 0 0121.327 21.327z"/>
            <path d="M51.394 29.803A23.697 23.697 0 0127.697 53.5 23.697 23.697 0 014 29.803 23.697 23.697 0 0127.697 6.106a23.697 23.697 0 0123.697 23.697z"/>
        </g>
        <path d="M27.698 11.536V7.981M27.698 51.13v-3.555M6.662 29.802h3.555M45.279 29.802h3.555M40.376 16.649l2.37-2.65M15.174 41.845l-2.37 2.65M40.85 41.845l2.37 2.65M15 16.649l-2.37-2.65"/>
        <circle cx="27.697" cy="29.803" r=".592" stroke-width="1.002"/>
        <circle cx="27.699" cy="3.735" r="1.777" stroke-width="1.002"/>
    </g>
</svg>