<svg width="56" height="56" xmlns="http://www.w3.org/2000/svg">
    <path d="M10.714 30.928l4.41-1.474 4.411 2.622 4.411-1.665 4.41 2.143 4.411-2.143 4.411 1.665 4.41-2.622L46 30.928l-3.715 21.357c-9.397 3.02-18.06 2.913-27.857 0z"
          fill="none" stroke="var(--primary-color, #000)" stroke-linecap="square" stroke-width="1.002"/>
    <g fill="none" stroke="var(--primary-color, #000)">
        <path d="M28.357 32.268l.173 22.41M37.436 32.076l-1.272 21.645M19.44 31.712l1.36 22.009"/>
    </g>
    <g fill="none" stroke="var(--primary-color, #000)">
        <g stroke-linecap="square" stroke-width="1.002">
            <path d="M10.152 31.121C8.152 29.849 7 28.351 7 26.749c0-2.42 2.722-4.09 6.923-5.13m28.792-.107c4.461 1.032 6.999 2.732 6.999 5.237 0 1.668-1.25 3.222-3.402 4.527"/>
            <path d="M32.837 11.937c5.852 1.403 9.913 5.446 9.913 8.777 0 4.103-6.444 4.643-14.393 4.643-7.949 0-14.393-.54-14.393-4.643 0-3.311 4.198-7.326 9.997-8.752"/>
            <path d="M33 10.5a4.643 4.643 0 11-9.286 0 4.643 4.643 0 019.286 0z"/>
        </g>
        <path d="M26.5 5.857c-1.506-4.26-4.41-4.61-7.429-4.643"/>
    </g>
    <g fill="none" stroke="var(--primary-color, #000)">
        <path d="M32.445 25.579c-.094-3.643-.905-6.716-2.87-10.544M40.556 24.057c-2.344-3.781-4.132-7.846-8.64-10.526M24.27 25.579c.093-3.643.905-6.716 2.87-10.544M16.158 24.057c2.345-3.781 4.133-7.846 8.64-10.526"/>
    </g>
</svg>