<svg width="56" height="56" xmlns="http://www.w3.org/2000/svg">
    <g fill="none" stroke="var(--primary-color, #000)">
        <g stroke-linecap="round" stroke-linejoin="round" stroke-width="1.002">
            <path d="M52.07 8.23s.515.466.676.774c.162.308.254.996.254.996L28.576 21.696z"/>
            <path d="M3.5 20.489a23.189 5.153 0 0023.19 5.153 23.189 5.153 0 0023.189-5.153 23.189 5.153 0 00-23.19-5.153 23.189 5.153 0 00-23.188 5.153z"/>
            <path d="M49.879 20.489v28.857c0 2.846-10.382 5.153-23.189 5.153S3.501 52.192 3.501 49.346V20.489"/>
        </g>
        <path d="M49.879 27.703l-7.214 17.521-8.245-13.398-7.73 14.944-7.73-14.944-8.245 13.398-7.214-17.521M42.479 24.1V53M10.879 24.1V53M26.679 25.3v28.9"/>
        <path d="M45 1s.626.3.869.55c.243.249.527.883.527.883L26.315 20.6v0z" stroke-linecap="round"
              stroke-linejoin="round" stroke-width="1.002"/>
    </g>
</svg>