<svg xmlns="http://www.w3.org/2000/svg" width="56" height="56"><g fill="none" stroke="#000"><path d="M21.867 25.374A6.975 6.975 0 0017.1 23.5c-3.525 0-6.419 2.61-6.906 6-4.465.327-5.108-2.003-8.294-5l-1.4 2c5.598 5.814 11.226 10.333 16.6 11 5 2 3 12.359 3 18h7s-1-7 0-9c.943-1.886 13.07-.138 14 1 2.28 2.791 1 8 1 8h7s-1.428-3.678-1-8c.428-4.322.71-9.29-2-12-2.297-2.297-9.352-1.92-14.861-2.15" stroke-linecap="round" stroke-linejoin="round"/><path d="M14.6 28a.5.5 0 11-1 0 .5.5 0 111 0z" stroke-linecap="round" stroke-linejoin="round"/><path d="M20.1 29.5s5.354-11.22 9-9c5.808 3.535 2.578 18.281-4 20-2.973.777-6-7-6-7h0M47.1 36.5c2.983 2.707 5.556 3.707 7 0h0M15.1 33.5c-1 2-2.124 1.81-3.6 2" stroke-linecap="round"/><path d="M17.1 23.5c2.5-3.968 4.224-6.456 8-2"/></g></svg>