<svg width="56" height="56" xmlns="http://www.w3.org/2000/svg">
    <g fill="none" stroke="var(--primary-color, #000)">
        <path d="M23.739 32.217A9.783 9.783 0 0113.956 42a9.783 9.783 0 01-9.782-9.783 9.783 9.783 0 019.782-9.783 9.783 9.783 0 019.783 9.783zM52 32.217A9.783 9.783 0 0142.217 42a9.783 9.783 0 01-9.782-9.783 9.783 9.783 0 019.782-9.783A9.783 9.783 0 0152 32.217z"
              stroke-linecap="round" stroke-linejoin="round" stroke-width="1.002"/>
        <path d="M23.739 30.043s2.174-1.643 4.348-1.63c2.174.012 4.348 1.63 4.348 1.63M4.174 31.13H2s2.35-11.382 7.609-15.635c1.836-1.485 7.608-2.843 7.608-2.843M51.562 31.13h2.174s-2.35-11.382-7.609-15.635c-1.836-1.485-7.609-2.843-7.609-2.843"/>
    </g>
</svg>