<svg width="56" height="56" xmlns="http://www.w3.org/2000/svg">
    <path d="M54 10c-3.628-.17-7.546-1.01-13.523 1.838-4.193 2.418-9.153 9.342-9.153 9.342C32.76 18.027 33.766 16.017 37 13c-2.396.503-6.541 1.866-7.923 3.4-3.07 3.288-3.658 6.442-3.99 10.495-.462-2.536.089-3.635.913-8.416-2.91 1.653-7.229 6.248-8 7.521-3.048 5.031-2.365 6.565-2 9.827-2.153-1.714-2-2.827-2-5.479-1.1 8.03.093 6.585.093 10.6C24.098 31.52 37 20 54 10zM14.093 40.947C17 41.305 15.962 42.06 25 40.391c-3.476-.322-5.322-.657-6-1.826 3.438.948 6.756.397 12.683-1.633 2.059-.705 4.397-2.007 7.696-4.015-4.378.17-6.772-.58-10.027-1.301 4.208-1.992 8.996-.572 11.6-2.155 2.257-1.435 3.76-2.908 6.103-5.066-3.94 2.638-7.203 2.85-10.37 2.718 0 0 8.661-3.86 12.06-7.158C52.137 17.401 54 10 54 10c-15.703 9.455-27 19.623-39.907 30.948z"
          stroke="var(--primary-color, #000)" fill="none" stroke-linecap="round" stroke-linejoin="round"/>
    <path d="M2.397 54.623C3.953 51.945 4.85 50.508 14.49 40.57" fill="none" stroke="var(--primary-color, #000)" stroke-linecap="round"
          stroke-linejoin="round"/>
</svg>