<svg xmlns="http://www.w3.org/2000/svg" width="56" height="56">
    <g fill="none" stroke="var(--primary-color, #000)">
        <path d="M15.472 48h21.467m12.57 0H55V36.031L49 19H32l-.09 2H0v27h3.094m30.937-27H47.3l4.794 13.938V36H34.031z"/>
        <path d="M20.898 40.108a6.187 6.187 0 11-12.375 0 6.187 6.187 0 0112.375 0z"
              transform="matrix(1.03035 0 0 1.03035 -5.832 8.05)" stroke-width=".971" stroke-linejoin="round"/>
        <path d="M12.382 49.375a3.057 3.057 0 11-6.114 0 3.057 3.057 0 016.114 0z" stroke-width=".9998964800000001"
              stroke-linejoin="round"/>
        <path transform="matrix(1.03035 0 0 1.03035 28.168 8.05)"
              d="M20.898 40.108a6.187 6.187 0 11-12.375 0 6.187 6.187 0 0112.375 0z" stroke-width=".971"
              stroke-linejoin="round"/>
        <path d="M46.382 49.375a3.057 3.057 0 11-6.114 0 3.057 3.057 0 016.114 0z" stroke-width=".9998964800000001"
              stroke-linejoin="round"/>
        <path d="M41.2 12a3 3 0 00-3 3v4h6v-4a3 3 0 00-3-3zM32 13v35M0 38.4h32M0 29.4h32M34.469 2.244L.708 11.474M37.106 11.89l-33.76 9.23M29.646 3.562l2.637 9.646M24.823 4.881l2.637 9.646M20 6.2l2.637 9.646M15.177 7.518l2.637 9.646M10.354 8.837l2.637 9.646M5.531 10.155l2.637 9.646"/>
    </g>
</svg>