<svg width="56" height="56" xmlns="http://www.w3.org/2000/svg">
    <g fill="none" stroke="var(--primary-color, #000)">
        <path d="M19.966 14.712v7.702h1.54l1.541-1.812v-4.078l-1.54-1.812z" stroke-linejoin="round"/>
        <path d="M22.893 16.638v3.851h8.473v-3.85z" stroke-linejoin="round"/>
        <path d="M5.73 18.563s-1.926 1.18-2.746 1.18c-.82 0-1.484-.528-1.484-1.18s.665-1.18 1.484-1.18c.82 0 2.747 1.18 2.747 1.18zM10.285 18.563s-1.546.915-2.204.915-1.191-.41-1.191-.915.533-.915 1.191-.915 2.204.915 2.204.915zM14.184 18.563s-1.208.684-1.723.684-.932-.306-.932-.684c0-.378.418-.684.932-.684s1.723.684 1.723.684zM7.365 10.647s-2.244.256-2.987-.09c-.743-.347-1.122-1.107-.847-1.698.276-.59 1.101-.789 1.844-.442.743.346 1.99 2.23 1.99 2.23zM11.493 12.571s-1.788.176-2.384-.102c-.596-.278-.907-.875-.693-1.333.213-.458.87-.604 1.466-.326.597.278 1.611 1.761 1.611 1.761zM15.027 14.22s-1.384.108-1.85-.109c-.467-.217-.716-.671-.556-1.014s.667-.444 1.134-.226 1.272 1.348 1.272 1.348zM7.365 26.48s-2.244-.256-2.987.091c-.743.346-1.122 1.106-.847 1.697.276.591 1.101.79 1.844.443.743-.347 1.99-2.23 1.99-2.23zM11.493 24.555s-1.788-.176-2.384.102c-.596.278-.907.875-.693 1.333.213.458.87.604 1.466.326.597-.278 1.611-1.76 1.611-1.76zM15.027 22.907s-1.384-.11-1.85.108c-.467.218-.716.672-.556 1.014.16.343.667.444 1.134.227s1.272-1.349 1.272-1.349zM12.216 31.775s-2.142.717-2.67 1.345c-.526.628-.548 1.477-.049 1.896.5.42 1.331.25 1.858-.378.527-.628.861-2.863.861-2.863zM15.144 28.286s-1.694.596-2.117 1.1c-.423.505-.452 1.176-.065 1.501.387.325 1.044.18 1.467-.324s.715-2.277.715-2.277zM17.65 25.3s-1.3.485-1.632.88c-.33.394-.364.91-.074 1.153s.792.12 1.123-.274.583-1.76.583-1.76zM12.216 5.352s-2.142-.717-2.67-1.345c-.526-.628-.548-1.477-.049-1.896.5-.42 1.331-.25 1.858.378.527.628.861 2.863.861 2.863zM15.144 8.84s-1.694-.596-2.117-1.1c-.423-.504-.452-1.176-.065-1.501.387-.325 1.044-.18 1.467.325.423.504.715 2.276.715 2.276zM17.65 11.827s-1.3-.486-1.632-.88c-.33-.394-.364-.91-.074-1.154.29-.243.792-.12 1.123.274.33.394.583 1.76.583 1.76z"/>
    </g>
    <path d="M54 54S43.302 35.326 35.429 36.743c-1.429.257-1.83 1.08-2.062 1.615-.625 1.448.827 2.805 2.157 3.005 2.38.357 4.264-1.82 4.376-4.053.164-3.275-2.821-5.75-5.947-5.747-4.166.005-7.249 3.825-7.119 7.843.164 5.056 4.83 8.752 9.738 8.49 5.945-.318 10.258-5.834 9.861-11.633-.468-6.835-6.838-11.766-13.528-11.232-7.724.616-13.276 7.843-12.604 15.423.764 8.613 8.848 14.786 17.32 13.975 9.502-.91 16.296-9.853 15.345-19.214C51.911 24.823 45.644 18.003 31.5 18.5"
          fill="none" stroke="var(--primary-color, #000)"/>
</svg>