<svg width="56" height="56" xmlns="http://www.w3.org/2000/svg">
    <g fill="none" stroke="var(--primary-color, #000)">
        <g stroke-linecap="round">
            <path d="M18.641 13.129a2.82 2.82 0 10-5.64 0v40.872h25.382s-.373-9.778.684-11.894c2.333-4.666 4.604-15.604 5.897-19.106.823-1.786.274-3.09-1.087-3.849-1.36-.758-3.09-.244-3.848 1.117l-4.466 8.373m-5.64-3.76V3.728a2.82 2.82 0 10-5.641 0v20.242"/>
            <path d="M24.281 25.444V7.488a2.82 2.82 0 10-5.64 0v17.956M35.563 28.641V7.489a2.82 2.82 0 10-5.64 0v17.956"/>
        </g>
        <path d="M13 48.712h25.383"/>
        <circle cx="35.21" cy="51.25" r="1.058" stroke-linecap="square" stroke-width="1.002"/>
    </g>
</svg>