<svg width="56" height="56" xmlns="http://www.w3.org/2000/svg">
    <g fill="#fff" stroke="var(--primary-color, #000)" stroke-linejoin="round" stroke-miterlimit="3.998">
        <path d="M51.46 30.135c.023-.452.252-.907.252-1.365v0c0-13.832-10.465-25.044-23.375-25.044-12.909 0-23.375 11.213-23.375 25.044 0 .458.23.913.253 1.365-.732 2.175-1.233 4.35-1.46 6.525a29.315 29.315 0 01-1.073-7.89c0-15.18 11.486-27.487 25.655-27.487S53.992 13.59 53.992 28.77v0c0 2.743-.375 5.391-1.073 7.89-.178-2.276-.717-4.478-1.46-6.525z"
              stroke-linecap="square"/>
        <path d="M45.918 52.592h-2.842l.073-27.293h2.986c.05 27.293-.083 27.293-.083 27.293 3.735 0 6.85-5.711 6.85-12.806v-1.68c0-7.095-3.115-12.807-6.984-12.807M10.759 52.592h2.842l-.073-27.293h-2.986c-.05 27.293.083 27.293.083 27.293-3.735 0-6.85-5.711-6.85-12.806v-1.68c0-7.095 3.115-12.807 6.984-12.807"/>
    </g>
</svg>