<?xml version="1.0" encoding="UTF-8"?>
<svg width="56" height="56">
 <g fill="none" transform="translate(0, 14)" stroke="var(--primary-color, #000)">
  <g stroke-linecap="round">
   <path d="m31.68 15.029c0 4.8601-0.88 7.04-6.16 7.04h-14.08c-2.045 0-1.76-2.2404-1.76-4.4 0-4.8601 4.1369-8.8 9.24-8.8h9.24 19.36c0.27688 0 3.96-3.96 3.96-3.96h3.52s-5.0131 6.5964-5.72 7.48c-6.16 0.88-13.2 1.76-17.6 2.64z" stroke-linejoin="round"/>
   <path d="m17.527 6.852h8.0667c0.44689 0 0.80667 0.3598 0.80667 0.8067v1.21h-9.68v-1.21c0-0.4469 0.35977-0.8067 0.80667-0.8067z"/>
   <path d="m21.824 10.629h4.4c0.97504 0 1.76 0.785 1.76 1.76v3.52c0 0.975-0.78496 1.76-1.76 1.76h-4.4c-0.97504 0-1.76-0.785-1.76-1.76v-3.52c0-0.975 0.78496-1.76 1.76-1.76z"/>
  </g>
  <g stroke-width="1px">
   <path d="m17.6 8.8688v7.04c0 1.408-0.88 1.76-1.76 1.76h-6.16"/>
   <path d="m23.76 22.069v4.4"/>
   <path d="m12.32 22.069-5.28 4.4"/>
   <path d="m4.4 22.949s1.3282 2.8641 2.64 3.52h28.16"/>
   <path d="m21.56 4.4688v2.64"/>
   <path d="m0 4.4688h43.12"/>
  </g>
 </g>
</svg>
