<svg width="56" height="56" xmlns="http://www.w3.org/2000/svg">
    <g fill="none" stroke="var(--primary-color, #000)">
        <path d="M27.766 7.937c2.027 4.618.66 9.682.66 9.682s-4.653-2.422-6.68-7.04-.66-9.683-.66-9.683 4.653 2.423 6.68 7.04z"
              stroke-linecap="round" stroke-linejoin="round" stroke-width="1.002"/>
        <path d="M21.086.896l7.34 16.723"/>
        <path d="M36.74 10.389c-1.81 3.252-5.399 4.708-5.399 4.708s-.652-3.816 1.16-7.069c1.81-3.252 5.398-4.708 5.398-4.708s.652 3.817-1.159 7.069z"
              stroke-linecap="round" stroke-linejoin="round" stroke-width="1.002"/>
        <path d="M37.899 3.32l-6.557 11.777"/>
        <path d="M36.342 26.043c-2.335-.952-3.607-3.246-3.607-3.246s2.514-.75 4.849.202 3.606 3.247 3.606 3.247-2.513.75-4.848-.203z"
              stroke-linecap="round" stroke-linejoin="round" stroke-width="1.002"/>
        <path d="M41.191 26.245l-8.455-3.449"/>
        <path d="M17.567 19.294c3.152 1.98 6.998 1.531 6.998 1.531s-1.265-3.66-4.416-5.64c-3.152-1.98-6.998-1.531-6.998-1.531s1.264 3.66 4.416 5.64z"
              stroke-linecap="round" stroke-linejoin="round" stroke-width="1.002"/>
        <path d="M13.151 13.654l11.414 7.171"/>
        <path d="M38.781 20.234c-3.572 1.046-7.15-.434-7.15-.434s2.214-3.177 5.786-4.223c3.572-1.046 7.15.434 7.15.434s-2.214 3.177-5.786 4.223z"
              stroke-linecap="round" stroke-linejoin="round" stroke-width="1.002"/>
        <path d="M44.567 16.011l-12.936 3.788M28.391 17.346c.59 3.21.609 8.827.609 16.654M31.341 15.097l-2.515 6.597M24.565 20.825c2.832 1.25 3.555 2.817 4.435 4.348M31.522 19.955l-2.609 3.479M32.736 22.796c-.607-.194-1.412-.327-2.953-.232"/>
        <g stroke-linecap="round" stroke-linejoin="round" stroke-width="1.002">
            <ellipse cx="28.966" cy="33.5" rx="12.5" ry="2.5"/>
            <path d="M16.432 33.534L16.5 37.5c0 1.38 5.596 2.5 12.5 2.5s12.5-1.12 12.5-2.5l-.016-3.993"/>
            <path d="M18 38.8l1.326 14.288c.098 1.063 4.328 1.933 9.666 1.933 5.339 0 9.666-.865 9.666-1.933L40 38.8"/>
        </g>
    </g>
</svg>