<svg width="56" height="56" xmlns="http://www.w3.org/2000/svg">
    <g fill="none" stroke="var(--primary-color, #000)">
        <path d="M26.459 1.643c8.404 0 15.216 6.792 15.216 15.17 0 5.099-3.578 10.717-6.147 14.127-2.428 3.222-2.374 8.212-2.374 8.212-.067.726-.51 1.328-1.142 1.328H20.905c-.632 0-1.074-.602-1.14-1.328 0 0 .053-4.99-2.375-8.212-2.57-3.411-6.147-9.028-6.147-14.126 0-8.379 6.812-15.171 15.216-15.171z"/>
        <path d="M22.199 40.48h8.521c1.349 0 2.435.812 2.435 1.82 0 1.01-1.086 1.821-2.435 1.821h-8.521c-1.349 0-2.435-.812-2.435-1.82 0-1.01 1.086-1.821 2.435-1.821z"/>
        <path d="M22.199 44.121h8.521c1.349 0 2.435.812 2.435 1.82s-1.086 1.821-2.435 1.821h-8.521c-1.349 0-2.435-.812-2.435-1.82S20.85 44.12 22.2 44.12zM22.199 47.762h8.521c1.349 0 2.435.812 2.435 1.82s-1.086 1.821-2.435 1.821h-8.521c-1.349 0-2.435-.812-2.435-1.82s1.086-1.821 2.435-1.821z"/>
        <path d="M21.818 47.724c-.004.024.004.052 0 .076.124-.015.25-.038.38-.038-.13 0-.256-.023-.38-.038zm9.282 0c-.124.015-.25.038-.38.038.13 0 .256.023.38.038-.004-.024.004-.052 0-.076zm-9.434 3.641c.197 2.237.882 3.906 1.712 3.906h6.162c.83 0 1.514-1.669 1.712-3.906a3.31 3.31 0 01-.533.038H22.2c-.182 0-.363-.01-.533-.038z"/>
    </g>
</svg>