<svg width="56" height="56" version="1.1" xmlns="http://www.w3.org/2000/svg">
 <g transform="translate(0 -996.36)" stroke="var(--primary-color, #000)" stroke-linecap="square">
  <path d="m28.264 998.07c-9.509 0-17.201 7.3419-17.201 16.405 0 0.1469 9.3e-4 4.121 0 7.891h4.4647c-1.81e-4 -3.2303 0-6.4987 0-6.6104 0-7.4537 5.7057-13.498 12.736-13.498 7.0307 0 12.736 6.0442 12.736 13.498 0 0.1117-0.0016 3.3801 0 6.6104h4.4647c-7.56e-4 -3.77 0-7.7441 0-7.891 0-9.0632-7.6921-16.405-17.201-16.405z" fill="none"/>
  <path d="m9.9895 1022.4h36.548c0.61356 0 1.1075 0.495 1.1075 1.1099v25.527c0 0.6148-0.49395 1.1099-1.1075 1.1099h-36.548c-0.61356 0-1.1075-0.4951-1.1075-1.1099v-25.527c0-0.6149 0.49395-1.1099 1.1075-1.1099z" fill="#fff" fill-rule="evenodd"/>
  <path d="m28.264 1027.9c-2.1408 0-3.8763 1.7391-3.8763 3.8845 0 1.5531 0.90052 2.8815 2.215 3.503-3.77e-4 0.012 0 0.022 0 0.034v4.7863c0 0.6149 0.49395 1.1099 1.1075 1.1099h1.1075c0.61356 0 1.1075-0.495 1.1075-1.1099v-4.7863c0-0.012 3.76e-4 -0.023 0-0.034 1.3145-0.6215 2.215-1.9499 2.215-3.503 0-2.1454-1.7355-3.8845-3.8763-3.8845z" fill="none"/>
 </g>
</svg>
