<svg width="56" height="56" xmlns="http://www.w3.org/2000/svg">
    <path d="M40.972 27.084c.009.2 0 .37 0 .572 0 6.568-5.099 11.94-11.599 12.52v11.09h6.96V54.7h-17.4v-3.434h6.959V40.177c-6.5-.579-11.6-5.952-11.6-12.52 0-.165-.006-.408 0-.572h2.898c-.01.188 0 .382 0 .572 0 5.69 4.679 9.501 10.443 9.501 5.764 0 10.442-3.81 10.442-9.5 0-.203.01-.373 0-.573z"
          fill="#fff" stroke="var(--primary-color, #000)"/>
    <path d="M20.092 26.2c0 4.234 3.377 7.666 7.542 7.666s7.541-3.432 7.541-7.666V8.679c0-4.234-3.376-7.666-7.541-7.666s-7.542 3.432-7.542 7.666z"
          fill="#fff" stroke="var(--primary-color, #000)"/>
</svg>