<svg width="56" height="56" xmlns="http://www.w3.org/2000/svg">
    <g fill="none" stroke="var(--primary-color, #000)" stroke-linecap="round">
        <g stroke-linejoin="round" stroke-width="1.002">
            <path d="M30.16 13.774c0 .917-.744 1.16-1.66 1.16s-1.662-.243-1.662-1.16.744-2.161 1.661-2.161 1.661 1.244 1.661 2.161zm0 7.388c0 3.44-.744 6.228-1.66 6.228s-1.662-2.788-1.662-6.228.744-6.228 1.661-6.228 1.661 2.788 1.661 6.228zm0 12.124c0 3.21-1.66 5.813-1.66 5.813s-1.662-2.603-1.662-5.813c0-3.21.744-5.813 1.661-5.813s1.661 2.603 1.661 5.813z"/>
            <path d="M54.688 20.664c.246 1.818-2.736 4.56-11.899 4.96-6.873.3-12.543.194-12.789-1.624 13.767-3.536 23.42-6.516 24.688-3.336zm-52.492 0c-.246 1.818 2.736 4.56 11.899 4.96 6.873.3 12.543.194 12.789-1.624-13.767-3.536-23.42-6.516-24.688-3.336z"/>
        </g>
        <path d="M28.5 11.4C28.091 8.546 29.58 5.557 25 3m5 16l8-3V8l8-5M29.7 26l8.3 2c.769 8.298 4.165 11.618 7 16"/>
        <path d="M29 27l5 4-2 10c2.313 6.793 6.73 9.764 11 13M26.953 19l-8-3V8l-8-5m16.3 23l-8.3 2c-.769 8.298-4.165 11.618-7 16"/>
        <path d="M27.953 27l-5 4 2 10c-2.313 6.793-6.73 9.764-11 13"/>
    </g>
</svg>