<svg width="56" height="56" xmlns="http://www.w3.org/2000/svg">
    <g fill="none" stroke="var(--primary-color, #000)">
        <path d="M46 19c0 9.231-17.179 27.1-17.179 27.1S11.642 28.231 11.642 19 19.333 2.286 28.821 2.286 46 9.769 46 19z"
              stroke-linecap="round" stroke-linejoin="round" stroke-width="1.002"/>
        <circle cx="28.821" cy="51.999" r="2.5" stroke-linecap="round" stroke-linejoin="round" stroke-width="1.002"/>
        <path d="M28.821 46v4"/>
        <circle cx="33.446" cy="46.499" r="1.875" stroke-linecap="round" stroke-linejoin="round" stroke-width="1.002"/>
        <path d="M33.446 41.2v3.2"/>
        <circle cx="37.446" cy="41.499" r="1.875" stroke-linecap="round" stroke-linejoin="round" stroke-width="1.002"/>
        <path d="M37.446 36.2v3.2"/>
        <circle cx="41.446" cy="35.899" r="1.875" stroke-linecap="round" stroke-linejoin="round" stroke-width="1.002"/>
        <path d="M41.446 30.6v3.2"/>
        <circle transform="scale(-1 1)" cx="-24.247" cy="46.499" r="1.875" stroke-linecap="round"
                stroke-linejoin="round" stroke-width="1.002"/>
        <path d="M24.247 41.2v3.2"/>
        <circle transform="scale(-1 1)" cx="-20.247" cy="41.499" r="1.875" stroke-linecap="round"
                stroke-linejoin="round" stroke-width="1.002"/>
        <path d="M20.247 36.2v3.2"/>
        <circle transform="scale(-1 1)" cx="-16.247" cy="35.899" r="1.875" stroke-linecap="round"
                stroke-linejoin="round" stroke-width="1.002"/>
        <path d="M16.247 30.6v3.2"/>
    </g>
</svg>