<svg width="56" height="56" xmlns="http://www.w3.org/2000/svg">
    <g fill="none" stroke="var(--primary-color, #000)">
        <path d="M28.236 1c1.049 0 1.763.852 1.893 1.893.946 7.571 1.354 22.563.946 35.018-.034 1.048-1.79 1.893-2.839 1.893s-2.803-.845-2.84-1.893c-.411-11.85 0-27.446.947-35.018.13-1.04.844-1.893 1.893-1.893z"
              stroke-linecap="round" stroke-linejoin="bevel"/>
        <path d="M25.397 33.179h5.679"/>
        <path d="M32.59 44.062c.187 2.382-.568 7.098-8.045 9.938 3.691-3.786-.094-4.733-.473-9.938-.17-2.346 1.907-4.259 4.26-4.259s4.074 1.914 4.258 4.259z"
              stroke-linecap="round" stroke-linejoin="bevel"/>
    </g>
</svg>