<svg width="56" height="56" xmlns="http://www.w3.org/2000/svg">
    <g fill="#fff" stroke="var(--primary-color, #000)" stroke-width="2.36">
        <path d="M1.606 27.315c0 14.437 11.703 26.14 26.14 26.14s26.14-11.703 26.14-26.14-11.703-26.14-26.14-26.14-26.14 11.703-26.14 26.14z"
              transform="matrix(.42709 0 0 .42025 14.307 17.99)"/>
        <path d="M27.746 53.454V1.174m-19.1 43.912c4.77-5.104 11.563-8.293 19.1-8.293 7.537 0 14.329 3.19 19.1 8.293M8.646 9.541c4.77 5.103 11.563 8.293 19.1 8.293 7.537 0 14.329-3.19 19.1-8.293m-19.1-8.367C35.872 7.7 41.148 17.003 41.148 27.318s-5.275 19.61-13.402 26.136m0-52.28C19.62 7.7 14.344 17.003 14.344 27.318s5.275 19.61 13.402 26.136M53.885 27.315H1.605"
              transform="matrix(.42709 0 0 .42025 14.307 17.99)"/>
    </g>
    <path d="M9 1h35c1.108 0 2 .909 2 2.038v49.925C46 54.092 45.108 55 44 55H9c-1.108 0-2-.908-2-2.037V3.038C7 1.908 7.892 1 9 1z"
          fill="none" stroke="var(--primary-color, #000)" stroke-linecap="round" stroke-linejoin="round"/>
    <text x="9.333" y="11.19" font-family="Sans" font-size="40" letter-spacing="0" word-spacing="0"
          style="line-height:125%">
        <tspan x="9.333" y="11.19" font-size="8">Passport</tspan>
    </text>
</svg>