<svg width="56" height="56" xmlns="http://www.w3.org/2000/svg">
    <path d="M53 8.77s-3.488 2.691-5.314 2.134c-10.5-3.2-28.636-3.2-39.502 0-1.834.54-5.324-2.133-5.324-2.133s1.46 3.51 1.067 5.253c-1.945 8.615-2.437 16.359 0 24.709.5 1.712-1.067 5.242-1.067 5.242s3.161-2.679 4.837-2.133c10.834 3.527 30.557 3.2 39.827 0 1.851-.64 5.476 2.133 5.476 2.133s-1.32-3.205-1.067-4.999c1.255-8.87 1.255-16.337 0-24.79C51.648 12.265 53 8.77 53 8.77z"
          fill="none" stroke="var(--primary-color, #000)" stroke-linecap="round" stroke-linejoin="round"/>
    <path d="M52.121 9.838c-4.386 12.566-3.2 21.336 0 33.07" fill="none" stroke="var(--primary-color, #000)"/>
</svg>