<svg width="56" height="56" xmlns="http://www.w3.org/2000/svg">
    <g transform="matrix(-.44507 .44286 .44286 .44507 29.48 12.504)" clip-path="url(#clipPath991)" fill="none"
       stroke="var(--primary-color, #000)" stroke-width="1.593">
        <path d="M5 6s3.22-2 5.02-2c1.799 0 5.011 2 5.011 2s3.175-1.99 4.957-2c1.831-.01 5.118 2 5.118 2s3.212-2.003 5.01-2c1.782.003 4.957 2 4.957 2s3.286-2.02 5.118-2c1.731.02 4.795 2 4.795 2s3.249-2.007 5.064-2C51.83 4.007 55 6 55 6M5 16s3.22-2 5.02-2c1.799 0 5.011 2 5.011 2s3.175-1.99 4.957-2c1.831-.01 5.118 2 5.118 2s3.212-2.003 5.01-2c1.782.003 4.957 2 4.957 2s3.286-2.02 5.118-2c1.731.02 4.795 2 4.795 2s3.249-2.007 5.064-2c1.78.007 4.95 2 4.95 2M5 26s3.22-2 5.02-2c1.799 0 5.011 2 5.011 2s3.175-1.99 4.957-2c1.831-.01 5.118 2 5.118 2s3.212-2.003 5.01-2c1.782.003 4.957 2 4.957 2s3.286-2.02 5.118-2c1.731.02 4.795 2 4.795 2s3.249-2.007 5.064-2c1.78.007 4.95 2 4.95 2M5 36s3.22-2 5.02-2c1.799 0 5.011 2 5.011 2s3.175-1.99 4.957-2c1.831-.01 5.118 2 5.118 2s3.212-2.003 5.01-2c1.782.003 4.957 2 4.957 2s3.286-2.02 5.118-2c1.731.02 4.795 2 4.795 2s3.249-2.007 5.064-2c1.78.007 4.95 2 4.95 2M5 46s3.22-2 5.02-2c1.799 0 5.011 2 5.011 2s3.175-1.99 4.957-2c1.831-.01 5.118 2 5.118 2s3.212-2.003 5.01-2c1.782.003 4.957 2 4.957 2s3.286-2.02 5.118-2c1.731.02 4.795 2 4.795 2s3.249-2.007 5.064-2c1.78.007 4.95 2 4.95 2"/>
        <path d="M5.5 55.6s-2-3.22-2-5.02c0-1.799 2-5.011 2-5.011s-1.99-3.175-2-4.957c-.01-1.831 2-5.118 2-5.118s-2.003-3.212-2-5.01c.003-1.782 2-4.957 2-4.957s-2.02-3.286-2-5.118c.02-1.731 2-4.795 2-4.795s-2.007-3.249-2-5.064c.007-1.78 2-4.95 2-4.95M15.5 55.6s-2-3.22-2-5.02c0-1.799 2-5.011 2-5.011s-1.99-3.175-2-4.957c-.01-1.831 2-5.118 2-5.118s-2.003-3.212-2-5.01c.003-1.782 2-4.957 2-4.957s-2.02-3.286-2-5.118c.02-1.731 2-4.795 2-4.795s-2.007-3.249-2-5.064c.007-1.78 2-4.95 2-4.95M25.5 55.6s-2-3.22-2-5.02c0-1.799 2-5.011 2-5.011s-1.99-3.175-2-4.957c-.01-1.831 2-5.118 2-5.118s-2.003-3.212-2-5.01c.003-1.782 2-4.957 2-4.957s-2.02-3.286-2-5.118c.02-1.731 2-4.795 2-4.795s-2.007-3.249-2-5.064c.007-1.78 2-4.95 2-4.95M35.5 55.6s-2-3.22-2-5.02c0-1.799 2-5.011 2-5.011s-1.99-3.175-2-4.957c-.01-1.831 2-5.118 2-5.118s-2.003-3.212-2-5.01c.003-1.782 2-4.957 2-4.957s-2.02-3.286-2-5.118c.02-1.731 2-4.795 2-4.795s-2.007-3.249-2-5.064c.007-1.78 2-4.95 2-4.95M45.5 55.6s-2-3.22-2-5.02c0-1.799 2-5.011 2-5.011s-1.99-3.175-2-4.957c-.01-1.831 2-5.118 2-5.118s-2.003-3.212-2-5.01c.003-1.782 2-4.957 2-4.957s-2.02-3.286-2-5.118c.02-1.731 2-4.795 2-4.795s-2.007-3.249-2-5.064c.007-1.78 2-4.95 2-4.95"/>
    </g>
    <g fill="none" stroke="var(--primary-color, #000)">
        <path d="M42.327 40.009c0 10.181-5.758 15.005-12.861 15.005S16.605 50.19 16.605 40.009c0-10.181 5.758-18.434 12.861-18.434s12.861 8.253 12.861 18.434z"
              stroke-linecap="round" stroke-linejoin="bevel"/>
        <path d="M25.622 22.725c-2.198-3.531-5.539-4.4-9.592-7.152 5.183-.308 8.414 0 13.463 4.207M33.7 22.305c1.966-3.744 3.366-5.049 8.414-7.573-5.183-.308-10.35 1.262-13.716 7.152"/>
        <path d="M24.444 16.414c-1.38-2.804-3.366-3.366-6.731-6.731 3.408.732 7.614 2.129 11.78 5.89M28.652 18.939C29.827 14.25 31.807 10.976 37.908 8c-1.02 2.406-2.524 5.89-2.524 7.573"/>
        <path d="M25.286 12.207c0-4.207.192-5.766 0-8.414 2.524 3.365 3.595 6.578 5.049 10.097"/>
        <path d="M28.652 9.935c.389-2.663 1.478-5.364 2.524-7.825.842 4.207 1.683 6.272 1.683 9.256"/>
    </g>
    <defs>
        <clipPath id="clipPath991">
            <path d="M16.394 45.485c11.437 11.494 23.357 10.472 31.377 2.492s9.101-19.894-2.336-31.389c-11.437-11.494-27.21-14.344-35.23-6.364-8.02 7.98-5.248 23.766 6.189 35.26z"
                  fill="none" stroke="var(--primary-color, #000)" stroke-linecap="round" stroke-linejoin="bevel"/>
        </clipPath>
    </defs>
</svg>