<svg width="56" height="56" xmlns="http://www.w3.org/2000/svg">
    <g fill="none" stroke="var(--primary-color, #000)" stroke-linecap="round" stroke-linejoin="round">
        <path d="M16.687 28.64c.112-.551.267-1.1.469-1.644 2.103-5.675 8.408-8.57 14.083-6.468 5.675 2.103 8.57 8.408 6.467 14.083a11.043 11.043 0 01-.736 1.589m-1.684 2.248a10.96 10.96 0 01-11.663 2.63c-4.374-1.62-7.097-5.638-7.152-10.04"/>
        <path d="M38.37 30.34c9.627 4.227 15.993 8.381 15.321 10.197-.857 2.312-12.967-.044-27.049-5.263C12.56 30.056 1.838 23.951 2.695 21.64c.634-1.71 7.42-.866 16.609 1.8"/>
        <path d="M38.297 32.04c5.713 2.575 9.395 4.822 9.065 5.713-.483 1.305-9.395-.794-19.904-4.689C16.95 29.17 8.822 24.954 9.305 23.65c.3-.81 3.848-.308 9.01 1.12"/>
    </g>
</svg>