<svg width="56" height="56" xmlns="http://www.w3.org/2000/svg">
    <g fill="none" stroke="var(--primary-color, #000)">
        <path d="M33.057 12.939v-.55c0-5.486-3.647-9.902-8.176-9.902h-.908c-4.53 0-8.176 4.416-8.176 9.902.013 8.402-.021 18.002.012 26.405h3.621V12.389c0-3.048 2.026-6.051 4.542-6.051h.909c2.516 0 4.542 3.003 4.542 6.05v.551z"/>
        <path d="M35.725 19.54H19.487v3.85h16.24zM53.043 12.939v-.55c0-5.486-3.647-9.902-8.176-9.902h-.908c-4.53 0-8.176 4.416-8.176 9.902.013 8.402-.021 18.002.012 26.405h3.621V12.389c0-3.048 2.026-6.051 4.543-6.051h.908c2.517 0 4.542 3.003 4.542 6.05v.551zM35.725 30.542H19.487v3.85h16.24zM1.333 48.295s10.415 5.272 16.093 5.81c7.535.715 14.878-2.98 22.425-3.556 4.385-.335 13.191.062 13.191.062s-8.088-2.977-13.19-3.13c-8.04-.242-14.368 3.662-22.426 3.556-5.958-.078-16.093-3.06-16.093-3.06"/>
        <path d="M1.333 41.693s10.415 5.272 16.093 5.81c7.535.715 14.878-2.98 22.425-3.556 4.385-.335 13.191.062 13.191.062s-8.088-2.977-13.19-3.13c-8.04-.242-14.368 3.662-22.426 3.556-5.958-.078-16.093-3.06-16.093-3.06"/>
    </g>
</svg>