<svg width="56" height="56" xmlns="http://www.w3.org/2000/svg">
    <g fill="none" stroke="var(--primary-color, #000)" stroke-linecap="square" stroke-width="1.002">
        <path d="M16.491 47c0-6.7 5.432-12.132 12.132-12.132S40.755 40.3 40.755 47"/>
        <path d="M11.868 47c0-9.253 7.501-16.755 16.755-16.755S45.378 37.746 45.378 47"/>
        <path d="M7.246 47c0-11.806 9.57-21.377 21.377-21.377S50 35.193 50 47"/>
        <path d="M2.624 47c0-14.359 11.64-25.999 25.999-25.999S54.622 32.641 54.622 47"/>
        <path d="M2.624 47c0-14.359 11.64-25.999 25.999-25.999S54.622 32.641 54.622 47M42.791 8.227a5.885 5.885 0 00-5.486 3.758 4.006 4.006 0 00-.09 0 4.006 4.006 0 00-4.007 4.005 4.006 4.006 0 004.006 4.006 4.006 4.006 0 002.495-.871 5.885 5.885 0 003.082.871 5.885 5.885 0 002.779-.697 5.063 5.063 0 002.563.697 5.063 5.063 0 005.064-5.062 5.063 5.063 0 00-5.064-5.064A5.063 5.063 0 0047 10a5.885 5.885 0 00-4.209-1.773z"/>
    </g>
</svg>