<svg width="56" height="56" xmlns="http://www.w3.org/2000/svg">
    <g fill="none" stroke="var(--primary-color, #000)">
        <path d="M18.075 17.819h19.35c.67 0 1.21.51 1.21 1.143v32.593c-5.763 5.141-16.007 5.141-21.769 0V18.962c0-.633.54-1.143 1.21-1.143zM14.575 12.428c1.246-6.116 6.672-10.719 13.176-10.719 6.504 0 11.929 4.603 13.176 10.719"/>
        <path d="M18.742 13.321c.852-4.28 4.561-7.5 9.008-7.5 4.447 0 8.156 3.22 9.008 7.5"/>
        <path d="M22.856 14.277c.463-2.36 2.478-4.136 4.894-4.136s4.43 1.776 4.894 4.136"/>
        <g>
            <path d="M27.75 15.991c-.95 0-1.719.767-1.719 1.714h3.438c0-.947-.77-1.714-1.72-1.714zM21.449 27.989h1.146c.634 0 1.145.51 1.145 1.143v1.142c0 .633-.51 1.143-1.145 1.143h-1.146c-.635 0-1.146-.51-1.146-1.143v-1.142c0-.633.511-1.143 1.146-1.143zM27.177 27.989h1.146c.634 0 1.145.51 1.145 1.143v1.142c0 .633-.51 1.143-1.145 1.143h-1.146c-.635 0-1.146-.51-1.146-1.143v-1.142c0-.633.511-1.143 1.146-1.143zM32.906 27.989h1.146c.634 0 1.145.51 1.145 1.143v1.142c0 .633-.51 1.143-1.145 1.143h-1.146c-.635 0-1.146-.51-1.146-1.143v-1.142c0-.633.511-1.143 1.146-1.143zM21.449 34.844h1.146c.634 0 1.145.51 1.145 1.143v1.142c0 .633-.51 1.143-1.145 1.143h-1.146c-.635 0-1.146-.51-1.146-1.143v-1.142c0-.633.511-1.143 1.146-1.143zM27.177 34.844h1.146c.634 0 1.145.51 1.145 1.143v1.142c0 .633-.51 1.143-1.145 1.143h-1.146c-.635 0-1.146-.51-1.146-1.143v-1.142c0-.633.511-1.143 1.146-1.143zM32.906 34.844h1.146c.634 0 1.145.51 1.145 1.143v1.142c0 .633-.51 1.143-1.145 1.143h-1.146c-.635 0-1.146-.51-1.146-1.143v-1.142c0-.633.511-1.143 1.146-1.143zM21.449 41.7h1.146c.634 0 1.145.51 1.145 1.143v1.142c0 .633-.51 1.143-1.145 1.143h-1.146c-.635 0-1.146-.51-1.146-1.143v-1.142c0-.633.511-1.143 1.146-1.143zM27.177 41.7h1.146c.634 0 1.145.51 1.145 1.143v1.142c0 .633-.51 1.143-1.145 1.143h-1.146c-.635 0-1.146-.51-1.146-1.143v-1.142c0-.633.511-1.143 1.146-1.143zM32.906 41.7h1.146c.634 0 1.145.51 1.145 1.143v1.142c0 .633-.51 1.143-1.145 1.143h-1.146c-.635 0-1.146-.51-1.146-1.143v-1.142c0-.633.511-1.143 1.146-1.143zM30.042 22.618c0 1.262-1.026 2.285-2.291 2.285s-2.292-1.023-2.292-2.285 1.026-2.285 2.292-2.285 2.291 1.023 2.291 2.285zM27.177 48.555h1.146c.634 0 1.145.51 1.145 1.143v1.142c0 .633-.51 1.143-1.145 1.143h-1.146c-.635 0-1.146-.51-1.146-1.143v-1.142c0-.633.511-1.143 1.146-1.143z"/>
        </g>
    </g>
</svg>