<svg width="56" height="56" xmlns="http://www.w3.org/2000/svg">
    <g fill="none" stroke="var(--primary-color, #000)">
        <path d="M2.312 16.067s1.703 4.891 1.034 7.233C1.278 30.534.245 32.6 2.311 45H50.88c1.54 0 4.472-4.111 3.125-4.857-8.49-4.697-21.37-6.57-27.882-16.112-2.145-3.142-5.209-10.03-5.209-10.03z"/>
        <path d="M2.312 45s-.93 6.2 1.137 6.2h47.43c1.461 0 2.54-1.75 3.1-3.1 1.054-2.546.517-7.233.517-7.233"/>
        <circle cx="9.725" cy="31.387" r="4.313" stroke-linecap="round" stroke-linejoin="round"/>
        <path d="M17.812 22.267l6.2-2.067M20.912 28.467l5.167-4.133M25.046 33.633l5.167-5.167M31.246 37.767l3.1-6.2M39.512 45c1.033-2.531 2.067-5.787 8.267-7.853"/>
    </g>
</svg>