<svg width="56" height="56" xmlns="http://www.w3.org/2000/svg">
    <path d="M26.8 54.54a1.084 1.088 0 01-.915-1.088l-.034-4.181-2.541 1.972a1.084 1.088 0 01-.813.204 1.084 1.088 0 01-.509-1.938l3.863-2.958-.034-7.24-7.725 5.88-2.135 1.632.407-2.685 1.423-9.077-5.32 3.026-.576 4.793a1.084 1.088 0 01-1.22.952 1.084 1.088 0 01-.915-1.224l.373-3.196-4.337 2.482a1.093 1.096 0 11-1.084-1.904l4.303-2.515-2.948-1.258a1.092 1.096 0 11.881-2.006l4.371 1.938 5.421-3.161-9.182-3.536-2.677-1.02 2.677-1.02 9.182-3.535-5.387-3.127-4.405 1.937a1.084 1.088 0 01-.644.068 1.084 1.088 0 01-.237-2.074l2.982-1.291-4.337-2.516a1.093 1.096 0 011.084-1.904l4.337 2.482-.373-3.162a1.084 1.088 0 112.135-.272l.576 4.76 5.286 3.025-1.39-9.076-.406-2.686 2.135 1.632 7.725 5.88.034-7.172-3.862-2.923a1.088 1.091 0 111.321-1.734l2.541 1.938.034-4.25a1.084 1.088 0 012.169 0l.034 4.216 2.541-1.938a1.091 1.095 0 111.288 1.768l-3.83 2.855.035 7.24 7.691-5.88 2.135-1.632-.407 2.686-1.389 9.076 5.32-3.06.61-4.725a1.084 1.088 0 112.134.272l-.372 3.128 4.27-2.448a1.093 1.096 0 011.083 1.904l-4.303 2.516 2.982 1.291a1.084 1.088 0 01-.576 2.074 1.084 1.088 0 01-.271-.068l-4.473-1.937-5.387 3.127 9.182 3.535 2.677 1.02-2.677 1.02-9.182 3.536 5.421 3.161 4.439-1.938a1.086 1.09 0 11.847 2.006l-2.948 1.292 4.27 2.481a1.093 1.096 0 11-1.085 1.904l-4.27-2.448.374 3.162a1.084 1.088 0 01-1.288 1.224 1.084 1.088 0 01-.847-.952l-.61-4.76-5.32-3.059 1.39 9.077.406 2.685-2.135-1.631-7.691-5.881-.034 7.308 3.829 2.856a1.091 1.095 0 11-1.288 1.768l-2.541-1.938-.034 4.147a1.084 1.088 0 01-1.152 1.088 1.084 1.088 0 01-.102 0zm-7.861-12.714l6.844-5.27-.033-6.05-5.557 3.195-1.254 8.125zm16.06 0l-1.219-8.125-5.625-3.195-.033 6.085L35 41.826zM19.177 31.56l5.354-3.127-5.354-3.128-8.166 3.128zm15.587 0l8.166-3.127-8.166-3.128-5.388 3.128zm-9.013-5.201l.034-6.051-6.879-5.27 1.254 8.125 5.59 3.196zm2.406 0l5.624-3.196L35 15.04l-6.878 5.235.034 6.085z"
          color="#000" fill="none" stroke="var(--primary-color, #000)" style="text-decoration-line:none;text-indent:0;text-transform:none"/>
</svg>