<svg width="56" height="56" xmlns="http://www.w3.org/2000/svg">
    <g fill="none" stroke="var(--primary-color, #000)">
        <path d="M53.748 7s-.334 7.334-1.486 27.362C52.024 38.478 56 46.7 51 50s-8.284 1.593-11.338 1.257C28.182 50.397 7 57 4 48c-4-11 27.62-5.127 29-17V7zM52.8 39C40.8 39 42 51.699 42 51.7"
              stroke-linecap="round" stroke-linejoin="round"/>
        <path d="M33 17h20M12 40.8c3.072 2.74 3 8.2 2 12.2"/>
        <path d="M33 7l2.5 10L38 7l3 10 3-10 3 10 2.5-10 3 10" stroke-linecap="round" stroke-linejoin="round"/>
    </g>
</svg>