<svg width="56" height="56" xmlns="http://www.w3.org/2000/svg">
    <g fill="none" stroke="var(--primary-color, #000)">
        <path d="M2.704 23.941h12.517c.63 0 1.137.465 1.137 1.043v28.691c0 .578-.507 1.044-1.138 1.044H2.704c-.63 0-1.137-.466-1.137-1.044v-28.69c0-.579.507-1.044 1.137-1.044z"/>
        <path d="M14.082 46.17a5.125 5.125 0 01-5.12 5.13 5.125 5.125 0 01-5.12-5.13 5.125 5.125 0 015.12-5.13 5.125 5.125 0 015.12 5.13z"/>
        <path d="M11.807 46.17c0 1.574-1.274 2.85-2.845 2.85s-2.844-1.276-2.844-2.85 1.274-2.85 2.845-2.85 2.844 1.276 2.844 2.85zM12.945 32.491a3.986 3.986 0 01-3.982 3.99 3.986 3.986 0 01-3.983-3.99 3.986 3.986 0 013.983-3.99c2.199 0 3.982 1.787 3.982 3.99zM41.389 23.941h12.516c.63 0 1.138.465 1.138 1.043v28.691c0 .578-.508 1.044-1.138 1.044H41.389c-.63 0-1.138-.466-1.138-1.044v-28.69c0-.579.508-1.044 1.138-1.044z"/>
        <path d="M52.767 46.17a5.125 5.125 0 01-5.12 5.13 5.125 5.125 0 01-5.12-5.13 5.125 5.125 0 015.12-5.13 5.125 5.125 0 015.12 5.13z"/>
        <path d="M50.492 46.17c0 1.574-1.274 2.85-2.845 2.85s-2.844-1.276-2.844-2.85 1.274-2.85 2.845-2.85 2.844 1.276 2.844 2.85zM51.629 32.491c0 2.204-1.783 3.99-3.982 3.99s-3.983-1.787-3.983-3.99c0-2.204 1.783-3.99 3.983-3.99s3.982 1.787 3.982 3.99zM16.358 23.941h23.894v30.778H16.358z"/>
        <path d="M18.634 26.221h19.342v7.98H18.634z"/>
        <g>
            <path d="M22.047 30.781v3.42M24.322 29.641v4.56M26.598 28.508v5.693M28.874 30.427v3.774M31.149 27.559v6.642M33.425 30.699v3.502M16.358 36.48h23.894"/>
        </g>
        <g>
            <path d="M18.634 41.04h19.342v2.28H18.634zM24.336 50.159a1.139 1.139 0 112.278-.002 1.139 1.139 0 01-2.278.002zM37.18 49.589a1.708 1.708 0 11-3.413 0c0-.944.764-1.71 1.706-1.71s1.707.766 1.707 1.71zM19.785 50.159a1.139 1.139 0 112.278-.002 1.139 1.139 0 01-2.278.002zM28.887 50.159a1.139 1.139 0 112.278-.002 1.139 1.139 0 01-2.278.002z"/>
        </g>
    </g>
</svg>