<svg width="56" height="56" xmlns="http://www.w3.org/2000/svg">
    <g fill="none" stroke="var(--primary-color, #000)" stroke-linecap="round">
        <path d="M2 53C13.885 41.098 21.334 22.334 31 7c3.806-.542-9.304 33.517-22 44-1.871 1.545-7 2-7 2zM39 2c-3.66.296-7.85-.141-8 5"/>
        <path d="M31 7s9.966-1.165 13 2c2.09 2.179 2.87 6.63 1 9-1.664 2.11-6.116 2.917-8 1-1.652-1.681-2-5 1-7 3.648-2.432 9.983-1.181 13 2 2.305 2.43 2.738 7.136 1 10-1.862 3.07-7.027 6.013-10 4-1.932-1.308-1.186-5.19.97-6.084 7.03-2.916 8 9 8 9"/>
    </g>
</svg>