<svg width="56" height="56" xmlns="http://www.w3.org/2000/svg">
    <g fill="none" stroke="var(--primary-color, #000)">
        <path d="M10.289 15.596h34.7c1.356.282.675 1.886.84 2.839v35.021c-.297 1.287-1.987.64-2.992.798H10.29c-1.356-.283-.674-1.886-.84-2.84v-35.02c-.012-.428.39-.81.84-.798z"
              stroke-linecap="square" stroke-linejoin="round"/>
        <path d="M17.414 47.051c1.75-.003 2.204-.978 2.217-2.711-.03-7.104.06-14.514-.045-21.615-.256-1.788-4.344-2.232-4.389.538.03 7.43.012 14.456.045 21.994.004.873.423 1.797 2.172 1.794z"/>
        <path d="M27.636.81c-3.359-.174-5.784 4.37-4.128 7.622.08.651-1.609.14-2.271.302H7.997c-1.13.3-1.04 2.646-.308 3.367 4.217.161 8.46.024 12.687.07H47.28c1.13-.3 1.04-2.646.308-3.367-4.217-.161-8.46-.024-12.687-.07h-3.283C33.515 5.41 31.188.7 27.636.81z"
              stroke-linecap="square" stroke-linejoin="round"/>
        <path d="M27.414 47.051c1.75-.003 2.204-.978 2.217-2.711-.03-7.104.06-14.514-.045-21.615-.256-1.788-4.344-2.232-4.389.538.03 7.43.012 14.456.045 21.994.004.873.423 1.797 2.172 1.794zM37.414 47.051c1.75-.003 2.204-.978 2.217-2.711-.03-7.104.06-14.514-.045-21.615-.256-1.788-4.344-2.232-4.389.538.03 7.43.012 14.456.045 21.994.004.873.423 1.797 2.172 1.794z"/>
    </g>
</svg>