<svg width="56" height="56" xmlns="http://www.w3.org/2000/svg">
    <g fill="none" stroke="var(--primary-color, #000)" stroke-linecap="round">
        <path d="M53.682 32.091c-5.455-6.545-12.545-6.545-16.909 0-5.455-6.545-10.909-6.545-16.364 0-5.454-6.545-11.455-6.545-16.909 0C3.5 18.234 14.734 7 28.591 7c13.857 0 25.091 11.234 25.091 25.091z"
              stroke-linejoin="round"/>
        <path d="M20.409 32.091c-.12-9.186 1.089-17.989 8.182-25.091 7.146 7.162 8.28 15.959 8.182 25.091M28.591 7V2.636"/>
        <path d="M28.591 27.727v24c0 4.364-6.545 4.364-6.545 0"/>
    </g>
</svg>