<svg width="56" height="56" xmlns="http://www.w3.org/2000/svg">
    <g fill="none" stroke="var(--primary-color, #000)">
        <path d="M15 49h19.4M46 49l10 .046c-.343-3.771-.55-10.61-1.308-11.583C51 34 41.131 22.792 35.498 21c-6.327-.064-28.024.032-35.5 0v27.94l2.8.06m19.047-25.454h13.296C37 24.046 44.92 31.023 48 35l-26.153.046z"
              stroke-linecap="round" stroke-linejoin="round"/>
        <g transform="translate(0 -996.36)" stroke-linejoin="round">
            <ellipse cx="8.647" cy="1046.5" rx="5.911" ry="5.64"/>
            <ellipse cx="8.647" cy="1046.5" rx="2.834" ry="2.704"/>
            <ellipse cx="40.174" cy="1046.5" rx="5.911" ry="5.64"/>
            <ellipse cx="40.174" cy="1046.5" rx="2.834" ry="2.704"/>
        </g>
        <path d="M21.818 37.54h3.71"/>
        <path d="M47.7 37.74h4.6c1.027 0 1.3 3 1.3 3-3.664.135-4.6 0-5.9-3z" stroke-linecap="round"
              stroke-linejoin="round"/>
    </g>
</svg>