<svg width="56" height="56" xmlns="http://www.w3.org/2000/svg">
    <g fill="none" stroke="var(--primary-color, #000)">
        <path d="M8.658 1.262h39.014c1.544 0 2.787 1.33 2.787 2.984v47.737c0 1.653-1.243 2.984-2.787 2.984H8.658c-1.544 0-2.787-1.33-2.787-2.983V4.245c0-1.652 1.243-2.983 2.787-2.983z"/>
        <path d="M43.613 4.69a1.143 1.143 0 112.286 0 1.143 1.143 0 01-2.286 0zM5.871 8.118h44.587M34.467 4.69a1.143 1.143 0 112.286 0 1.143 1.143 0 01-2.286 0zM39.04 4.69a1.143 1.143 0 112.286 0 1.143 1.143 0 01-2.286 0z"/>
        <g>
            <path d="M43.028 28.114c0 8.204-6.654 14.855-14.862 14.855s-14.862-6.65-14.862-14.855 6.654-14.855 14.862-14.855 14.862 6.65 14.862 14.855z"/>
            <path d="M39.598 28.114c0 6.31-5.119 11.427-11.433 11.427s-11.433-5.116-11.433-11.427 5.119-11.427 11.433-11.427 11.433 5.116 11.433 11.427zM9.3 3.547h10.29v2.285H9.3z"/>
        </g>
        <path d="M17.189 30.4s3.901-3.085 6.974-3.085c3.072 0 6.645 3.118 9.718 3.085 2.222-.024 5.716-3.428 5.716-3.428"/>
    </g>
</svg>